<?xml version="1.0" encoding="UTF-8"?>
<svg xmlns="http://www.w3.org/2000/svg" id="Layer_1" data-name="Layer 1" viewBox="0 0 282.86 100.61">
  <defs>
    <style> .cls-1 { fill: none; stroke: #ef8090; stroke-width: 2px; } .cls-2 { fill: #df0020; } .cls-2, .cls-3, .cls-4 { stroke-width: 0px; } .cls-3 { fill: #7d7c80; } .cls-4 { fill: #fff; } </style>
  </defs>
  <g>
    <path class="cls-1" d="m157.37,73.18l-.1-38.17c0-.21-.17-.38-.38-.38h-10.78c-.35,0-.64.27-.64.62,0,0,0,0,0,0l.1,19.9c0,.47-.14.52-.43.14-5.85-7.73-15.19-2.24-18.34,4.9-4.56,10.31-4.05,28.83,7.21,35.55" vector-effect="non-scaling-stroke"></path>
    <path class="cls-1" d="m90.44,95.32l11.41-42.4c.1-.37-.04-.55-.42-.55h-10.38c-.47,0-.75.23-.82.7l-4.66,28.78c-.09.56-.18.56-.27,0l-4.68-28.86c-.07-.41-.31-.62-.73-.62h-11.39c-.27,0-.49.22-.49.49,0,.04,0,.09.02.13l8.87,32.64" vector-effect="non-scaling-stroke"></path>
    <path class="cls-1" d="m118.06,38.31c0-.25-.2-.45-.45-.45l-11.16.02c-.25,0-.45.2-.45.45h0s.02,9.1.02,9.1c0,.25.2.45.45.45l11.16-.02c.25,0,.45-.2.45-.45h0s-.02-9.1-.02-9.1" vector-effect="non-scaling-stroke"></path>
    <path class="cls-1" d="m105.93,95.06c0,.28.22.5.5.5h11.08c.28,0,.5-.22.5-.5v-42.18c0-.28-.22-.5-.5-.5h-10.81c-.28,0-.5.21-.5.49l-.27,42.19" vector-effect="non-scaling-stroke"></path>
    <path class="cls-1" d="m144.92,65.64c-.46-3.47-4-5.78-6.52-2.31-2.61,3.59-4.11,24.4,3.29,23,5.72-1.09,3.74-16.75,3.23-20.69" vector-effect="non-scaling-stroke"></path>
  </g>
  <path class="cls-2" d="m157.37,73.18l-.1-38.17c0-.21-.17-.38-.38-.38h-10.78c-.35,0-.64.27-.64.62,0,0,0,0,0,0l.1,19.9c0,.47-.14.52-.43.14-5.85-7.73-15.19-2.24-18.34,4.9-4.56,10.31-4.05,28.83,7.21,35.55-14.72,6.62-29.24,6.48-43.57-.43l11.41-42.4c.1-.37-.04-.55-.42-.55h-10.38c-.47,0-.75.23-.82.7l-4.66,28.78c-.09.56-.18.56-.27,0l-4.68-28.86c-.07-.41-.31-.62-.73-.62h-11.39c-.27,0-.49.22-.49.49,0,.04,0,.09.02.13l8.87,32.64c-18.25-18.48-19.73-46.85-3.81-66.68,23.93-29.8,71.4-23.45,86.17,11.94,5.53,13.25,5.31,29.44-1.89,42.29Zm-39.31-34.87c0-.25-.2-.45-.45-.45l-11.16.02c-.25,0-.45.2-.45.45h0s.02,9.1.02,9.1c0,.25.2.45.45.45l11.16-.02c.25,0,.45-.2.45-.45h0s-.02-9.1-.02-9.1Zm-12.13,56.75c0,.28.22.5.5.5h11.08c.28,0,.5-.22.5-.5v-42.18c0-.28-.22-.5-.5-.5h-10.81c-.28,0-.5.21-.5.49l-.27,42.19Z"></path>
  <path class="cls-4" d="m157.37,73.18c-5.12,9.74-12.91,17.26-23.36,22.57-11.26-6.72-11.77-25.24-7.21-35.55,3.15-7.14,12.49-12.63,18.34-4.9.29.38.43.33.43-.14l-.1-19.9c0-.35.28-.63.63-.64,0,0,0,0,.01,0h10.78c.21,0,.38.18.38.39h0s.1,38.17.1,38.17Zm-12.45-7.54c-.46-3.47-4-5.78-6.52-2.31-2.61,3.59-4.11,24.4,3.29,23,5.72-1.09,3.74-16.75,3.23-20.69Z"></path>
  <path class="cls-3" d="m11.95,84.37h13.59c.39,0,.71.32.71.71v7.97c0,.39-.32.71-.71.71l-24.83.16c-.39,0-.71-.32-.71-.71h0v-56.13c0-.39.32-.71.71-.71h9.84c.39,0,.71.33.71.72h0s-.02,46.57-.02,46.57c0,.39.32.71.71.71h0Z"></path>
  <rect class="cls-4" x="106.01" y="37.87" width="12.06" height="10" rx=".45" ry=".45" transform="translate(-.07 .2) rotate(-.1)"></rect>
  <path class="cls-3" d="m241.16,52.12h6.96c.42,0,.63.21.63.63v6.49c0,.41-.21.61-.62.62l-7.09.04c-.27,0-.48.21-.49.48-.13,6.14-.11,12.24.06,18.31.12,4.25,1.51,7.35,6.41,5.86.3-.09.61.08.7.38.01.05.02.1.02.15l.04,7.64c0,.31-.15.49-.45.56-9.17,1.97-16.86.45-17.68-10.17-.56-7.36-.65-14.63-.26-21.81.04-.76-.54-1.41-1.3-1.45-.06,0-.12,0-.19,0l-2.78.25c-.45.03-.83-.3-.87-.74,0-.02,0-.04,0-.06v-6.55c0-.42.21-.63.63-.63h3.68c.49,0,.73-.25.73-.74l-.05-5.86c0-.44.2-.72.62-.85l10.03-3.19c.25-.08.51.06.59.31.01.05.02.09.02.14v9.54c0,.36.3.65.66.65h0Z"></path>
  <path class="cls-3" d="m165.77,54.47c10.08-5.1,26.58-5,27.1,10.47.31,9.39.48,18.78.53,28.19,0,.29-.15.44-.44.44l-8.82-.06c-.41,0-.62-.22-.62-.63l-.03-2.51c0-.29-.24-.53-.53-.53-.14,0-.28.06-.38.16-8.21,8.37-20.17,2.89-19.86-8.39.27-9.7,8.71-15.35,17.65-15.23.81.02,1.47-.63,1.49-1.43,0-.12-.01-.24-.04-.36-1.58-6.99-9.4-5.29-13.87-2.71-.21.12-.48.05-.6-.17-.02-.03-.03-.06-.04-.09l-1.83-6.48c-.09-.3.01-.52.29-.67Zm15.66,18.95c-11.78.28-8.72,14.81-2.73,12.37,4.52-1.85,3.64-7.77,3.53-11.62-.02-.43-.37-.76-.8-.75Z"></path>
  <path class="cls-3" d="m210.49,55.88c-.23,2.71.28,2.87,1.55.5,1.85-3.46,4.81-5.14,8.88-5.05.46.01.83.38.83.84v9.67c0,.33-.26.59-.59.59,0,0,0,0-.01,0-7.96-.11-9.11,5.36-9.12,12.28-.01,6.07-.03,12.16-.04,18.26,0,.31-.16.46-.47.47l-9.72.21c-.54.01-.99-.42-1-.96,0,0,0-.01,0-.02l-.15-40c0-.37.18-.55.55-.55h8.32c.38,0,.62.18.71.55.27,1.04.35,2.11.26,3.21Z"></path>
  <path class="cls-3" d="m262.85,77.28c-.22,9.37,9.31,8.98,15.89,7.08.43-.13.68.03.75.47l1.23,6.79c.05.31-.07.51-.36.61-40.07,13.17-33.77-47.25-8.12-40.34,9.53,2.57,11.44,15.66,10.34,23.81-.11.78-.56,1.17-1.35,1.17h-17.96c-.27,0-.41.14-.42.41Zm.23-8.47l9.09.12c.17,0,.31-.13.32-.3h0v-.35c.07-4.76-1.97-8.65-4.56-8.69,0,0,0,0,0,0h-.36c-2.58-.04-4.73,3.79-4.8,8.55v.35c0,.17.13.31.3.32,0,0,0,0,.01,0Z"></path>
  <path class="cls-3" d="m48.88,89.85c-9.69,9.87-20.18,3.55-20.47-9.17-.21-9.35-.24-18.71-.11-28.07,0-.33.17-.49.5-.49h10.4c.29,0,.52.23.52.51.06,8.94.07,17.85.02,26.73-.04,7.74,8.23,7.37,8.24.1.01-8.94.02-17.88.02-26.83,0-.34.17-.51.51-.51h10.37c.18,0,.32.14.32.32l.25,40.8c0,.34-.27.62-.62.63,0,0,0,0-.01,0h-8.41c-.29,0-.54-.23-.56-.52l-.27-3.24c-.02-.23-.21-.4-.44-.38-.1,0-.19.05-.26.12Z"></path>
  <path class="cls-4" d="m90.44,95.32c-5.49-2.78-10.01-6.01-13.54-9.69l-8.87-32.64c-.07-.26.08-.53.34-.6.04-.01.08-.02.13-.02h11.39c.42,0,.66.21.73.62l4.68,28.86c.09.56.18.56.27,0l4.66-28.78c.07-.47.35-.7.82-.7h10.38c.38,0,.52.18.42.55l-11.41,42.4Z"></path>
  <path class="cls-4" d="m105.93,95.06l.27-42.19c0-.28.22-.5.5-.5h10.81c.28,0,.5.23.5.51v42.18c0,.28-.22.5-.5.5h-11.08c-.28,0-.5-.22-.5-.5Z"></path>
  <path class="cls-2" d="m138.4,63.33c2.52-3.47,6.06-1.16,6.52,2.31.51,3.94,2.49,19.6-3.23,20.69-7.4,1.4-5.9-19.41-3.29-23Z"></path>
</svg>
