<svg width="72" height="61" viewBox="0 0 72 61" fill="none" xmlns="http://www.w3.org/2000/svg">
    <mask id="mask0_223_416" style="mask-type:alpha" maskUnits="userSpaceOnUse" x="0" y="0" width="72" height="61">
    <path d="M0 0.5H72V60.5H0V0.5Z" fill="white"/>
    </mask>
    <g mask="url(#mask0_223_416)">
    <path d="M47.9169 33.6008C47.7122 33.3012 47.4921 33.0194 47.2571 32.7561L55.3388 24.9164C55.3391 24.9161 55.3394 24.9158 55.3397 24.9155C56.5466 23.7474 57.5654 22.4459 58.3898 21.013C59.2974 19.4356 59.75 17.7104 59.75 15.875C59.75 13.4409 58.8751 11.3071 57.159 9.59099C55.4429 7.87486 53.3091 7 50.875 7C49.4723 7 48.1327 7.2983 46.8814 7.90159C46.3004 8.18172 45.7559 8.51108 45.25 8.88913C44.7441 8.51108 44.1996 8.18172 43.6186 7.90159C42.3673 7.2983 41.0277 7 39.625 7C37.1909 7 35.0571 7.87486 33.341 9.59099C31.6249 11.3071 30.75 13.4409 30.75 15.875C30.75 17.7194 31.216 19.4509 32.1465 21.0307C32.9853 22.4546 34.0082 23.7496 35.2101 24.9132C35.2112 24.9143 35.2122 24.9153 35.2133 24.9164L39.2294 28.8357L31.934 26.1348L31.9032 26.1234L31.872 26.113C31.5853 26.0175 31.2875 25.9381 30.9816 25.8725C30.6039 25.7916 30.2204 25.75 29.8333 25.75H14H12V27.75V50.6667V52.6667H14H26.5H28.5V50.6667V50.2791L40.5466 53.635L41.1159 53.7935L41.6799 53.6173L58.3465 48.409L59.75 47.9704V46.5V44.4167C59.75 42.0653 58.9663 40.0022 57.2991 38.4302C55.6968 36.9195 53.724 36.1667 51.5 36.1667H49.0866C48.8559 35.2607 48.4645 34.4021 47.9169 33.6008ZM28.5 41.8484V33.9167H29.4774L31.6459 34.7136L31.398 35.5925L30.2522 39.655L29.7341 41.4918L31.5446 42.0953L36.3724 43.7046C37.0766 43.9519 37.7839 44.1253 38.4915 44.2137C39.1657 44.298 40.006 44.3333 40.9792 44.3333H43.8916L40.9431 45.2501L28.5 41.8484ZM49.9114 15.5929L49.9172 15.5859L49.9229 15.579C50.0442 15.4307 50.1666 15.3426 50.3003 15.2838C50.474 15.2073 50.6591 15.1667 50.875 15.1667C51.1304 15.1667 51.2574 15.2316 51.3879 15.3621C51.5184 15.4926 51.5833 15.6196 51.5833 15.875C51.5833 16.3858 51.4422 16.8084 51.1455 17.207C50.6499 17.873 50.108 18.5005 49.5192 19.0899L45.25 23.2807L40.9808 19.0899C40.392 18.5005 39.8501 17.873 39.3545 17.207C39.0578 16.8084 38.9167 16.3858 38.9167 15.875C38.9167 15.6196 38.9816 15.4926 39.1121 15.3621C39.2426 15.2316 39.3696 15.1667 39.625 15.1667C39.8409 15.1667 40.026 15.2073 40.1997 15.2838C40.3334 15.3426 40.4558 15.4307 40.5771 15.579L40.5828 15.5859L40.5886 15.5929L43.7136 19.3429L45.25 21.1866L46.7864 19.3429L49.9114 15.5929ZM20.3333 33.9167V44.5H20.1667V33.9167H20.3333Z" fill="#FBF8F8" stroke="black" stroke-width="4"/>
    </g>
    </svg>
    