<svg width="46" height="45" viewBox="0 0 46 45" fill="none" xmlns="http://www.w3.org/2000/svg">
<mask id="mask0_223_406" style="mask-type:alpha" maskUnits="userSpaceOnUse" x="0" y="0" width="46" height="45">
<rect x="0.5" width="45" height="45" fill="#D9D9D9"/>
</mask>
<g mask="url(#mask0_223_406)">
<path d="M37.9063 39.375C34 39.375 30.1406 38.5234 26.3281 36.8203C22.5156 35.1172 19.0469 32.7031 15.9219 29.5781C12.7969 26.4531 10.3828 22.9844 8.67969 19.1719C6.97656 15.3594 6.125 11.5 6.125 7.59375C6.125 7.03125 6.3125 6.5625 6.6875 6.1875C7.0625 5.8125 7.53125 5.625 8.09375 5.625H15.6875C16.125 5.625 16.5156 5.77344 16.8594 6.07031C17.2031 6.36719 17.4062 6.71875 17.4688 7.125L18.6875 13.6875C18.75 14.1875 18.7344 14.6094 18.6406 14.9531C18.5469 15.2969 18.375 15.5938 18.125 15.8438L13.5781 20.4375C14.2031 21.5938 14.9453 22.7109 15.8047 23.7891C16.6641 24.8672 17.6094 25.9062 18.6406 26.9062C19.6094 27.875 20.625 28.7734 21.6875 29.6016C22.75 30.4297 23.875 31.1875 25.0625 31.875L29.4688 27.4688C29.75 27.1875 30.1172 26.9766 30.5703 26.8359C31.0234 26.6953 31.4688 26.6562 31.9062 26.7188L38.375 28.0312C38.8125 28.1562 39.1719 28.3828 39.4531 28.7109C39.7344 29.0391 39.875 29.4063 39.875 29.8125V37.4063C39.875 37.9688 39.6875 38.4375 39.3125 38.8125C38.9375 39.1875 38.4688 39.375 37.9063 39.375ZM11.7969 16.875L14.8906 13.7812L14.0938 9.375H9.92188C10.0781 10.6562 10.2969 11.9219 10.5781 13.1719C10.8594 14.4219 11.2656 15.6562 11.7969 16.875ZM28.5781 33.6562C29.7969 34.1875 31.0391 34.6094 32.3047 34.9219C33.5703 35.2344 34.8438 35.4375 36.125 35.5312V31.4062L31.7188 30.5156L28.5781 33.6562Z" fill="#1C1B1F"/>
</g>
</svg>
