<svg xmlns="http://www.w3.org/2000/svg" xmlns:xlink="http://www.w3.org/1999/xlink" width="1080" zoomAndPan="magnify" viewBox="0 0 810 809.999993" height="1080" preserveAspectRatio="xMidYMid meet" version="1.0"><path fill="#38b6ff" d="M 543.261719 453.308594 C 543.261719 529.503906 481.492188 591.273438 405.296875 591.273438 C 329.101562 591.273438 267.332031 529.503906 267.332031 453.308594 C 267.332031 377.109375 329.101562 315.339844 405.296875 315.339844 C 481.492188 315.339844 543.261719 377.109375 543.261719 453.308594 Z M 543.261719 453.308594 " fill-opacity="1" fill-rule="nonzero"/><path stroke-linecap="round" transform="matrix(0.821223, -0.000990088, 0.000990088, 0.821223, 230.422742, 422.723399)" fill-opacity="1" fill="#ffffff" fill-rule="nonzero" stroke-linejoin="round" d="M -16.703995 -41.379886 C -16.703995 -41.379886 -15.380862 32.924928 -2.357905 41.37888 C -2.357905 41.37888 16.706205 37.796343 16.706205 37.796343 C 16.706205 37.796343 14.535026 -31.42942 14.535026 -31.42942 C 14.535026 -31.42942 -16.703995 -41.379886 -16.703995 -41.379886 Z M -16.703995 -41.379886 " stroke="#004aad" stroke-width="3" stroke-opacity="1" stroke-miterlimit="4"/><path stroke-linecap="round" transform="matrix(0.821223, -0.000990088, 0.000990088, 0.821223, 227.355621, 401.061533)" fill-opacity="1" fill="#38b6ff" fill-rule="nonzero" stroke-linejoin="round" d="M -16.231621 -33.985442 C -16.231621 -33.985442 -28.07604 17.657212 -10.07565 32.338829 C -2.71012 38.341055 27.305461 25.439226 27.305461 25.439226 C 27.305461 25.439226 28.076824 -38.341412 28.076824 -38.341412 " stroke="#004aad" stroke-width="3" stroke-opacity="1" stroke-miterlimit="4"/><path stroke-linecap="round" transform="matrix(0.821223, -0.000990088, 0.000990088, 0.821223, 249.97165, 477.62246)" fill-opacity="1" fill="#ffffff" fill-rule="nonzero" stroke-linejoin="round" d="M -31.449432 -35.623882 C -31.449432 -35.623882 -29.483473 -25.009484 -11.104378 -0.923567 C -1.705875 11.397907 25.380361 37.339892 25.380361 37.339892 C 25.380361 37.339892 31.446743 31.996004 31.446743 31.996004 C 31.446743 31.996004 -7.126745 -37.340239 -7.126745 -37.340239 " stroke="#004aad" stroke-width="3" stroke-opacity="1" stroke-miterlimit="4"/><path stroke-linecap="round" transform="matrix(0.821223, -0.000990088, 0.000990088, 0.821223, 283.441864, 519.472026)" fill-opacity="1" fill="#5271ff" fill-rule="nonzero" stroke-linejoin="round" d="M -13.828193 -27.509189 C -13.828193 -27.509189 13.823895 -13.24879 13.823895 -13.24879 C 13.823895 -13.24879 9.35047 -7.479642 9.35047 -7.479642 C 9.35047 -7.479642 23.329701 0.813737 23.329701 0.813737 C 23.329701 0.813737 15.396766 27.507859 -1.547119 16.328392 C -18.486254 5.153687 -23.329178 -21.898315 -23.329178 -21.898315 C -23.329178 -21.898315 -13.828193 -27.509189 -13.828193 -27.509189 Z M -13.828193 -27.509189 " stroke="#004aad" stroke-width="3" stroke-opacity="1" stroke-miterlimit="4"/><path stroke-linecap="round" transform="matrix(0.821223, -0.000990088, 0.000990088, 0.821223, 307.65743, 506.655523)" fill-opacity="1" fill="#38b6ff" fill-rule="nonzero" stroke-linejoin="round" d="M -12.019572 10.298755 C -12.019572 10.298755 -15.12361 4.66317 -15.12361 4.66317 C -15.12361 4.66317 12.016695 -10.296987 12.016695 -10.296987 C 12.016695 -10.296987 15.120739 -4.666159 15.120739 -4.666159 C 15.120739 -4.666159 -12.019572 10.298755 -12.019572 10.298755 Z M -12.019572 10.298755 " stroke="#004aad" stroke-width="2" stroke-opacity="1" stroke-miterlimit="4"/><path stroke-linecap="round" transform="matrix(0.821223, -0.000990088, 0.000990088, 0.821223, 282.534013, 520.54557)" fill-opacity="1" fill="#5271ff" fill-rule="nonzero" stroke-linejoin="round" d="M -18.045107 15.671935 C -18.045107 15.671935 -22.886275 6.890128 -22.886275 6.890128 C -22.886275 6.890128 18.043136 -15.673516 18.043136 -15.673516 C 18.043136 -15.673516 22.884304 -6.891708 22.884304 -6.891708 C 22.884304 -6.891708 -18.045107 15.671935 -18.045107 15.671935 Z M -18.045107 15.671935 " stroke="#004aad" stroke-width="2" stroke-opacity="1" stroke-miterlimit="4"/><path stroke-linecap="round" transform="matrix(0.821223, -0.000990088, 0.000990088, 0.821223, 328.153933, 496.747315)" fill-opacity="1" fill="#38b6ff" fill-rule="nonzero" stroke-linejoin="round" d="M 21.876974 -14.487571 C 23.443239 -11.650735 11.832193 4.23666 8.995357 5.802926 C 8.995357 5.802926 -9.010916 15.727317 -9.010916 15.727317 C -11.847752 17.293583 -15.413976 16.261852 -16.975485 13.425022 C -16.975485 13.425022 -21.878358 4.533738 -21.878358 4.533738 C -23.444623 1.696902 -22.412887 -1.874079 -19.576057 -3.435588 C -19.576057 -3.435588 -1.569784 -13.359979 -1.569784 -13.359979 C 1.267052 -14.926245 20.329694 -17.291088 21.89596 -14.454251 " stroke="#004aad" stroke-width="2" stroke-opacity="1" stroke-miterlimit="4"/><path stroke-linecap="round" transform="matrix(0.821223, -0.000990088, 0.000990088, 0.821223, 324.262137, 497.425483)" fill-opacity="1" fill="#38b6ff" fill-rule="nonzero" stroke-linejoin="round" d="M -14.234956 2.180761 C -14.234956 2.180761 9.23105 -10.966795 13.145949 -7.185316 C 13.145949 -7.185316 14.238551 -2.061115 -9.393794 10.967325 " stroke="#004aad" stroke-width="2" stroke-opacity="1" stroke-miterlimit="4"/><path stroke-linecap="round" transform="matrix(0.821223, -0.000990088, 0.000990088, 0.821223, 290.95827, 513.146898)" fill-opacity="1" fill="#5271ff" fill-rule="nonzero" stroke-linejoin="round" d="M -5.98595 -11.330864 C -5.98595 -11.330864 4.661927 -5.557755 4.661927 -5.557755 C 4.661927 -5.557755 7.657264 11.331871 7.657264 11.331871 C 7.657264 11.331871 -7.65526 4.230797 -5.773617 -2.017138 " stroke="#004aad" stroke-width="3" stroke-opacity="1" stroke-miterlimit="4"/><path stroke-linecap="round" transform="matrix(0.821224, -0.000507344, 0.000507344, 0.821224, 233.662799, 360.098908)" fill-opacity="1" fill="#ffffff" fill-rule="nonzero" stroke-linejoin="round" d="M 36.381876 -41.247493 C 36.381876 -41.247493 2.592654 -21.086024 -18.635923 -21.446372 C -39.859741 -21.811474 -30.092465 21.256251 -9.231344 31.253286 C 11.62502 41.250319 19.905508 4.030118 19.905508 4.030118 C 19.905508 4.030118 12.099594 -3.185742 39.864176 -11.183496 " stroke="#004aad" stroke-width="3" stroke-opacity="1" stroke-miterlimit="4"/><path stroke-linecap="round" transform="matrix(0.821223, -0.00097536, 0.00097536, 0.821223, 275.927978, 330.86013)" fill-opacity="1" fill="#ffffff" fill-rule="nonzero" stroke-linejoin="round" d="M 26.823731 16.821821 C 13.105081 37.306576 -11.470122 43.40392 -11.470122 43.40392 C -22.249571 36.184832 -40.544631 5.05954 -26.825982 -15.425215 C -13.107333 -35.909969 5.271648 -43.403606 21.83055 -32.310519 C 38.394215 -21.222183 40.547137 -3.662928 26.823731 16.821821 Z M 26.823731 16.821821 " stroke="#004aad" stroke-width="3" stroke-opacity="1" stroke-miterlimit="4"/><path stroke-linecap="round" transform="matrix(0.821223, -0.00097536, 0.00097536, 0.821223, 278.457529, 310.241107)" fill-opacity="1" fill="#004aad" fill-rule="nonzero" stroke-linejoin="round" d="M -18.1546 26.31718 C 0.291951 13.99565 9.158257 26.045195 9.158257 26.045195 C 9.158257 26.045195 13.042707 19.476154 14.058031 9.645419 C 14.058031 9.645419 41.930586 22.721185 27.932377 -1.758756 C 27.932377 -1.758756 8.939359 -33.95036 -20.347263 -13.850356 C -20.347263 -13.850356 -41.928375 18.450028 -41.928375 18.450028 C -33.261187 33.947889 -24.591489 31.313503 -24.591489 31.313503 C -24.591489 31.313503 -18.1546 26.31718 -18.1546 26.31718 Z M -18.1546 26.31718 " stroke="#004aad" stroke-width="3" stroke-opacity="1" stroke-miterlimit="4"/><path stroke-linecap="round" transform="matrix(0.821223, -0.00097536, 0.00097536, 0.821223, 289.570419, 353.229669)" fill-opacity="1" fill="#ffffff" fill-rule="nonzero" stroke-linejoin="round" d="M 8.039495 -8.793989 C 8.039495 -8.793989 0.360146 1.033588 1.168352 5.391616 C 1.796943 8.793348 -8.039006 4.158228 -8.039006 4.158228 " stroke="#004aad" stroke-width="3" stroke-opacity="1" stroke-miterlimit="4"/><path stroke-linecap="round" transform="matrix(0.821223, -0.00097536, 0.00097536, 0.821223, 296.946668, 323.454817)" fill-opacity="1" fill="#004aad" fill-rule="nonzero" stroke-linejoin="round" d="M -12.040627 -32.071249 C -12.040627 -32.071249 13.819783 -30.932241 21.72067 -3.010989 C 23.241154 2.370558 24.579193 13.183953 17.318538 18.911818 C 10.057884 24.639683 14.872275 32.07049 14.872275 32.07049 C 14.872275 32.07049 5.907075 27.193816 3.892275 21.497745 C -2.991244 2.049248 -24.579919 4.673047 -24.579919 4.673047 C -24.579919 4.673047 -12.040627 -32.071249 -12.040627 -32.071249 Z M -12.040627 -32.071249 " stroke="#004aad" stroke-width="3" stroke-opacity="1" stroke-miterlimit="4"/><path stroke-linecap="round" transform="matrix(0.821223, -0.00097536, 0.00097536, 0.821223, 269.278759, 328.313207)" fill-opacity="1" fill="#ffffff" fill-rule="nonzero" stroke-linejoin="round" d="M 10.757746 4.016994 C 10.757746 4.016994 11.366994 -12.340312 -0.00128684 -4.372199 C -11.369562 3.591157 -6.266583 12.339892 -6.266583 12.339892 " stroke="#004aad" stroke-width="3" stroke-opacity="1" stroke-miterlimit="4"/><path stroke-linecap="round" transform="matrix(0.821224, 0, 0, 0.821224, 228.196617, 572.354823)" fill-opacity="1" fill="#ffffff" fill-rule="nonzero" stroke-linejoin="round" d="M 13.683208 -27.34978 C 13.683208 -27.34978 -0.00158826 4.762163 10.948151 7.207066 C 10.948151 7.207066 24.613921 14.879494 24.613921 14.879494 C 24.613921 14.879494 -24.612341 27.346595 -24.612341 27.346595 C -24.612341 27.346595 -10.009517 -23.021255 -10.009517 -23.021255 C -10.009517 -23.021255 13.683208 -27.34978 13.683208 -27.34978 Z M 13.683208 -27.34978 " stroke="#004aad" stroke-width="3" stroke-opacity="1" stroke-miterlimit="4"/><path stroke-linecap="round" transform="matrix(0.821224, 0, 0, 0.821224, 239.237144, 588.261134)" fill-opacity="1" fill="#38b6ff" fill-rule="nonzero" stroke-linejoin="round" d="M -40.662961 -12.195262 C -40.662961 -12.195262 -45.348232 14.603535 -45.348232 14.603535 C -45.348232 14.603535 38.406335 13.542809 38.406335 13.542809 C 38.406335 13.542809 45.346244 3.691849 33.830467 -3.110118 C 33.830467 -3.110118 -0.807241 -14.606869 -0.807241 -14.606869 C -0.807241 -14.606869 -15.562277 11.273901 -40.662961 -12.195262 Z M -40.662961 -12.195262 " stroke="#004aad" stroke-width="3" stroke-opacity="1" stroke-miterlimit="4"/><path stroke-linecap="round" transform="matrix(0.821224, 0, 0, 0.821224, 211.816471, 501.867523)" fill-opacity="1" fill="#5271ff" fill-rule="nonzero" stroke-linejoin="round" d="M -76.767172 -59.129953 C -76.767172 -59.129953 25.709453 -81.262507 50.948079 -54.925101 C 85.057802 -19.331312 30.956005 79.26391 30.956005 79.26391 C 30.956005 79.26391 -4.666323 81.26169 -4.666323 81.26169 C -4.666323 81.26169 22.375062 -12.010874 22.375062 -12.010874 C 2.297368 7.105982 -85.05796 8.846905 -85.05796 8.846905 " stroke="#004aad" stroke-width="3" stroke-opacity="1" stroke-miterlimit="4"/><path stroke-linecap="round" transform="matrix(0.821224, 0, 0, 0.821224, 151.160885, 485.18438)" fill-opacity="1" fill="#5271ff" fill-rule="nonzero" stroke-linejoin="round" d="M -45.093647 -58.535924 C -45.093647 -58.535924 -62.683628 58.538767 27.45908 17.39876 C 62.686609 1.321383 41.686131 -56.214694 41.686131 -56.214694 C 41.686131 -56.214694 -45.093647 -58.535924 -45.093647 -58.535924 Z M -45.093647 -58.535924 " stroke="#004aad" stroke-width="3" stroke-opacity="1" stroke-miterlimit="4"/><path stroke-linecap="round" transform="matrix(0.821224, 0, 0, 0.821224, 61.460244, 588.495158)" fill-opacity="1" fill="#ffffff" fill-rule="nonzero" stroke-linejoin="round" d="M 27.860368 6.765053 C 27.860368 6.765053 -2.296604 -2.467547 -13.774328 11.7928 C -13.774328 11.7928 -27.85868 18.66136 -27.85868 18.66136 C -27.85868 18.66136 -15.905294 -18.654325 -15.905294 -18.654325 C -15.905294 -18.654325 24.849428 -18.659082 24.849428 -18.659082 C 24.849428 -18.659082 27.860368 6.765053 27.860368 6.765053 Z M 27.860368 6.765053 " stroke="#004aad" stroke-width="3" stroke-opacity="1" stroke-miterlimit="4"/><path stroke-linecap="round" transform="matrix(0.821224, 0, 0, 0.821224, 41.180121, 589.906046)" fill-opacity="1" fill="#38b6ff" fill-rule="nonzero" stroke-linejoin="round" d="M 32.672696 -21.285627 C 32.672696 -21.285627 13.303739 -40.39297 13.303739 -40.39297 C 13.303739 -40.39297 -32.673751 29.643505 -32.673751 29.643505 C -32.673751 29.643505 -29.344117 40.38871 -17.195709 34.794924 C -17.195709 34.794924 11.967129 12.857392 11.967129 12.857392 C 11.967129 12.857392 -0.909042 -14.007998 32.672696 -21.285627 Z M 32.672696 -21.285627 " stroke="#004aad" stroke-width="3" stroke-opacity="1" stroke-miterlimit="4"/><path stroke-linecap="round" transform="matrix(0.821224, 0, 0, 0.821224, 148.560889, 541.301057)" fill-opacity="1" fill="#5271ff" fill-rule="nonzero" stroke-linejoin="round" d="M 33.112795 -60.090718 C 33.112795 -60.090718 101.750823 69.569991 65.296087 70.849521 C 22.243918 72.366883 -92.200363 67.053739 -92.200363 67.053739 C -92.200363 67.053739 -101.751656 37.077518 -101.751656 37.077518 C -101.751656 37.077518 21.454319 30.513383 21.454319 30.513383 C -14.191793 6.639906 -38.112835 -72.367554 -38.112835 -72.367554 " stroke="#004aad" stroke-width="3" stroke-opacity="1" stroke-miterlimit="4"/><path stroke-linecap="round" transform="matrix(0.821224, -0.000507344, 0.000507344, 0.821224, 180.02891, 405.711624)" fill-opacity="1" fill="#38b6ff" fill-rule="nonzero" stroke-linejoin="round" d="M 64.048797 -81.527806 C 64.048797 -81.527806 75.139676 -55.901792 77.430163 -52.332912 C 79.50205 -49.097129 85.546078 -54.144927 85.546078 -54.144927 C 85.546078 -54.144927 95.837004 -4.060862 47.238913 18.541118 C 10.307408 35.718244 29.709348 51.631614 12.53762 75.256656 C 1.907044 89.890968 -95.834723 48.091234 -79.353608 33.627018 C -72.500359 27.614126 -66.462102 1.109207 -7.441788 -45.345545 C 9.671343 -58.815237 31.043014 -89.89131 64.048797 -81.527806 Z M 64.048797 -81.527806 " stroke="#004aad" stroke-width="3" stroke-opacity="1" stroke-miterlimit="4"/><path stroke-linecap="round" transform="matrix(0.821222, -0.00180187, 0.00180187, 0.821222, 190.786343, 417.669959)" fill-opacity="1" fill="#ffffff" fill-rule="nonzero" stroke-linejoin="round" d="M -1.719663 -42.868206 C -1.719663 -42.868206 -24.597239 27.841252 -15.025183 40.067772 C -15.025183 40.067772 4.171194 42.868738 4.171194 42.868738 C 4.171194 42.868738 24.593927 -23.313037 24.593927 -23.313037 C 24.593927 -23.313037 -1.719663 -42.868206 -1.719663 -42.868206 Z M -1.719663 -42.868206 " stroke="#004aad" stroke-width="3" stroke-opacity="1" stroke-miterlimit="4"/><path stroke-linecap="round" transform="matrix(0.821222, -0.00180187, 0.00180187, 0.821222, 198.431713, 393.231593)" fill-opacity="1" fill="#38b6ff" fill-rule="nonzero" stroke-linejoin="round" d="M -7.675916 -36.396931 C -7.675916 -36.396931 -35.6485 8.59651 -23.386392 28.33014 C -18.371579 36.398878 10.234366 34.430561 10.234366 34.430561 C 10.234366 34.430561 35.648747 -26.132192 35.648747 -26.132192 " stroke="#004aad" stroke-width="3" stroke-opacity="1" stroke-miterlimit="4"/><path stroke-linecap="round" transform="matrix(0.821198, -0.00646211, 0.00646211, 0.821198, 190.085444, 475.264796)" fill-opacity="1" fill="#ffffff" fill-rule="nonzero" stroke-linejoin="round" d="M -15.023228 -45.087689 C -15.023228 -45.087689 -19.557129 -31.699769 -9.998726 -2.946003 C -5.110273 11.752822 12.084726 45.090368 12.084726 45.090368 C 12.084726 45.090368 19.558103 42.004954 19.558103 42.004954 C 19.558103 42.004954 7.814156 -40.27013 7.814156 -40.27013 " stroke="#004aad" stroke-width="3" stroke-opacity="1" stroke-miterlimit="4"/><path stroke-linecap="round" transform="matrix(0.821198, -0.00646211, 0.00646211, 0.821198, 212.224198, 528.745241)" fill-opacity="1" fill="#5271ff" fill-rule="nonzero" stroke-linejoin="round" d="M -8.457781 -32.849158 C -8.457781 -32.849158 13.065817 -10.384818 13.065817 -10.384818 C 13.065817 -10.384818 6.959949 -6.384856 6.959949 -6.384856 C 6.959949 -6.384856 19.517146 8.207828 19.517146 8.207828 C 19.517146 8.207828 5.271743 32.849946 -7.126362 16.779159 C -19.519711 0.70841 -19.268333 -30.631952 -19.268333 -30.631952 C -19.268333 -30.631952 -8.457781 -32.849158 -8.457781 -32.849158 Z M -8.457781 -32.849158 " stroke="#004aad" stroke-width="3" stroke-opacity="1" stroke-miterlimit="4"/><path stroke-linecap="round" transform="matrix(0.821223, 0.000727081, -0.000727081, 0.821223, 610.087941, 382.905615)" fill-opacity="1" fill="#ffffff" fill-rule="nonzero" stroke-linejoin="round" d="M 30.180979 -34.616107 C 30.180979 -34.616107 1.426034 33.914229 -13.797233 36.943406 C -13.797233 36.943406 -30.178725 26.555176 -30.178725 26.555176 C -30.178725 26.555176 -2.522864 -36.946437 -2.522864 -36.946437 C -2.522864 -36.946437 30.180979 -34.616107 30.180979 -34.616107 Z M 30.180979 -34.616107 " stroke="#004aad" stroke-width="3" stroke-opacity="1" stroke-miterlimit="4"/><path stroke-linecap="round" transform="matrix(0.821223, 0.000727081, -0.000727081, 0.821223, 617.489396, 358.112023)" fill-opacity="1" fill="#ffffff" fill-rule="nonzero" stroke-linejoin="round" d="M 31.226426 -20.860121 C 31.226426 -20.860121 23.100901 31.493704 0.941215 38.467505 C -8.122387 41.315233 -31.226729 18.213747 -31.226729 18.213747 C -31.226729 18.213747 -8.319218 -41.316638 -8.319218 -41.316638 " stroke="#004aad" stroke-width="3" stroke-opacity="1" stroke-miterlimit="4"/><path stroke-linecap="round" transform="matrix(0.821223, 0.000727081, -0.000727081, 0.821223, 562.576679, 405.368376)" fill-opacity="1" fill="#ffffff" fill-rule="nonzero" stroke-linejoin="round" d="M 45.787157 8.653121 C 45.787157 8.653121 35.601642 12.234362 5.560074 8.284424 C -9.800847 6.266946 -45.784546 -4.308464 -45.784546 -4.308464 C -45.784546 -4.308464 -44.174311 -12.234422 -44.174311 -12.234422 C -44.174311 -12.234422 36.160884 -11.558759 36.160884 -11.558759 " stroke="#004aad" stroke-width="3" stroke-opacity="1" stroke-miterlimit="4"/><path stroke-linecap="round" transform="matrix(0.821223, 0.000727081, -0.000727081, 0.821223, 508.666274, 396.393926)" fill-opacity="1" fill="#5271ff" fill-rule="nonzero" stroke-linejoin="round" d="M 31.127967 -1.620292 C 31.127967 -1.620292 4.999163 -18.502195 4.999163 -18.502195 C 4.999163 -18.502195 2.222512 -11.754845 2.222512 -11.754845 C 2.222512 -11.754845 -8.481263 -18.680524 -8.481263 -18.680524 C -8.481263 -18.680524 -31.129656 0.423097 -13.003597 9.554034 C 5.122463 18.684971 30.995039 9.41519 30.995039 9.41519 C 30.995039 9.41519 31.127967 -1.620292 31.127967 -1.620292 Z M 31.127967 -1.620292 " stroke="#004aad" stroke-width="3" stroke-opacity="1" stroke-miterlimit="4"/><path stroke-linecap="round" transform="matrix(0.821224, 0, 0, 0.821224, 748.946966, 577.467759)" fill-opacity="1" fill="#ffffff" fill-rule="nonzero" stroke-linejoin="round" d="M -27.861537 6.760364 C -27.861537 6.760364 2.295434 -2.472236 13.773159 11.792868 C 13.773159 11.792868 27.862268 18.661428 27.862268 18.661428 C 27.862268 18.661428 15.904124 -18.654257 15.904124 -18.654257 C 15.904124 -18.654257 -24.850597 -18.663771 -24.850597 -18.663771 C -24.850597 -18.663771 -27.861537 6.760364 -27.861537 6.760364 Z M -27.861537 6.760364 " stroke="#004aad" stroke-width="3" stroke-opacity="1" stroke-miterlimit="4"/><path stroke-linecap="round" transform="matrix(0.821224, 0, 0, 0.821224, 769.226269, 578.878647)" fill-opacity="1" fill="#ffffff" fill-rule="nonzero" stroke-linejoin="round" d="M -32.672866 -21.285559 C -32.672866 -21.285559 -13.303909 -40.392902 -13.303909 -40.392902 C -13.303909 -40.392902 32.673581 29.643573 32.673581 29.643573 C 32.673581 29.643573 29.343947 40.388777 17.195539 34.794992 C 17.195539 34.794992 -11.967299 12.852703 -11.967299 12.852703 C -11.967299 12.852703 0.908872 -14.00793 -32.672866 -21.285559 Z M -32.672866 -21.285559 " stroke="#004aad" stroke-width="3" stroke-opacity="1" stroke-miterlimit="4"/><path stroke-linecap="round" transform="matrix(0.821224, 0, 0, 0.821224, 668.532738, 530.240849)" fill-opacity="1" fill="#38b6ff" fill-rule="nonzero" stroke-linejoin="round" d="M -24.232035 -77.593115 C -24.232035 -77.593115 -87.504596 76.464298 -51.049859 77.748586 C -7.99769 79.261191 77.954436 69.105807 77.954436 69.105807 C 77.954436 69.105807 87.505729 38.130697 87.505729 38.130697 C 87.505729 38.130697 -2.380122 36.128159 -2.380122 36.128159 C -2.380122 36.128159 37.090312 -79.262688 37.090312 -79.262688 " stroke="#004aad" stroke-width="3" stroke-opacity="1" stroke-miterlimit="4"/><path stroke-linecap="round" transform="matrix(0.821224, 0, 0, 0.821224, 665.448186, 487.361491)" fill-opacity="1" fill="#004aad" fill-rule="nonzero" stroke-linejoin="round" d="M -19.334403 -25.973723 C -19.334403 -25.973723 -39.987648 27.647656 -39.987648 27.647656 C -39.987648 27.647656 33.811313 -6.547687 33.811313 -6.547687 C 33.811313 -6.547687 39.985406 -27.648053 39.985406 -27.648053 C 39.985406 -27.648053 -19.334403 -25.973723 -19.334403 -25.973723 Z M -19.334403 -25.973723 " stroke="#004aad" stroke-width="3" stroke-opacity="1" stroke-miterlimit="4"/><path stroke-linecap="round" transform="matrix(0.821224, 0, 0, 0.821224, 696.0922, 434.932054)" fill-opacity="1" fill="#38b6ff" fill-rule="nonzero" stroke-linejoin="round" d="M 35.224659 -47.083908 C 35.224659 -47.083908 60.900894 3.86425 36.499433 28.004098 C 26.472478 37.921651 11.032489 47.082901 -22.915509 40.38558 C -60.901877 32.889146 -49.809439 -29.598572 -49.809439 -29.598572 C -49.809439 -29.598572 35.224659 -47.083908 35.224659 -47.083908 Z M 35.224659 -47.083908 " stroke="#004aad" stroke-width="3" stroke-opacity="1" stroke-miterlimit="4"/><path stroke-linecap="round" transform="matrix(0.821224, 0, 0, 0.821224, 592.578598, 574.273167)" fill-opacity="1" fill="#ffffff" fill-rule="nonzero" stroke-linejoin="round" d="M -1.97933 -23.116845 C -1.97933 -23.116845 11.529472 -5.807504 -11.12631 6.478846 C -11.12631 6.478846 -29.19671 23.621705 -29.19671 23.621705 C -29.19671 23.621705 29.195559 16.748389 29.195559 16.748389 C 29.195559 16.748389 23.616043 -23.621046 23.616043 -23.621046 C 23.616043 -23.621046 -1.97933 -23.116845 -1.97933 -23.116845 Z M -1.97933 -23.116845 " stroke="#004aad" stroke-width="3" stroke-opacity="1" stroke-miterlimit="4"/><path stroke-linecap="round" transform="matrix(0.821224, 0, 0, 0.821224, 588.05119, 586.626902)" fill-opacity="1" fill="#ffffff" fill-rule="nonzero" stroke-linejoin="round" d="M 38.076247 -14.362553 C 38.076247 -14.362553 46.9521 11.489678 46.9521 11.489678 C 46.9521 11.489678 -39.542281 14.614777 -39.542281 14.614777 C -39.542281 14.614777 -46.953095 6.147993 -35.822604 -1.262821 C -35.822604 -1.262821 -1.855579 -14.614654 -1.855579 -14.614654 C -1.855579 -14.614654 14.278876 10.428951 38.076247 -14.362553 Z M 38.076247 -14.362553 " stroke="#004aad" stroke-width="3" stroke-opacity="1" stroke-miterlimit="4"/><path stroke-linecap="round" transform="matrix(0.821224, 0, 0, 0.821224, 630.535508, 486.890036)" fill-opacity="1" fill="#38b6ff" fill-rule="nonzero" stroke-linejoin="round" d="M 43.912689 -93.657133 C 43.912689 -93.657133 -80.782108 -65.764312 -76.201483 -29.575946 C -70.793206 13.167042 -52.318493 89.201615 -52.318493 89.201615 C -52.318493 89.201615 -20.211307 93.658568 -20.211307 93.658568 C -20.211307 93.658568 -31.365581 -13.13231 -31.365581 -13.13231 C -31.365581 -13.13231 80.781252 -21.090136 80.781252 -21.090136 " stroke="#004aad" stroke-width="3" stroke-opacity="1" stroke-miterlimit="4"/><path stroke-linecap="round" transform="matrix(0.821224, -0.000218124, 0.000218124, 0.821224, 591.424606, 293.340269)" fill-opacity="1" fill="#004aad" fill-rule="nonzero" stroke-linejoin="round" d="M -35.117212 -15.973064 C -35.117212 -15.973064 -28.84293 0.805203 -22.15253 8.959828 C -15.466889 17.119208 -16.673283 28.296946 -12.042262 35.552022 C -8.043608 41.817553 16.165542 31.621032 16.165542 31.621032 C 16.165542 31.621032 35.117421 8.057011 24.027229 -0.403206 C 12.937037 -8.863423 -9.443624 -41.813721 -35.117212 -15.973064 Z M -35.117212 -15.973064 " stroke="#004aad" stroke-width="3" stroke-opacity="1" stroke-miterlimit="4"/><path stroke-linecap="round" transform="matrix(0.821223, 0.000727081, -0.000727081, 0.821223, 613.542213, 310.255756)" fill-opacity="1" fill="#ffffff" fill-rule="nonzero" stroke-linejoin="round" d="M -34.236491 -42.12513 C -34.236491 -42.12513 -2.208938 -19.264618 18.978275 -17.889686 C 40.165489 -16.514754 26.903271 25.612123 5.296485 33.864967 C -16.30554 42.122562 -21.518945 4.350082 -21.518945 4.350082 C -21.518945 4.350082 -13.148334 -2.202441 -40.165503 -12.443313 " stroke="#004aad" stroke-width="3" stroke-opacity="1" stroke-miterlimit="4"/><path stroke-linecap="round" transform="matrix(0.821223, 0.000727081, -0.000727081, 0.821223, 658.933554, 360.617287)" fill-opacity="1" fill="#ffffff" fill-rule="nonzero" stroke-linejoin="round" d="M -53.254379 -85.148837 C -53.254379 -85.148837 -63.524022 -47.648046 -66.099123 -44.273321 C -68.427167 -41.222265 -76.924508 -59.613357 -76.924508 -59.613357 C -76.924508 -59.613357 -95.492026 -3.249968 -49.887879 10.213707 C -24.190643 17.801552 -29.922073 50.37522 -14.740624 75.329291 C -5.342128 90.779993 95.492245 57.113719 80.247583 41.3495 C 73.905959 34.795732 70.05781 7.886169 15.030748 -43.236857 C -0.921817 -58.058639 -19.677612 -90.781866 -53.254379 -85.148837 Z M -53.254379 -85.148837 " stroke="#004aad" stroke-width="3" stroke-opacity="1" stroke-miterlimit="4"/><path stroke-linecap="round" transform="matrix(0.821224, -0.000218124, 0.000218124, 0.821224, 583.104766, 280.879607)" fill-opacity="1" fill="#ffffff" fill-rule="nonzero" stroke-linejoin="round" d="M -28.051755 10.61323 C -16.056523 32.154394 3.938162 40.241203 3.938162 40.241203 C 15.270109 33.927421 40.050431 4.404902 28.055198 -17.136262 C 16.055208 -38.67267 -1.034912 -40.242138 -18.446721 -30.5385 C -35.863285 -20.83962 -40.051745 -10.923179 -28.051755 10.61323 Z M -28.051755 10.61323 " stroke="#004aad" stroke-width="3" stroke-opacity="1" stroke-miterlimit="4"/><path stroke-linecap="round" transform="matrix(0.821224, -0.000218124, 0.000218124, 0.821224, 567.911039, 298.502993)" fill-opacity="1" fill="#ffffff" fill-rule="nonzero" stroke-linejoin="round" d="M -6.481953 -9.019162 C -6.481953 -9.019162 -1.632969 1.403881 -2.79472 5.679775 C -3.704121 9.018681 6.480817 5.20182 6.480817 5.20182 " stroke="#004aad" stroke-width="3" stroke-opacity="1" stroke-miterlimit="4"/><path stroke-linecap="round" transform="matrix(0.821224, 0, 0, 0.821224, 597.951717, 277.309136)" fill-opacity="1" fill="#004aad" fill-rule="nonzero" stroke-linejoin="round" d="M -56.373753 -10.075183 C -58.442883 -1.199329 -53.177304 16.495299 -53.177304 16.495299 C -53.177304 16.495299 -41.8946 8.423314 -25.037137 0.869801 C -25.037137 0.869801 -20.727638 20.424268 -14.291931 20.776258 C -7.84671 21.128248 0.800826 23.287753 3.307565 24.828898 C 5.814304 26.365287 20.393346 35.792909 28.822078 27.002674 C 28.822078 27.002674 58.132374 26.565065 58.132374 26.565065 C 58.132374 26.565065 58.446311 -6.222321 20.964141 -8.143995 C 15.15155 -8.438906 7.997593 -23.341398 -6.357888 -30.114826 C -18.401651 -35.794231 -50.837046 -33.791693 -56.373753 -10.075183 Z M -56.373753 -10.075183 " stroke="#004aad" stroke-width="3" stroke-opacity="1" stroke-miterlimit="4"/><path stroke-linecap="round" transform="matrix(0.821223, 0.000727081, -0.000727081, 0.821223, 623.64542, 362.555363)" fill-opacity="1" fill="#ffffff" fill-rule="nonzero" stroke-linejoin="round" d="M 33.995867 -25.317127 C 33.995867 -25.317127 -4.232022 35.006909 -19.747591 35.610467 C -19.747591 35.610467 -33.996363 21.828877 -33.996363 21.828877 C -33.996363 21.828877 2.921251 -35.611485 2.921251 -35.611485 C 2.921251 -35.611485 33.995867 -25.317127 33.995867 -25.317127 Z M 33.995867 -25.317127 " stroke="#004aad" stroke-width="3" stroke-opacity="1" stroke-miterlimit="4"/><path stroke-linecap="round" transform="matrix(0.821223, 0.000727081, -0.000727081, 0.821223, 641.106643, 338.994291)" fill-opacity="1" fill="#ffffff" fill-rule="nonzero" stroke-linejoin="round" d="M 28.292601 -14.264182 C 28.292601 -14.264182 21.008357 26.620681 -1.967865 30.032495 C -11.370471 31.429754 -28.293691 0.146161 -28.293691 0.146161 C -28.293691 0.146161 -11.535526 -31.428866 -11.535526 -31.428866 " stroke="#004aad" stroke-width="3" stroke-opacity="1" stroke-miterlimit="4"/><path stroke-linecap="round" transform="matrix(0.821224, 0.000145416, -0.000145416, 0.821224, 488.867787, 369.401545)" fill-opacity="1" fill="#ffffff" fill-rule="nonzero" stroke-linejoin="round" d="M -27.155141 -47.32259 C -47.563479 -34.228757 -53.361709 -6.858138 -40.101348 13.816541 C -26.840986 34.491221 13.499742 60.412414 26.619647 40.023217 C 33.124912 29.909491 53.363242 -3.105037 33.812892 -33.586753 C 20.552531 -54.261433 -6.742045 -60.411666 -27.155141 -47.32259 Z M 23.654591 30.529528 C 13.9685 48.28295 -19.859782 25.942338 -30.921977 8.696793 C -41.984173 -8.548753 -41.207669 -28.778796 -24.180903 -39.698254 C -7.154136 -50.617713 15.611956 -45.489351 26.674151 -28.243805 C 37.736348 -10.993502 30.820493 17.399988 23.654591 30.529528 Z M 23.654591 30.529528 " stroke="#004aad" stroke-width="3" stroke-opacity="1" stroke-miterlimit="4"/><path stroke-linecap="round" transform="matrix(0.821224, 0.000145416, -0.000145416, 0.821224, 447.254741, 415.784255)" fill-opacity="1" fill="#ffffff" fill-rule="nonzero" stroke-linejoin="round" d="M 24.282518 -21.279564 C 24.282518 -21.279564 -0.615562 -5.316695 -0.615562 -5.316695 C -0.615562 -5.316695 -38.756221 -17.054036 -38.756221 -17.054036 C -38.756221 -17.054036 -33.284727 -9.258905 -33.284727 -9.258905 C -33.284727 -9.258905 38.759693 21.280109 38.759693 21.280109 C 38.759693 21.280109 27.183641 3.240299 27.183641 3.240299 C 27.183641 3.240299 10.572618 -1.874883 10.572618 -1.874883 C 10.572618 -1.874883 29.102306 -13.760201 29.102306 -13.760201 C 29.102306 -13.760201 24.282518 -21.279564 24.282518 -21.279564 Z M 24.282518 -21.279564 " stroke="#004aad" stroke-width="3" stroke-opacity="1" stroke-miterlimit="4"/><path stroke-linecap="round" transform="matrix(0.821224, 0.000145416, -0.000145416, 0.821224, 489.106683, 392.981398)" fill-opacity="1" fill="#ffffff" fill-rule="nonzero" stroke-linejoin="round" d="M 43.621724 28.212172 C 43.621724 28.212172 7.446979 51.411857 7.446979 51.411857 C 0.350908 55.965199 -9.096106 53.897742 -13.644691 46.80167 C -13.644691 46.80167 -48.23011 -7.118008 -48.23011 -7.118008 C -52.778696 -14.21408 -50.715995 -23.661093 -43.619924 -28.209678 C -43.619924 -28.209678 -7.44518 -51.41412 -7.44518 -51.41412 C -0.349108 -55.962705 9.093148 -53.900004 13.64649 -46.803933 C 13.64649 -46.803933 48.227154 7.120503 48.227154 7.120503 C 52.780496 14.216574 50.717795 23.65883 43.621724 28.212172 Z M 43.621724 28.212172 " stroke="#004aad" stroke-width="3" stroke-opacity="1" stroke-miterlimit="4"/><path stroke-linecap="round" transform="matrix(0.821224, 0.000145416, -0.000145416, 0.821224, 416.203231, 407.689751)" fill-opacity="1" fill="#ffffff" fill-rule="nonzero" stroke-linejoin="round" d="M 12.436095 13.660826 C 12.436095 13.660826 7.228189 17.005652 7.228189 17.005652 C 7.228189 17.005652 -12.436353 -13.661553 -12.436353 -13.661553 C -12.436353 -13.661553 -7.233203 -17.006378 -7.233203 -17.006378 C -7.233203 -17.006378 12.436095 13.660826 12.436095 13.660826 Z M 12.436095 13.660826 " stroke="#004aad" stroke-width="3" stroke-opacity="1" stroke-miterlimit="4"/><path stroke-linecap="round" transform="matrix(0.821224, 0.000145416, -0.000145416, 0.821224, 478.587291, 376.668371)" fill-opacity="1" fill="#ffffff" fill-rule="nonzero" stroke-linejoin="round" d="M 34.047795 -18.072162 C 34.047795 -18.072162 -30.630138 23.402749 -30.630138 23.402749 C -30.630138 23.402749 -34.046335 18.075939 -34.046335 18.075939 C -34.046335 18.075939 30.626841 -23.403727 30.626841 -23.403727 C 30.626841 -23.403727 34.047795 -18.072162 34.047795 -18.072162 Z M 34.047795 -18.072162 " stroke="#004aad" stroke-width="3" stroke-opacity="1" stroke-miterlimit="4"/><path stroke-linecap="round" transform="matrix(0.821224, 0.000145416, -0.000145416, 0.821224, 503.897738, 416.148239)" fill-opacity="1" fill="#ffffff" fill-rule="nonzero" stroke-linejoin="round" d="M 34.045538 -18.076187 C 34.045538 -18.076187 -30.627638 23.403479 -30.627638 23.403479 C -30.627638 23.403479 -34.048592 18.071914 -34.048592 18.071914 C -34.048592 18.071914 30.629341 -23.402996 30.629341 -23.402996 C 30.629341 -23.402996 34.045538 -18.076187 34.045538 -18.076187 Z M 34.045538 -18.076187 " stroke="#004aad" stroke-width="3" stroke-opacity="1" stroke-miterlimit="4"/><path stroke-linecap="round" transform="matrix(0.821223, 0.000727081, -0.000727081, 0.821223, 569.466959, 375.393224)" fill-opacity="1" fill="#ffffff" fill-rule="nonzero" stroke-linejoin="round" d="M 47.495126 19.309481 C 47.495126 19.309481 28.940125 19.968053 0.296512 10.090125 C -14.348846 5.037289 -47.494273 -12.528112 -47.494273 -12.528112 C -47.494273 -12.528112 -44.323438 -19.970277 -44.323438 -19.970277 C -44.323438 -19.970277 42.578334 -5.796376 42.578334 -5.796376 " stroke="#004aad" stroke-width="3" stroke-opacity="1" stroke-miterlimit="4"/><path stroke-linecap="round" transform="matrix(0.821223, 0.000727081, -0.000727081, 0.821223, 519.478633, 356.387697)" fill-opacity="1" fill="#5271ff" fill-rule="nonzero" stroke-linejoin="round" d="M 26.068018 4.798944 C 26.068018 4.798944 7.003029 -22.568052 -0.92265 -18.489366 C -2.615235 -17.617406 -0.221475 -10.912687 -0.221475 -10.912687 C -0.221475 -10.912687 -17.382606 -20.796025 -17.382606 -20.796025 C -17.382606 -20.796025 -26.071097 -2.579982 -10.134794 9.991932 C 5.796756 22.568607 23.732552 15.584275 23.732552 15.584275 C 23.732552 15.584275 26.068018 4.798944 26.068018 4.798944 Z M 26.068018 4.798944 " stroke="#004aad" stroke-width="3" stroke-opacity="1" stroke-miterlimit="4"/><path stroke-linecap="round" transform="matrix(0.821224, 0, 0, 0.821224, -38.465458, -7.94739)" fill="none" stroke-linejoin="round" d="M 663.125918 739.880522 C 663.125918 739.880522 383.565083 739.880522 383.565083 739.880522 " stroke="#004aad" stroke-width="3" stroke-opacity="1" stroke-miterlimit="4"/><path stroke-linecap="round" transform="matrix(0.821224, 0, 0, 0.821224, 389.607346, 585.051783)" fill-opacity="1" fill="#5271ff" fill-rule="nonzero" stroke-linejoin="round" d="M 68.87833 -14.042762 C 61.805236 -14.042762 55.017539 -13.276946 48.705504 -11.949849 C 43.492248 -14.989329 37.066054 -16.787332 30.111876 -16.787332 C 20.674741 -16.787332 12.212714 -13.481481 6.428664 -8.244442 C 4.678228 -8.311035 2.904009 -8.349088 1.110763 -8.349088 C -4.582911 -8.349088 -10.081564 -8.016124 -15.304333 -7.407277 C -21.088383 -13.124734 -29.94521 -16.787332 -39.877033 -16.787332 C -45.813295 -16.787332 -51.359514 -15.479261 -56.101864 -13.205597 C -60.221097 -13.743095 -64.492542 -14.042762 -68.878146 -14.042762 C -102.317185 -14.042762 -129.420407 2.905076 -129.420407 16.784893 C -129.420407 16.784893 -59.436255 16.784893 -59.436255 16.784893 C -59.436255 16.784893 -8.331128 16.784893 -8.331128 16.784893 C -8.331128 16.784893 8.331312 16.784893 8.331312 16.784893 C 8.331312 16.784893 61.657781 16.784893 61.657781 16.784893 C 61.657781 16.784893 129.420591 16.784893 129.420591 16.784893 C 129.420591 2.905076 102.317369 -14.042762 68.87833 -14.042762 Z M 68.87833 -14.042762 " stroke="#004aad" stroke-width="3" stroke-opacity="1" stroke-miterlimit="4"/><path stroke-linecap="round" transform="matrix(0.821184, 0.00805953, -0.00805953, 0.821184, 408.488359, 514.081866)" fill-opacity="1" fill="#5271ff" fill-rule="nonzero" stroke-linejoin="round" d="M -19.381395 -3.10132 C -19.381395 -3.10132 -0.62558 -19.625176 19.38217 -3.101217 C 19.38217 -3.101217 -3.893644 19.622364 -19.381395 -3.10132 Z M -19.381395 -3.10132 " stroke="#004aad" stroke-width="2" stroke-opacity="1" stroke-miterlimit="4"/><path stroke-linecap="round" transform="matrix(0.821178, 0.00865673, -0.00865673, 0.821178, 371.696644, 524.621658)" fill-opacity="1" fill="#5271ff" fill-rule="nonzero" stroke-linejoin="round" d="M 19.38328 -3.101965 C 19.38328 -3.101965 0.623953 -19.624655 -19.385331 -3.102364 C -19.385331 -3.102364 3.896585 19.623196 19.38328 -3.101965 Z M 19.38328 -3.101965 " stroke="#004aad" stroke-width="2" stroke-opacity="1" stroke-miterlimit="4"/><path stroke-linecap="round" transform="matrix(0.821224, 0.000295669, -0.000295669, 0.821224, 390.109321, 512.412954)" fill-opacity="1" fill="#5271ff" fill-rule="nonzero" stroke-linejoin="round" d="M -3.016688 89.545818 C -3.016688 89.545818 3.014706 89.543646 3.014706 89.543646 C 3.014706 89.543646 2.986048 -16.476659 3.014526 -16.647908 C 3.038262 -16.781102 3.078712 -89.390929 3.154767 -89.533655 C 3.159522 -89.538413 -2.871874 -89.540998 -2.876627 -89.531483 C -2.947948 -89.450595 -2.993071 -16.607692 -3.016799 -16.455471 C -3.040521 -16.284225 -3.016688 89.545818 -3.016688 89.545818 Z M -3.016688 89.545818 " stroke="#004aad" stroke-width="2" stroke-opacity="1" stroke-miterlimit="4"/><path stroke-linecap="round" transform="matrix(0.821223, 0.00133051, -0.00133051, 0.821223, 407.197495, 463.172397)" fill-opacity="1" fill="#ffffff" fill-rule="nonzero" stroke-linejoin="round" d="M -9.157141 -19.302461 C -9.157141 -19.302461 7.58445 -14.501609 12.46492 -11.460518 C 17.054943 -8.599709 21.00212 -3.235872 5.872317 9.141601 C -6.549799 19.302855 -12.776629 16.11649 -15.628537 11.521452 C -18.509061 6.878895 -21.004547 -9.66061 -21.004547 -9.66061 C -21.004547 -9.66061 -9.157141 -19.302461 -9.157141 -19.302461 Z M -9.157141 -19.302461 " stroke="#004aad" stroke-width="3" stroke-opacity="1" stroke-miterlimit="4"/><path stroke-linecap="round" transform="matrix(0.821223, 0.00133051, -0.00133051, 0.821223, 377.542485, 430.071742)" fill-opacity="1" fill="#ffffff" fill-rule="nonzero" stroke-linejoin="round" d="M 18.660477 11.521872 C 18.660477 11.521872 17.271957 -5.837566 15.260691 -11.223565 C 13.368857 -16.291065 8.889632 -21.225943 -6.240163 -8.843714 C -18.65753 1.312776 -16.772504 8.049862 -12.832773 11.753648 C -8.85492 15.500182 6.860738 21.225482 6.860738 21.225482 C 6.860738 21.225482 18.660477 11.521872 18.660477 11.521872 Z M 18.660477 11.521872 " stroke="#004aad" stroke-width="3" stroke-opacity="1" stroke-miterlimit="4"/><path stroke-linecap="round" transform="matrix(0.821223, 0.00133051, -0.00133051, 0.821223, 375.823813, 461.393733)" fill-opacity="1" fill="#ffffff" fill-rule="nonzero" stroke-linejoin="round" d="M 19.302317 -9.158267 C 19.302317 -9.158267 14.501465 7.583324 11.460374 12.463793 C 8.599565 17.053817 3.235728 21.000994 -9.141744 5.871191 C -19.302991 -6.546169 -16.116634 -12.777756 -11.521596 -15.629663 C -6.879038 -18.510187 9.660474 -21.000917 9.660474 -21.000917 C 9.660474 -21.000917 19.302317 -9.158267 19.302317 -9.158267 Z M 19.302317 -9.158267 " stroke="#004aad" stroke-width="3" stroke-opacity="1" stroke-miterlimit="4"/><path stroke-linecap="round" transform="matrix(0.821223, 0.00133051, -0.00133051, 0.821223, 408.923767, 431.738734)" fill-opacity="1" fill="#ffffff" fill-rule="nonzero" stroke-linejoin="round" d="M -11.521163 18.659335 C -11.521163 18.659335 5.838276 17.270815 11.224275 15.259549 C 16.291774 13.367714 21.221904 8.893254 8.844423 -6.241306 C -1.312066 -18.658673 -8.049153 -16.773647 -11.752938 -12.833916 C -15.499472 -8.856062 -21.224772 6.859595 -21.224772 6.859595 C -21.224772 6.859595 -11.521163 18.659335 -11.521163 18.659335 Z M -11.521163 18.659335 " stroke="#004aad" stroke-width="3" stroke-opacity="1" stroke-miterlimit="4"/><path stroke-linecap="round" transform="matrix(0.821223, 0.00133051, -0.00133051, 0.821223, 390.966313, 447.281685)" fill-opacity="1" fill="#38b6ff" fill-rule="nonzero" stroke-linejoin="round" d="M 8.529466 10.426446 C 2.772063 15.135322 -5.715132 14.288123 -10.428763 8.530728 C -15.137646 2.768569 -14.285683 -5.713877 -8.528288 -10.427509 C -2.770886 -15.136384 5.716309 -14.289185 10.425184 -8.531783 C 15.138824 -2.769631 14.286868 5.717571 8.529466 10.426446 Z M 8.529466 10.426446 " stroke="#004aad" stroke-width="3" stroke-opacity="1" stroke-miterlimit="4"/></svg>