<svg xmlns="http://www.w3.org/2000/svg" xmlns:xlink="http://www.w3.org/1999/xlink" width="1080" zoomAndPan="magnify" viewBox="0 0 810 809.999993" height="1080" preserveAspectRatio="xMidYMid meet" version="1.0"><path fill="#ff8383" d="M 591.75 335.707031 C 591.75 417.929688 525.09375 484.582031 442.871094 484.582031 C 360.648438 484.582031 293.992188 417.929688 293.992188 335.707031 C 293.992188 253.484375 360.648438 186.828125 442.871094 186.828125 C 525.09375 186.828125 591.75 253.484375 591.75 335.707031 Z M 591.75 335.707031 " fill-opacity="1" fill-rule="nonzero"/><path fill="#ff3131" d="M 86.917969 620.617188 C 50.265625 610.796875 28.4375 572.984375 38.257812 536.332031 C 48.082031 499.679688 85.890625 477.851562 122.542969 487.671875 C 159.195312 497.496094 181.023438 535.304688 171.203125 571.957031 C 161.382812 608.609375 123.570312 630.4375 86.917969 620.617188 Z M 120.101562 496.789062 C 88.472656 488.3125 55.847656 507.148438 47.375 538.777344 C 38.902344 570.402344 57.734375 603.027344 89.363281 611.5 C 120.988281 619.976562 153.613281 601.140625 162.085938 569.515625 C 170.5625 537.886719 151.726562 505.261719 120.101562 496.789062 Z M 120.101562 496.789062 " fill-opacity="1" fill-rule="nonzero"/><path fill="#ff3131" d="M 101.203125 567.316406 C 93.9375 565.371094 89.613281 557.878906 91.558594 550.613281 C 93.503906 543.351562 100.996094 539.027344 108.261719 540.972656 C 115.523438 542.917969 119.847656 550.410156 117.902344 557.675781 C 115.957031 564.9375 108.464844 569.261719 101.203125 567.316406 Z M 107.039062 545.53125 C 102.289062 544.257812 97.390625 547.085938 96.117188 551.835938 C 94.84375 556.585938 97.671875 561.484375 102.421875 562.757812 C 107.171875 564.03125 112.074219 561.203125 113.34375 556.453125 C 114.617188 551.703125 111.789062 546.804688 107.039062 545.53125 Z M 107.039062 545.53125 " fill-opacity="1" fill-rule="nonzero"/><path fill="#ff3131" d="M 87.957031 616.742188 C 87.578125 616.640625 87.355469 616.253906 87.457031 615.875 C 87.457031 615.875 120.636719 492.046875 120.636719 492.046875 C 120.738281 491.671875 121.125 491.445312 121.503906 491.546875 C 121.882812 491.648438 122.105469 492.035156 122.003906 492.414062 C 122.003906 492.414062 88.824219 616.242188 88.824219 616.242188 C 88.722656 616.621094 88.335938 616.84375 87.957031 616.742188 Z M 87.957031 616.742188 " fill-opacity="1" fill-rule="nonzero"/><path fill="#ff3131" d="M 166.460938 571.417969 C 166.460938 571.417969 42.632812 538.238281 42.632812 538.238281 C 42.257812 538.136719 42.03125 537.75 42.132812 537.371094 C 42.234375 536.992188 42.621094 536.769531 43 536.871094 C 43 536.871094 166.828125 570.050781 166.828125 570.050781 C 167.207031 570.152344 167.429688 570.539062 167.328125 570.917969 C 167.226562 571.296875 166.839844 571.519531 166.460938 571.417969 Z M 166.460938 571.417969 " fill-opacity="1" fill-rule="nonzero"/><path fill="#ff3131" d="M 49.039062 586.878906 C 48.863281 586.832031 48.707031 586.71875 48.609375 586.546875 C 48.414062 586.210938 48.527344 585.777344 48.867188 585.582031 C 48.867188 585.582031 159.886719 521.484375 159.886719 521.484375 C 160.226562 521.289062 160.660156 521.402344 160.855469 521.742188 C 161.050781 522.082031 160.933594 522.515625 160.597656 522.710938 C 160.597656 522.710938 49.574219 586.808594 49.574219 586.808594 C 49.40625 586.90625 49.210938 586.925781 49.039062 586.878906 Z M 49.039062 586.878906 " fill-opacity="1" fill-rule="nonzero"/><path fill="#ff3131" d="M 136.597656 610.339844 C 136.421875 610.292969 136.265625 610.179688 136.167969 610.011719 C 136.167969 610.011719 72.070312 498.988281 72.070312 498.988281 C 71.875 498.648438 71.988281 498.21875 72.328125 498.019531 C 72.667969 497.824219 73.101562 497.941406 73.296875 498.28125 C 73.296875 498.28125 137.390625 609.300781 137.390625 609.300781 C 137.585938 609.640625 137.472656 610.074219 137.132812 610.269531 C 136.964844 610.367188 136.773438 610.386719 136.597656 610.339844 Z M 136.597656 610.339844 " fill-opacity="1" fill-rule="nonzero"/><path fill="#ff3131" d="M 40.9375 562.707031 C 40.667969 562.632812 40.453125 562.402344 40.417969 562.109375 C 40.367188 561.722656 40.644531 561.367188 41.03125 561.320312 C 41.03125 561.320312 168.257812 545.5625 168.257812 545.5625 C 168.644531 545.515625 168.996094 545.792969 169.046875 546.179688 C 169.09375 546.566406 168.816406 546.921875 168.429688 546.96875 C 168.429688 546.96875 41.207031 562.726562 41.207031 562.726562 C 41.113281 562.734375 41.023438 562.730469 40.9375 562.707031 Z M 40.9375 562.707031 " fill-opacity="1" fill-rule="nonzero"/><path fill="#ff3131" d="M 112.425781 618.441406 C 112.15625 618.367188 111.941406 618.136719 111.90625 617.84375 C 111.90625 617.84375 96.152344 490.617188 96.152344 490.617188 C 96.101562 490.230469 96.378906 489.878906 96.765625 489.828125 C 97.152344 489.78125 97.507812 490.058594 97.554688 490.445312 C 97.554688 490.445312 113.3125 617.667969 113.3125 617.667969 C 113.359375 618.058594 113.085938 618.410156 112.695312 618.460938 C 112.601562 618.46875 112.511719 618.460938 112.425781 618.441406 Z M 112.425781 618.441406 " fill-opacity="1" fill-rule="nonzero"/><path fill="#ff3131" d="M 155.136719 594.191406 C 155.046875 594.167969 154.960938 594.125 154.886719 594.066406 C 154.886719 594.066406 53.707031 515.34375 53.707031 515.34375 C 53.398438 515.101562 53.34375 514.65625 53.582031 514.347656 C 53.824219 514.039062 54.269531 513.984375 54.578125 514.226562 C 54.578125 514.226562 155.753906 592.949219 155.753906 592.949219 C 156.0625 593.1875 156.117188 593.632812 155.878906 593.941406 C 155.699219 594.171875 155.402344 594.261719 155.136719 594.191406 Z M 155.136719 594.191406 " fill-opacity="1" fill-rule="nonzero"/><path fill="#ff3131" d="M 65.1875 605.417969 C 65.097656 605.394531 65.011719 605.351562 64.933594 605.292969 C 64.625 605.050781 64.570312 604.605469 64.8125 604.300781 C 64.8125 604.300781 143.535156 503.121094 143.535156 503.121094 C 143.773438 502.8125 144.21875 502.757812 144.527344 502.996094 C 144.835938 503.238281 144.890625 503.683594 144.652344 503.992188 C 144.652344 503.992188 65.929688 605.167969 65.929688 605.167969 C 65.75 605.398438 65.453125 605.488281 65.1875 605.417969 Z M 65.1875 605.417969 " fill-opacity="1" fill-rule="nonzero"/><path fill="#ff8383" d="M 114.710938 556.820312 C 113.242188 562.300781 107.605469 565.554688 102.125 564.085938 C 96.640625 562.617188 93.386719 556.980469 94.855469 551.5 C 96.324219 546.015625 101.960938 542.761719 107.445312 544.230469 C 112.925781 545.699219 116.179688 551.335938 114.710938 556.820312 Z M 114.710938 556.820312 " fill-opacity="1" fill-rule="nonzero"/><path fill="#ff3131" d="M 101.941406 564.769531 C 96.089844 563.203125 92.605469 557.167969 94.171875 551.316406 C 95.738281 545.464844 101.777344 541.980469 107.628906 543.546875 C 113.480469 545.113281 116.964844 551.152344 115.394531 557.003906 C 113.828125 562.855469 107.792969 566.339844 101.941406 564.769531 Z M 107.261719 544.914062 C 102.164062 543.546875 96.90625 546.585938 95.539062 551.683594 C 94.171875 556.777344 97.210938 562.039062 102.308594 563.402344 C 107.40625 564.769531 112.664062 561.734375 114.027344 556.636719 C 115.394531 551.539062 112.359375 546.28125 107.261719 544.914062 Z M 107.261719 544.914062 " fill-opacity="1" fill-rule="nonzero"/><path fill="#ff3131" d="M 714.183594 620.617188 C 677.53125 610.796875 655.703125 572.984375 665.523438 536.332031 C 675.34375 499.679688 713.152344 477.851562 749.804688 487.671875 C 786.457031 497.496094 808.289062 535.304688 798.464844 571.957031 C 788.644531 608.609375 750.835938 630.4375 714.183594 620.617188 Z M 747.363281 496.789062 C 715.738281 488.3125 683.113281 507.148438 674.636719 538.777344 C 666.164062 570.402344 685 603.027344 716.625 611.5 C 748.25 619.976562 780.875 601.140625 789.351562 569.515625 C 797.824219 537.886719 778.988281 505.261719 747.363281 496.789062 Z M 747.363281 496.789062 " fill-opacity="1" fill-rule="nonzero"/><path fill="#ff3131" d="M 728.464844 567.316406 C 721.203125 565.371094 716.875 557.878906 718.824219 550.613281 C 720.769531 543.351562 728.261719 539.027344 735.523438 540.972656 C 742.789062 542.917969 747.113281 550.410156 745.167969 557.671875 C 743.21875 564.9375 735.726562 569.261719 728.464844 567.316406 Z M 734.300781 545.53125 C 729.554688 544.257812 724.652344 547.085938 723.378906 551.835938 C 722.109375 556.585938 724.9375 561.484375 729.6875 562.757812 C 734.4375 564.03125 739.335938 561.203125 740.609375 556.453125 C 741.882812 551.703125 739.050781 546.804688 734.300781 545.53125 Z M 734.300781 545.53125 " fill-opacity="1" fill-rule="nonzero"/><path fill="#ff3131" d="M 715.222656 616.742188 C 714.84375 616.640625 714.621094 616.253906 714.71875 615.875 C 714.71875 615.875 747.902344 492.046875 747.902344 492.046875 C 748.003906 491.671875 748.390625 491.445312 748.769531 491.546875 C 749.144531 491.648438 749.371094 492.035156 749.269531 492.414062 C 749.269531 492.414062 716.085938 616.242188 716.085938 616.242188 C 715.988281 616.621094 715.597656 616.84375 715.222656 616.742188 Z M 715.222656 616.742188 " fill-opacity="1" fill-rule="nonzero"/><path fill="#ff3131" d="M 793.726562 571.417969 C 793.726562 571.417969 669.898438 538.238281 669.898438 538.238281 C 669.519531 538.136719 669.296875 537.75 669.398438 537.371094 C 669.496094 536.992188 669.886719 536.769531 670.265625 536.871094 C 670.265625 536.871094 794.089844 570.050781 794.089844 570.050781 C 794.46875 570.152344 794.691406 570.539062 794.59375 570.917969 C 794.492188 571.296875 794.101562 571.519531 793.726562 571.417969 Z M 793.726562 571.417969 " fill-opacity="1" fill-rule="nonzero"/><path fill="#ff3131" d="M 676.300781 586.878906 C 676.125 586.832031 675.96875 586.71875 675.871094 586.546875 C 675.675781 586.210938 675.792969 585.777344 676.128906 585.582031 C 676.128906 585.582031 787.152344 521.484375 787.152344 521.484375 C 787.488281 521.289062 787.921875 521.402344 788.117188 521.742188 C 788.3125 522.082031 788.199219 522.515625 787.859375 522.710938 C 787.859375 522.710938 676.835938 586.808594 676.835938 586.808594 C 676.667969 586.90625 676.476562 586.925781 676.300781 586.878906 Z M 676.300781 586.878906 " fill-opacity="1" fill-rule="nonzero"/><path fill="#ff3131" d="M 763.859375 610.339844 C 763.683594 610.292969 763.527344 610.179688 763.429688 610.011719 C 763.429688 610.011719 699.332031 498.988281 699.332031 498.988281 C 699.136719 498.648438 699.253906 498.21875 699.589844 498.019531 C 699.929688 497.824219 700.363281 497.941406 700.558594 498.28125 C 700.558594 498.28125 764.65625 609.300781 764.65625 609.300781 C 764.851562 609.640625 764.734375 610.074219 764.398438 610.269531 C 764.226562 610.367188 764.035156 610.386719 763.859375 610.339844 Z M 763.859375 610.339844 " fill-opacity="1" fill-rule="nonzero"/><path fill="#ff3131" d="M 668.199219 562.707031 C 667.929688 562.632812 667.714844 562.402344 667.679688 562.109375 C 667.632812 561.722656 667.90625 561.367188 668.296875 561.320312 C 668.296875 561.320312 795.519531 545.5625 795.519531 545.5625 C 795.90625 545.519531 796.261719 545.792969 796.308594 546.179688 C 796.355469 546.566406 796.082031 546.921875 795.695312 546.96875 C 795.695312 546.96875 668.46875 562.726562 668.46875 562.726562 C 668.375 562.738281 668.285156 562.730469 668.199219 562.707031 Z M 668.199219 562.707031 " fill-opacity="1" fill-rule="nonzero"/><path fill="#ff3131" d="M 739.691406 618.441406 C 739.417969 618.367188 739.207031 618.136719 739.167969 617.84375 C 739.167969 617.84375 723.414062 490.621094 723.414062 490.621094 C 723.367188 490.230469 723.640625 489.878906 724.027344 489.828125 C 724.417969 489.78125 724.769531 490.058594 724.820312 490.445312 C 724.820312 490.445312 740.574219 617.667969 740.574219 617.667969 C 740.621094 618.058594 740.347656 618.410156 739.957031 618.460938 C 739.867188 618.46875 739.773438 618.464844 739.691406 618.441406 Z M 739.691406 618.441406 " fill-opacity="1" fill-rule="nonzero"/><path fill="#ff3131" d="M 782.398438 594.191406 C 782.3125 594.167969 782.226562 594.125 782.148438 594.066406 C 782.148438 594.066406 680.972656 515.34375 680.972656 515.34375 C 680.664062 515.101562 680.605469 514.65625 680.847656 514.347656 C 681.085938 514.039062 681.53125 513.984375 681.839844 514.226562 C 681.839844 514.226562 783.019531 592.949219 783.019531 592.949219 C 783.328125 593.1875 783.382812 593.632812 783.140625 593.941406 C 782.960938 594.171875 782.667969 594.261719 782.398438 594.191406 Z M 782.398438 594.191406 " fill-opacity="1" fill-rule="nonzero"/><path fill="#ff3131" d="M 692.449219 605.417969 C 692.359375 605.394531 692.273438 605.351562 692.199219 605.292969 C 691.890625 605.050781 691.832031 604.605469 692.074219 604.300781 C 692.074219 604.300781 770.796875 503.121094 770.796875 503.121094 C 771.039062 502.8125 771.480469 502.757812 771.789062 502.996094 C 772.097656 503.238281 772.15625 503.683594 771.914062 503.992188 C 771.914062 503.992188 693.191406 605.167969 693.191406 605.167969 C 693.011719 605.398438 692.714844 605.488281 692.449219 605.417969 Z M 692.449219 605.417969 " fill-opacity="1" fill-rule="nonzero"/><path fill="#ff8383" d="M 741.976562 556.820312 C 740.503906 562.300781 734.871094 565.554688 729.386719 564.085938 C 723.902344 562.617188 720.648438 556.980469 722.117188 551.5 C 723.589844 546.015625 729.222656 542.761719 734.707031 544.230469 C 740.191406 545.699219 743.445312 551.335938 741.976562 556.820312 Z M 741.976562 556.820312 " fill-opacity="1" fill-rule="nonzero"/><path fill="#ff3131" d="M 729.203125 564.769531 C 723.351562 563.203125 719.867188 557.167969 721.433594 551.316406 C 723.003906 545.464844 729.039062 541.980469 734.890625 543.546875 C 740.742188 545.113281 744.226562 551.152344 742.660156 557.003906 C 741.089844 562.855469 735.054688 566.339844 729.203125 564.769531 Z M 734.523438 544.914062 C 729.425781 543.546875 724.167969 546.585938 722.800781 551.679688 C 721.4375 556.777344 724.472656 562.039062 729.570312 563.402344 C 734.667969 564.769531 739.925781 561.734375 741.292969 556.636719 C 742.65625 551.539062 739.621094 546.28125 734.523438 544.914062 Z M 734.523438 544.914062 " fill-opacity="1" fill-rule="nonzero"/><path stroke-linecap="round" transform="matrix(0.471875, 0, 0, 0.471875, 280.531777, 352.244503)" fill-opacity="1" fill="#ffffff" fill-rule="nonzero" stroke-linejoin="round" d="M -90.663371 -51.859213 C -90.663371 -51.859213 -45.88688 44.357676 -17.418336 52.6441 C 12.159479 61.245094 46.075042 0.938801 46.075042 0.938801 C 46.075042 0.938801 62.349877 14.490126 65.230672 11.377543 C 67.887956 8.505027 55.222393 -4.72345 57.614777 -9.822788 C 59.717426 -14.276431 73.54193 -12.736695 76.671069 -4.839344 C 79.808486 3.058007 87.838288 2.039795 87.838288 2.039795 C 87.838288 2.039795 90.661136 -21.122457 77.109811 -22.811199 C 63.550208 -24.508219 52.945903 -26.072788 48.997228 -20.145636 C 45.040274 -14.210205 -8.883568 22.188802 -8.883568 22.188802 C -8.883568 22.188802 -50.17496 -61.24663 -50.17496 -61.24663 C -50.17496 -61.24663 -90.663371 -51.859213 -90.663371 -51.859213 Z M -90.663371 -51.859213 " stroke="#ff3131" stroke-width="3" stroke-opacity="1" stroke-miterlimit="4"/><path stroke-linecap="butt" transform="matrix(-0.471228, -0.0247, 0.0247, -0.471228, 245.068292, 544.411169)" fill="none" stroke-linejoin="miter" d="M 8.333357 45.041595 C 8.333357 45.041595 -11.801723 45.044231 -11.801723 45.044231 C -11.801723 45.044231 -10.001237 -26.248741 -10.001237 -26.248741 C -10.001237 -26.248741 10.134277 -26.24311 10.134277 -26.24311 C 10.134277 -26.24311 8.333357 45.041595 8.333357 45.041595 Z M 8.333357 45.041595 " stroke="#ff3131" stroke-width="2" stroke-opacity="1" stroke-miterlimit="4"/><path stroke-linecap="round" transform="matrix(-0.471228, -0.0247, 0.0247, -0.471228, 245.068292, 544.411169)" fill-opacity="1" fill="#ff8383" fill-rule="nonzero" stroke-linejoin="round" d="M 8.333357 45.041595 C 8.333357 45.041595 -11.801723 45.044231 -11.801723 45.044231 C -11.801723 45.044231 -10.001237 -26.248741 -10.001237 -26.248741 C -10.001237 -26.248741 10.134277 -26.24311 10.134277 -26.24311 C 10.134277 -26.24311 8.333357 45.041595 8.333357 45.041595 Z M 8.333357 45.041595 " stroke="#ff3131" stroke-width="3" stroke-opacity="1" stroke-miterlimit="4"/><path stroke-linecap="round" transform="matrix(-0.471228, -0.0247, 0.0247, -0.471228, 244.051105, 554.803)" fill-opacity="1" fill="#ff5757" fill-rule="nonzero" stroke-linejoin="round" d="M 25.026854 0.0026389 C 25.029977 13.821088 13.821401 25.02746 0.00295184 25.030583 C -13.824197 25.025873 -25.030136 13.825563 -25.025426 -0.00158603 C -25.028549 -13.820035 -13.819972 -25.026407 -0.00152334 -25.02953 C 13.825192 -25.033087 25.031565 -13.82451 25.026854 0.0026389 Z M 25.026854 0.0026389 " stroke="#ff3131" stroke-width="3" stroke-opacity="1" stroke-miterlimit="4"/><path stroke-linecap="round" transform="matrix(0.463974, 0.0859917, -0.0859917, 0.463974, 245.227256, 523.78149)" fill-opacity="1" fill="#ff5757" fill-rule="nonzero" stroke-linejoin="round" d="M 31.670738 9.536699 C 31.670738 9.536699 -31.665877 9.539099 -31.665877 9.539099 C -36.936216 9.539272 -41.205995 5.262311 -41.20466 0.000112061 C -41.204834 -5.270227 -36.936012 -9.538497 -31.665674 -9.538671 C -31.665674 -9.538671 31.67245 -9.532931 31.67245 -9.532931 C 36.934649 -9.531596 41.201412 -5.270914 41.201585 -0.000575166 C 41.201759 5.269763 36.932937 9.538034 31.670738 9.536699 Z M 31.670738 9.536699 " stroke="#ff3131" stroke-width="3" stroke-opacity="1" stroke-miterlimit="4"/><path stroke-linecap="round" transform="matrix(0.463974, 0.0859917, -0.0859917, 0.463974, 249.977511, 506.794339)" fill-opacity="1" fill="#ffffff" fill-rule="nonzero" stroke-linejoin="round" d="M 10.22479 -23.543555 C 10.22479 -23.543555 -6.81454 -5.913054 13.924376 6.593181 C 13.924376 6.593181 29.072917 24.050415 29.072917 24.050415 C 29.072917 24.050415 -29.077899 17.05518 -29.077899 17.05518 C -29.077899 17.05518 -15.741395 -24.05193 -15.741395 -24.05193 C -15.741395 -24.05193 10.22479 -23.543555 10.22479 -23.543555 Z M 10.22479 -23.543555 " stroke="#ff3131" stroke-width="3" stroke-opacity="1" stroke-miterlimit="4"/><path stroke-linecap="round" transform="matrix(0.463974, 0.0859917, -0.0859917, 0.463974, 250.94126, 514.323738)" fill-opacity="1" fill="#ffffff" fill-rule="nonzero" stroke-linejoin="round" d="M -34.374631 -14.625345 C -34.374631 -14.625345 -48.312338 11.699763 -48.312338 11.699763 C -48.312338 11.699763 39.163332 14.884891 39.163332 14.884891 C 39.163332 14.884891 48.315966 6.259625 38.388577 -1.287778 C 38.388577 -1.287778 6.327106 -14.877947 6.327106 -14.877947 C 6.327106 -14.877947 -14.845154 10.615862 -34.374631 -14.625345 Z M -34.374631 -14.625345 " stroke="#ff3131" stroke-width="3" stroke-opacity="1" stroke-miterlimit="4"/><path stroke-linecap="round" transform="matrix(0.463974, 0.0859917, -0.0859917, 0.463974, 234.174366, 520.772562)" fill-opacity="1" fill="#ff5757" fill-rule="nonzero" stroke-linejoin="round" d="M 59.415535 9.532614 C 59.415535 9.532614 -3.92108 9.535013 -3.92108 9.535013 C -9.18328 9.533678 -13.45155 5.264857 -13.458355 0.00416629 C -13.458529 -5.266172 -9.181567 -9.535952 -3.919368 -9.534617 C -3.919368 -9.534617 59.417247 -9.537016 59.417247 -9.537016 C 64.687586 -9.53719 68.955856 -5.268368 68.95603 0.0019705 C 68.954695 5.26417 64.685874 9.53244 59.415535 9.532614 Z M 59.415535 9.532614 " stroke="#ff3131" stroke-width="3" stroke-opacity="1" stroke-miterlimit="4"/><path stroke-linecap="round" transform="matrix(0.463974, 0.0859917, -0.0859917, 0.463974, 249.60626, 507.313818)" fill-opacity="1" fill="#ffffff" fill-rule="nonzero" stroke-linejoin="round" d="M 10.226646 -23.535369 C 10.226646 -23.535369 -6.814192 -5.913008 13.924724 6.593227 C 13.924724 6.593227 29.073265 24.050461 29.073265 24.050461 C 29.073265 24.050461 -29.077551 17.055226 -29.077551 17.055226 C -29.077551 17.055226 -15.741048 -24.051884 -15.741048 -24.051884 C -15.741048 -24.051884 10.226646 -23.535369 10.226646 -23.535369 Z M 10.226646 -23.535369 " stroke="#ff3131" stroke-width="3" stroke-opacity="1" stroke-miterlimit="4"/><path stroke-linecap="round" transform="matrix(0.463974, 0.0859917, -0.0859917, 0.463974, 250.569893, 514.843698)" fill-opacity="1" fill="#ff5757" fill-rule="nonzero" stroke-linejoin="round" d="M -34.374228 -14.626343 C -34.374228 -14.626343 -48.311935 11.698764 -48.311935 11.698764 C -48.311935 11.698764 39.163735 14.883892 39.163735 14.883892 C 39.163735 14.883892 48.316369 6.258627 38.38898 -1.288777 C 38.38898 -1.288777 6.327509 -14.878945 6.327509 -14.878945 C 6.327509 -14.878945 -14.843243 10.623003 -34.374228 -14.626343 Z M -34.374228 -14.626343 " stroke="#ff3131" stroke-width="3" stroke-opacity="1" stroke-miterlimit="4"/><path stroke-linecap="round" transform="matrix(0.471875, 0, 0, 0.471875, 201.712551, 409.220567)" fill-opacity="1" fill="#ff8383" fill-rule="nonzero" stroke-linejoin="round" d="M -46.02991 -61.535309 C -46.02991 -61.535309 -79.589513 5.054096 -47.702096 36.593831 C -34.597791 49.557408 -14.423949 61.535885 29.946912 52.777606 C 79.590953 42.98456 65.09592 -38.679349 65.09592 -38.679349 C 65.09592 -38.679349 -46.02991 -61.535309 -46.02991 -61.535309 Z M -46.02991 -61.535309 " stroke="#ff3131" stroke-width="3" stroke-opacity="1" stroke-miterlimit="4"/><path stroke-linecap="round" transform="matrix(0.359959, -0.305116, 0.305116, 0.359959, 247.059483, 405.154824)" fill-opacity="1" fill="#ff8383" fill-rule="nonzero" stroke-linejoin="round" d="M -98.290487 -0.445737 C -98.290487 -0.445737 3.410305 77.154507 3.410305 77.154507 C 3.410305 77.154507 84.510451 110.206342 84.510451 110.206342 C 115.963519 81.229376 -11.030132 -33.86017 -11.030132 -33.86017 " stroke="#ff3131" stroke-width="3" stroke-opacity="1" stroke-miterlimit="4"/><path stroke-linecap="round" transform="matrix(0.463974, 0.0859917, -0.0859917, 0.463974, 284.885204, 446.027038)" fill-opacity="1" fill="#ff8383" fill-rule="nonzero" stroke-linejoin="round" d="M 42.383419 -73.144878 C 64.149998 -32.380891 -39.317649 129.625971 -39.317649 129.625971 C -39.317649 129.625971 -71.54448 127.272302 -71.54448 127.272302 C -71.54448 127.272302 -30.729312 -34.084398 -30.729312 -34.084398 " stroke="#ff3131" stroke-width="3" stroke-opacity="1" stroke-miterlimit="4"/><path stroke-linecap="butt" transform="matrix(-0.466065, -0.0738214, 0.0738214, -0.466065, 427.584966, 544.574417)" fill="none" stroke-linejoin="miter" d="M 8.318027 45.702251 C 8.318027 45.702251 -11.813367 45.706012 -11.813367 45.706012 C -11.813367 45.706012 -10.000376 -26.24165 -10.000376 -26.24165 C -10.000376 -26.24165 10.131018 -26.245411 10.131018 -26.245411 C 10.131018 -26.245411 8.318027 45.702251 8.318027 45.702251 Z M 8.318027 45.702251 " stroke="#ff3131" stroke-width="2" stroke-opacity="1" stroke-miterlimit="4"/><path stroke-linecap="round" transform="matrix(-0.466065, -0.0738214, 0.0738214, -0.466065, 427.584966, 544.574417)" fill-opacity="1" fill="#ff8383" fill-rule="nonzero" stroke-linejoin="round" d="M 8.318027 45.702251 C 8.318027 45.702251 -11.813367 45.706012 -11.813367 45.706012 C -11.813367 45.706012 -10.000376 -26.24165 -10.000376 -26.24165 C -10.000376 -26.24165 10.131018 -26.245411 10.131018 -26.245411 C 10.131018 -26.245411 8.318027 45.702251 8.318027 45.702251 Z M 8.318027 45.702251 " stroke="#ff3131" stroke-width="3" stroke-opacity="1" stroke-miterlimit="4"/><path stroke-linecap="round" transform="matrix(-0.466065, -0.0738214, 0.0738214, -0.466065, 425.487078, 554.802952)" fill-opacity="1" fill="#ff5757" fill-rule="nonzero" stroke-linejoin="round" d="M 25.031827 -0.00421439 C 25.026501 13.825848 13.826655 25.028838 -0.00211282 25.031688 C -13.823999 25.025066 -25.026989 13.82522 -25.029839 -0.00354771 C -25.031393 -13.824139 -13.823371 -25.028424 -0.0027795 -25.029978 C 13.825988 -25.032828 25.030273 -13.824806 25.031827 -0.00421439 Z M 25.031827 -0.00421439 " stroke="#ff3131" stroke-width="3" stroke-opacity="1" stroke-miterlimit="4"/><path stroke-linecap="round" transform="matrix(0.465404, 0.0778812, -0.0778812, 0.465404, 424.030038, 523.952754)" fill-opacity="1" fill="#ff5757" fill-rule="nonzero" stroke-linejoin="round" d="M 46.670756 9.539711 C 46.670756 9.539711 -16.66506 9.537724 -16.66506 9.537724 C -21.935899 9.538461 -26.201101 5.266613 -26.201838 -0.00422669 C -26.201208 -5.266901 -21.938891 -9.538902 -16.668052 -9.539639 C -16.668052 -9.539639 46.667764 -9.537651 46.667764 -9.537651 C 51.938603 -9.538388 56.203805 -5.26654 56.203176 -0.00386501 C 56.203913 5.266974 51.933431 9.540341 46.670756 9.539711 Z M 46.670756 9.539711 " stroke="#ff3131" stroke-width="3" stroke-opacity="1" stroke-miterlimit="4"/><path stroke-linecap="round" transform="matrix(0.465404, 0.0778812, -0.0778812, 0.465404, 433.98699, 509.350194)" fill-opacity="1" fill="#ffffff" fill-rule="nonzero" stroke-linejoin="round" d="M 10.231367 -23.540039 C 10.231367 -23.540039 -6.810739 -5.907675 13.922902 6.595092 C 13.922902 6.595092 29.073222 24.052547 29.073222 24.052547 C 29.073222 24.052547 -29.071195 17.05475 -29.071195 17.05475 C -29.071195 17.05475 -15.739389 -24.053755 -15.739389 -24.053755 C -15.739389 -24.053755 10.231367 -23.540039 10.231367 -23.540039 Z M 10.231367 -23.540039 " stroke="#ff3131" stroke-width="3" stroke-opacity="1" stroke-miterlimit="4"/><path stroke-linecap="round" transform="matrix(0.465404, 0.0778812, -0.0778812, 0.465404, 435.081918, 516.862146)" fill-opacity="1" fill="#ff8383" fill-rule="nonzero" stroke-linejoin="round" d="M -34.374893 -14.624043 C -34.374893 -14.624043 -48.317929 11.697117 -48.317929 11.697117 C -48.317929 11.697117 39.161322 14.885504 39.161322 14.885504 C 39.161322 14.885504 48.310566 6.262161 38.385875 -1.284428 C 38.385875 -1.284428 6.33139 -14.88075 6.33139 -14.88075 C 6.33139 -14.88075 -14.841387 10.619076 -34.374893 -14.624043 Z M -34.374893 -14.624043 " stroke="#ff3131" stroke-width="3" stroke-opacity="1" stroke-miterlimit="4"/><path stroke-linecap="round" transform="matrix(0.359959, -0.305116, 0.305116, 0.359959, 292.694314, 520.413978)" fill-opacity="1" fill="#ff5757" fill-rule="nonzero" stroke-linejoin="round" d="M 279.177783 -0.688967 C 279.177783 -0.688967 384.506829 78.673651 384.506829 78.673651 C 384.506829 78.673651 463.497279 111.141785 463.497279 111.141785 C 497.945022 83.010328 366.444453 -34.098048 366.444453 -34.098048 " stroke="#ff3131" stroke-width="3" stroke-opacity="1" stroke-miterlimit="4"/><path stroke-linecap="round" transform="matrix(0.465404, 0.0778812, -0.0778812, 0.465404, 291.238143, 415.654223)" fill-opacity="1" fill="#ff5757" fill-rule="nonzero" stroke-linejoin="round" d="M 420.874732 -70.551218 C 442.674813 -29.807357 340.326442 133.345548 340.326442 133.345548 C 340.326442 133.345548 308.095605 130.983728 308.095605 130.983728 C 308.095605 130.983728 348.912563 -30.366408 348.912563 -30.366408 " stroke="#ff3131" stroke-width="3" stroke-opacity="1" stroke-miterlimit="4"/><path stroke-linecap="butt" transform="matrix(-0.466066, 0.0738136, -0.0738136, -0.466066, 610.712085, 544.426745)" fill="none" stroke-linejoin="miter" d="M 8.357665 43.71845 C 8.357665 43.71845 -11.773729 43.715025 -11.773729 43.715025 C -11.773729 43.715025 -9.996639 -26.247392 -9.996639 -26.247392 C -9.996639 -26.247392 10.134756 -26.243967 10.134756 -26.243967 C 10.134756 -26.243967 8.357665 43.71845 8.357665 43.71845 Z M 8.357665 43.71845 " stroke="#ff3131" stroke-width="2" stroke-opacity="1" stroke-miterlimit="4"/><path stroke-linecap="round" transform="matrix(-0.466066, 0.0738136, -0.0738136, -0.466066, 610.712085, 544.426745)" fill-opacity="1" fill="#ff8383" fill-rule="nonzero" stroke-linejoin="round" d="M 8.357665 43.71845 C 8.357665 43.71845 -11.773729 43.715025 -11.773729 43.715025 C -11.773729 43.715025 -9.996639 -26.247392 -9.996639 -26.247392 C -9.996639 -26.247392 10.134756 -26.243967 10.134756 -26.243967 C 10.134756 -26.243967 8.357665 43.71845 8.357665 43.71845 Z M 8.357665 43.71845 " stroke="#ff3131" stroke-width="3" stroke-opacity="1" stroke-miterlimit="4"/><path stroke-linecap="round" transform="matrix(-0.466066, 0.0738136, -0.0738136, -0.466066, 611.877621, 554.803)" fill-opacity="1" fill="#ff5757" fill-rule="nonzero" stroke-linejoin="round" d="M 25.03279 -0.00339625 C 25.030173 13.825372 13.827369 25.025405 -0.00269325 25.030964 C -13.823285 25.029641 -25.031495 13.825543 -25.028877 -0.00322504 C -25.027554 -13.823817 -13.823456 -25.032027 -0.00286446 -25.030704 C 13.825903 -25.028086 25.025937 -13.825283 25.03279 -0.00339625 Z M 25.03279 -0.00339625 " stroke="#ff3131" stroke-width="3" stroke-opacity="1" stroke-miterlimit="4"/><path stroke-linecap="round" transform="matrix(0.464655, 0.0822303, -0.0822303, 0.464655, 606.576525, 524.239098)" fill-opacity="1" fill="#ff5757" fill-rule="nonzero" stroke-linejoin="round" d="M 31.669302 9.534309 C 31.669302 9.534309 -31.666924 9.536732 -31.666924 9.536732 C -36.93803 9.536411 -41.208009 5.26482 -41.206246 0.00186554 C -41.205925 -5.26924 -36.934333 -9.539219 -31.671379 -9.537456 C -31.671379 -9.537456 31.66629 -9.531727 31.66629 -9.531727 C 36.935953 -9.539557 41.205932 -5.267966 41.205611 0.00313956 C 41.203848 5.266094 36.932257 9.536073 31.669302 9.534309 Z M 31.669302 9.534309 " stroke="#ff3131" stroke-width="3" stroke-opacity="1" stroke-miterlimit="4"/><path stroke-linecap="round" transform="matrix(0.464655, 0.0822303, -0.0822303, 0.464655, 611.188917, 507.213978)" fill-opacity="1" fill="#ffffff" fill-rule="nonzero" stroke-linejoin="round" d="M 10.231801 -23.540384 C 10.231801 -23.540384 -6.808263 -5.913815 13.924967 6.59165 C 13.924967 6.59165 29.078752 24.052511 29.078752 24.052511 C 29.078752 24.052511 -29.074165 17.051133 -29.074165 17.051133 C -29.074165 17.051133 -15.735549 -24.056245 -15.735549 -24.056245 C -15.735549 -24.056245 10.231801 -23.540384 10.231801 -23.540384 Z M 10.231801 -23.540384 " stroke="#ff3131" stroke-width="3" stroke-opacity="1" stroke-miterlimit="4"/><path stroke-linecap="round" transform="matrix(0.464655, 0.0822303, -0.0822303, 0.464655, 612.213717, 514.735362)" fill-opacity="1" fill="#ffffff" fill-rule="nonzero" stroke-linejoin="round" d="M -34.37183 -14.625209 C -34.37183 -14.625209 -48.308887 11.699674 -48.308887 11.699674 C -48.308887 11.699674 39.163661 14.882641 39.163661 14.882641 C 39.163661 14.882641 48.314381 6.260386 38.386636 -1.288995 C 38.386636 -1.288995 6.329976 -14.884238 6.329976 -14.884238 C 6.329976 -14.884238 -14.847577 10.620306 -34.37183 -14.625209 Z M -34.37183 -14.625209 " stroke="#ff3131" stroke-width="3" stroke-opacity="1" stroke-miterlimit="4"/><path stroke-linecap="round" transform="matrix(0.471875, 0, 0, 0.471875, 569.539079, 409.220567)" fill-opacity="1" fill="#ff8383" fill-rule="nonzero" stroke-linejoin="round" d="M -46.034804 -61.535309 C -46.034804 -61.535309 -79.586129 5.054096 -47.698711 36.593831 C -34.594406 49.557408 -14.420565 61.535885 29.942019 52.777606 C 79.586059 42.98456 65.091026 -38.679349 65.091026 -38.679349 C 65.091026 -38.679349 -46.034804 -61.535309 -46.034804 -61.535309 Z M -46.034804 -61.535309 " stroke="#ff3131" stroke-width="3" stroke-opacity="1" stroke-miterlimit="4"/><path stroke-linecap="round" transform="matrix(0.359959, -0.305116, 0.305116, 0.359959, 614.886069, 405.154824)" fill-opacity="1" fill="#ff8383" fill-rule="nonzero" stroke-linejoin="round" d="M -98.294313 -0.44898 C -98.294313 -0.44898 -1.411627 76.344522 -1.411627 76.344522 C -1.411627 76.344522 81.163743 108.411319 81.163743 108.411319 C 111.119473 79.011598 -11.027643 -33.858061 -11.027643 -33.858061 " stroke="#ff3131" stroke-width="3" stroke-opacity="1" stroke-miterlimit="4"/><path stroke-linecap="round" transform="matrix(0.464655, 0.0822303, -0.0822303, 0.464655, 645.603259, 446.165926)" fill-opacity="1" fill="#ff8383" fill-rule="nonzero" stroke-linejoin="round" d="M 54.098222 -73.654261 C 75.857469 -32.88184 -39.315928 129.625442 -39.315928 129.625442 C -39.315928 129.625442 -71.543126 127.27502 -71.543126 127.27502 C -71.543126 127.27502 -19.840273 -35.323764 -19.840273 -35.323764 " stroke="#ff3131" stroke-width="3" stroke-opacity="1" stroke-miterlimit="4"/><path stroke-linecap="round" transform="matrix(0.471875, 0, 0, 0.471875, 455.576645, 340.676019)" fill-opacity="1" fill="#ffffff" fill-rule="nonzero" stroke-linejoin="round" d="M -117.389249 -42.127988 C -117.389249 -42.127988 -61.669049 51.199828 -61.669049 51.199828 C -61.669049 51.199828 67.155456 23.939894 67.155456 23.939894 C 67.155456 23.939894 79.95347 37.027643 83.637245 34.022676 C 87.023006 31.249497 77.751483 18.459762 81.451814 13.542543 C 84.688569 9.237907 98.124 10.727973 99.233271 18.360424 C 100.342543 25.984596 108.637245 24.999497 108.637245 24.999497 C 108.637245 24.999497 117.395523 2.623669 104.274662 0.984596 C 91.145523 -0.646199 81.69188 -1.192557 76.220026 4.53592 C 70.739893 10.264397 -28.556466 18.360424 -28.556466 18.360424 C -28.556466 18.360424 -74.500175 -51.200836 -74.500175 -51.200836 C -74.500175 -51.200836 -117.389249 -42.127988 -117.389249 -42.127988 Z M -117.389249 -42.127988 " stroke="#ff3131" stroke-width="3" stroke-opacity="1" stroke-miterlimit="4"/><path stroke-linecap="round" transform="matrix(0.471875, 0, 0, 0.471875, 513.10433, 368.631769)" fill-opacity="1" fill="#ff5757" fill-rule="nonzero" stroke-linejoin="round" d="M 15.55705 32.535324 C 15.55705 32.535324 -15.552222 32.535324 -15.552222 32.535324 C -15.552222 32.535324 -15.552222 -32.539181 -15.552222 -32.539181 C -15.552222 -32.539181 15.55705 -32.539181 15.55705 -32.539181 C 15.55705 -32.539181 15.55705 32.535324 15.55705 32.535324 Z M 15.55705 32.535324 " stroke="#ff3131" stroke-width="3" stroke-opacity="1" stroke-miterlimit="4"/><path stroke-linecap="round" transform="matrix(0.471875, 0, 0, 0.471875, 511.613186, 399.790166)" fill-opacity="1" fill="#ffffff" fill-rule="nonzero" stroke-linejoin="round" d="M 36.515104 106.471173 C 36.515104 106.471173 15.530004 106.471173 15.530004 106.471173 C 15.530004 106.471173 -36.514699 -106.467573 -36.514699 -106.467573 C -36.514699 -106.467573 -15.529599 -106.467573 -15.529599 -106.467573 C -15.529599 -106.467573 36.515104 106.471173 36.515104 106.471173 Z M 36.515104 106.471173 " stroke="#ff3131" stroke-width="3" stroke-opacity="1" stroke-miterlimit="4"/><path stroke-linecap="round" transform="matrix(0.471875, 0, 0, 0.471875, 498.886274, 349.550568)" fill-opacity="1" fill="#ff5757" fill-rule="nonzero" stroke-linejoin="round" d="M 27.343657 0.00045189 C 27.343657 15.09979 15.10028 27.343168 0.000941665 27.343168 C -15.098396 27.343168 -27.341774 15.09979 -27.341774 0.00045189 C -27.341774 -15.098886 -15.098396 -27.342264 0.000941665 -27.342264 C 15.10028 -27.342264 27.343657 -15.098886 27.343657 0.00045189 Z M 27.343657 0.00045189 " stroke="#ff3131" stroke-width="3" stroke-opacity="1" stroke-miterlimit="4"/><path stroke-linecap="round" transform="matrix(0.471875, 0, 0, 0.471875, 414.384295, 446.696422)" fill-opacity="1" fill="#ffffff" fill-rule="nonzero" stroke-linejoin="round" d="M 611.271703 9.062219 C 611.271703 9.062219 -611.269707 9.062219 -611.269707 9.062219 C -611.269707 9.062219 -611.269707 -9.058642 -611.269707 -9.058642 C -611.269707 -9.058642 611.271703 -9.058642 611.271703 -9.058642 C 611.271703 -9.058642 611.271703 9.062219 611.271703 9.062219 Z M 611.271703 9.062219 " stroke="#ff3131" stroke-width="3" stroke-opacity="1" stroke-miterlimit="4"/><path stroke-linecap="round" transform="matrix(0.471875, 0, 0, 0.471875, 695.488745, 368.631769)" fill-opacity="1" fill="#ff5757" fill-rule="nonzero" stroke-linejoin="round" d="M 15.553654 32.535324 C 15.553654 32.535324 -15.555618 32.535324 -15.555618 32.535324 C -15.555618 32.535324 -15.555618 -32.539181 -15.555618 -32.539181 C -15.555618 -32.539181 15.553654 -32.539181 15.553654 -32.539181 C 15.553654 -32.539181 15.553654 32.535324 15.553654 32.535324 Z M 15.553654 32.535324 " stroke="#ff3131" stroke-width="3" stroke-opacity="1" stroke-miterlimit="4"/><path stroke-linecap="round" transform="matrix(0.471875, 0, 0, 0.471875, 650.038675, 495.009835)" fill-opacity="1" fill="#ffffff" fill-rule="nonzero" stroke-linejoin="round" d="M -111.870041 93.32353 C -111.870041 93.32353 -88.923021 93.32353 -88.923021 93.32353 C -88.923021 93.32353 111.871684 -93.323824 111.871684 -93.323824 C 111.871684 -93.323824 85.522346 -93.323824 85.522346 -93.323824 C 85.522346 -93.323824 -111.870041 93.32353 -111.870041 93.32353 Z M -111.870041 93.32353 " stroke="#ff3131" stroke-width="3" stroke-opacity="1" stroke-miterlimit="4"/><path stroke-linecap="round" transform="matrix(0.471875, 0, 0, 0.471875, 706.275784, 450.029757)" fill-opacity="1" fill="#ffffff" fill-rule="nonzero" stroke-linejoin="round" d="M 62.536419 212.93363 C 62.536419 212.93363 41.551319 212.93363 41.551319 212.93363 C 41.551319 212.93363 -62.529808 -212.935582 -62.529808 -212.935582 C -62.529808 -212.935582 -41.552987 -212.935582 -41.552987 -212.935582 C -41.552987 -212.935582 62.536419 212.93363 62.536419 212.93363 Z M 62.536419 212.93363 " stroke="#ff3131" stroke-width="3" stroke-opacity="1" stroke-miterlimit="4"/><path stroke-linecap="round" transform="matrix(0.471875, 0, 0, 0.471875, 417.998862, 554.729416)" fill-opacity="1" fill="#ff5757" fill-rule="nonzero" stroke-linejoin="round" d="M 423.048775 6.980708 C 423.048775 6.980708 -423.043954 6.980708 -423.043954 6.980708 C -423.043954 6.980708 -423.043954 -6.984524 -423.043954 -6.984524 C -423.043954 -6.984524 423.048775 -6.984524 423.048775 -6.984524 C 423.048775 -6.984524 423.048775 6.980708 423.048775 6.980708 Z M 423.048775 6.980708 " stroke="#ff3131" stroke-width="3" stroke-opacity="1" stroke-miterlimit="4"/><path stroke-linecap="round" transform="matrix(0.471875, 0, 0, 0.471875, 731.824479, 554.144752)" fill-opacity="1" fill="#ffffff" fill-rule="nonzero" stroke-linejoin="round" d="M 20.537529 -0.000468073 C 20.537529 11.340592 11.340509 20.537612 -0.000550851 20.537612 C -11.341611 20.537612 -20.538631 11.340592 -20.538631 -0.000468073 C -20.538631 -11.341528 -11.341611 -20.538548 -0.000550851 -20.538548 C 11.340509 -20.538548 20.537529 -11.341528 20.537529 -0.000468073 Z M 20.537529 -0.000468073 " stroke="#ff3131" stroke-width="3" stroke-opacity="1" stroke-miterlimit="4"/><path stroke-linecap="round" transform="matrix(0.471875, 0, 0, 0.471875, 580.453558, 480.352436)" fill-opacity="1" fill="#ffffff" fill-rule="nonzero" stroke-linejoin="round" d="M -68.502575 -127.485297 C -68.502575 -127.485297 45.553718 127.481595 45.553718 127.481595 C 45.553718 127.481595 68.509017 127.481595 68.509017 127.481595 C 68.509017 127.481595 -46.507542 -127.485297 -46.507542 -127.485297 C -46.507542 -127.485297 -68.502575 -127.485297 -68.502575 -127.485297 Z M -68.502575 -127.485297 " stroke="#ff3131" stroke-width="3" stroke-opacity="1" stroke-miterlimit="4"/><path stroke-linecap="round" transform="matrix(0.471875, 0, 0, 0.471875, 470.538316, 495.009835)" fill-opacity="1" fill="#ffffff" fill-rule="nonzero" stroke-linejoin="round" d="M -111.86928 93.32353 C -111.86928 93.32353 -88.92226 93.32353 -88.92226 93.32353 C -88.92226 93.32353 111.872445 -93.323824 111.872445 -93.323824 C 111.872445 -93.323824 85.523107 -93.323824 85.523107 -93.323824 C 85.523107 -93.323824 -111.86928 93.32353 -111.86928 93.32353 Z M -111.86928 93.32353 " stroke="#ff3131" stroke-width="3" stroke-opacity="1" stroke-miterlimit="4"/><path stroke-linecap="round" transform="matrix(0.471875, 0, 0, 0.471875, 400.953324, 480.352436)" fill-opacity="1" fill="#ffffff" fill-rule="nonzero" stroke-linejoin="round" d="M -68.502079 -127.485297 C -68.502079 -127.485297 45.554215 127.481595 45.554215 127.481595 C 45.554215 127.481595 68.509513 127.481595 68.509513 127.481595 C 68.509513 127.481595 -46.507045 -127.485297 -46.507045 -127.485297 C -46.507045 -127.485297 -68.502079 -127.485297 -68.502079 -127.485297 Z M -68.502079 -127.485297 " stroke="#ff3131" stroke-width="3" stroke-opacity="1" stroke-miterlimit="4"/><path stroke-linecap="round" transform="matrix(0.471875, 0, 0, 0.471875, 279.110469, 495.009835)" fill-opacity="1" fill="#ffffff" fill-rule="nonzero" stroke-linejoin="round" d="M -111.87318 93.32353 C -111.87318 93.32353 -88.917882 93.32353 -88.917882 93.32353 C -88.917882 93.32353 111.876823 -93.323824 111.876823 -93.323824 C 111.876823 -93.323824 85.519207 -93.323824 85.519207 -93.323824 C 85.519207 -93.323824 -111.87318 93.32353 -111.87318 93.32353 Z M -111.87318 93.32353 " stroke="#ff3131" stroke-width="3" stroke-opacity="1" stroke-miterlimit="4"/><path stroke-linecap="round" transform="matrix(0.471875, 0, 0, 0.471875, 209.525911, 480.352436)" fill-opacity="1" fill="#ffffff" fill-rule="nonzero" stroke-linejoin="round" d="M -68.506899 -127.485297 C -68.506899 -127.485297 45.549394 127.481595 45.549394 127.481595 C 45.549394 127.481595 68.504692 127.481595 68.504692 127.481595 C 68.504692 127.481595 -46.511866 -127.485297 -46.511866 -127.485297 C -46.511866 -127.485297 -68.506899 -127.485297 -68.506899 -127.485297 Z M -68.506899 -127.485297 " stroke="#ff3131" stroke-width="3" stroke-opacity="1" stroke-miterlimit="4"/><path stroke-linecap="round" transform="matrix(0.471875, 0, 0, 0.471875, 681.270665, 349.550568)" fill-opacity="1" fill="#ff5757" fill-rule="nonzero" stroke-linejoin="round" d="M 27.340313 0.00045189 C 27.340313 15.09979 15.105213 27.343168 -0.00240313 27.343168 C -15.101741 27.343168 -27.345119 15.09979 -27.345119 0.00045189 C -27.345119 -15.098886 -15.101741 -27.342264 -0.00240313 -27.342264 C 15.105213 -27.342264 27.340313 -15.098886 27.340313 0.00045189 Z M 27.340313 0.00045189 " stroke="#ff3131" stroke-width="3" stroke-opacity="1" stroke-miterlimit="4"/><path stroke-linecap="round" transform="matrix(0.471875, 0, 0, 0.471875, 737.117534, 479.25062)" fill-opacity="1" fill="#ff8383" fill-rule="nonzero" stroke-linejoin="round" d="M -66.6812 -22.882109 C -66.6812 -22.882109 4.750921 -18.329129 25.934696 -12.890387 C 66.679729 -2.410254 66.679729 22.879481 66.679729 22.879481 C 66.679729 22.879481 -54.520604 22.879481 -54.520604 22.879481 C -54.520604 22.879481 -66.6812 -22.882109 -66.6812 -22.882109 Z M -66.6812 -22.882109 " stroke="#ff3131" stroke-width="3" stroke-opacity="1" stroke-miterlimit="4"/><path stroke-linecap="round" transform="matrix(0.471875, 0, 0, 0.471875, 570.271487, 428.941678)" fill-opacity="1" fill="#ff5757" fill-rule="nonzero" stroke-linejoin="round" d="M 48.59685 20.049092 C 48.59685 20.049092 -48.59686 20.049092 -48.59686 20.049092 C -59.673019 20.049092 -68.646529 11.067304 -68.646529 -0.000576785 C -68.646529 -11.068458 -59.673019 -20.050246 -48.59686 -20.050246 C -48.59686 -20.050246 48.59685 -20.050246 48.59685 -20.050246 C 59.673009 -20.050246 68.646519 -11.068458 68.646519 -0.000576785 C 68.646519 11.067304 59.673009 20.049092 48.59685 20.049092 Z M 48.59685 20.049092 " stroke="#ff3131" stroke-width="3" stroke-opacity="1" stroke-miterlimit="4"/><path stroke-linecap="round" transform="matrix(0.471875, 0, 0, 0.471875, 612.067365, 554.852992)" fill-opacity="1" fill="#ff8383" fill-rule="nonzero" stroke-linejoin="round" d="M 56.115519 -0.00302959 C 56.115519 30.990348 30.991347 56.114521 -0.00203117 56.114521 C -30.987131 56.114521 -56.111304 30.990348 -56.111304 -0.00302959 C -56.111304 -30.988129 -30.987131 -56.112302 -0.00203117 -56.112302 C 30.991347 -56.112302 56.115519 -30.988129 56.115519 -0.00302959 Z M 56.115519 -0.00302959 " stroke="#ff3131" stroke-width="3" stroke-opacity="1" stroke-miterlimit="4"/><path stroke-linecap="round" transform="matrix(0.471875, 0, 0, 0.471875, 429.682494, 554.852992)" fill-opacity="1" fill="#ff8383" fill-rule="nonzero" stroke-linejoin="round" d="M 56.111603 -0.00302959 C 56.111603 30.990348 30.987431 56.114521 0.00233084 56.114521 C -30.991047 56.114521 -56.11522 30.990348 -56.11522 -0.00302959 C -56.11522 -30.988129 -30.991047 -56.112302 0.00233084 -56.112302 C 30.987431 -56.112302 56.111603 -30.988129 56.111603 -0.00302959 Z M 56.111603 -0.00302959 " stroke="#ff3131" stroke-width="3" stroke-opacity="1" stroke-miterlimit="4"/><path stroke-linecap="round" transform="matrix(0.471875, 0, 0, 0.471875, 387.886626, 428.941678)" fill-opacity="1" fill="#ff5757" fill-rule="nonzero" stroke-linejoin="round" d="M 48.601192 20.049092 C 48.601192 20.049092 -48.600797 20.049092 -48.600797 20.049092 C -59.668678 20.049092 -68.650466 11.067304 -68.650466 -0.000576785 C -68.650466 -11.068458 -59.668678 -20.050246 -48.600797 -20.050246 C -48.600797 -20.050246 48.601192 -20.050246 48.601192 -20.050246 C 59.669073 -20.050246 68.650861 -11.068458 68.650861 -0.000576785 C 68.650861 11.067304 59.669073 20.049092 48.601192 20.049092 Z M 48.601192 20.049092 " stroke="#ff3131" stroke-width="3" stroke-opacity="1" stroke-miterlimit="4"/><path stroke-linecap="round" transform="matrix(0.471875, 0, 0, 0.471875, 326.113962, 368.631769)" fill-opacity="1" fill="#ff5757" fill-rule="nonzero" stroke-linejoin="round" d="M 15.553193 32.535324 C 15.553193 32.535324 -15.556079 32.535324 -15.556079 32.535324 C -15.556079 32.535324 -15.556079 -32.539181 -15.556079 -32.539181 C -15.556079 -32.539181 15.553193 -32.539181 15.553193 -32.539181 C 15.553193 -32.539181 15.553193 32.535324 15.553193 32.535324 Z M 15.553193 32.535324 " stroke="#ff3131" stroke-width="3" stroke-opacity="1" stroke-miterlimit="4"/><path stroke-linecap="round" transform="matrix(0.471875, 0, 0, 0.471875, 324.622809, 399.790166)" fill-opacity="1" fill="#ffffff" fill-rule="nonzero" stroke-linejoin="round" d="M 36.511267 106.471173 C 36.511267 106.471173 15.526167 106.471173 15.526167 106.471173 C 15.526167 106.471173 -36.510258 -106.467573 -36.510258 -106.467573 C -36.510258 -106.467573 -15.525158 -106.467573 -15.525158 -106.467573 C -15.525158 -106.467573 36.511267 106.471173 36.511267 106.471173 Z M 36.511267 106.471173 " stroke="#ff3131" stroke-width="3" stroke-opacity="1" stroke-miterlimit="4"/><path stroke-linecap="round" transform="matrix(0.471875, 0, 0, 0.471875, 311.896833, 349.550568)" fill-opacity="1" fill="#ff5757" fill-rule="nonzero" stroke-linejoin="round" d="M 27.346115 0.00045189 C 27.346115 15.09979 15.102737 27.343168 0.0033994 27.343168 C -15.104217 27.343168 -27.347594 15.09979 -27.347594 0.00045189 C -27.347594 -15.098886 -15.104217 -27.342264 0.0033994 -27.342264 C 15.102737 -27.342264 27.346115 -15.098886 27.346115 0.00045189 Z M 27.346115 0.00045189 " stroke="#ff3131" stroke-width="3" stroke-opacity="1" stroke-miterlimit="4"/><path stroke-linecap="round" transform="matrix(0.471875, 0, 0, 0.471875, 242.692594, 554.852992)" fill-opacity="1" fill="#ff8383" fill-rule="nonzero" stroke-linejoin="round" d="M 56.115032 -0.00302959 C 56.115032 30.990348 30.99086 56.114521 -0.00251813 56.114521 C -30.987618 56.114521 -56.111791 30.990348 -56.111791 -0.00302959 C -56.111791 -30.988129 -30.987618 -56.112302 -0.00251813 -56.112302 C 30.99086 -56.112302 56.115032 -30.988129 56.115032 -0.00302959 Z M 56.115032 -0.00302959 " stroke="#ff3131" stroke-width="3" stroke-opacity="1" stroke-miterlimit="4"/><path stroke-linecap="round" transform="matrix(0.471875, 0, 0, 0.471875, 200.896736, 428.941678)" fill-opacity="1" fill="#ff5757" fill-rule="nonzero" stroke-linejoin="round" d="M 48.6046 20.049092 C 48.6046 20.049092 -48.597388 20.049092 -48.597388 20.049092 C -59.673547 20.049092 -68.647057 11.067304 -68.647057 -0.000576785 C -68.647057 -11.068458 -59.673547 -20.050246 -48.597388 -20.050246 C -48.597388 -20.050246 48.6046 -20.050246 48.6046 -20.050246 C 59.672481 -20.050246 68.645991 -11.068458 68.645991 -0.000576785 C 68.645991 11.067304 59.672481 20.049092 48.6046 20.049092 Z M 48.6046 20.049092 " stroke="#ff3131" stroke-width="3" stroke-opacity="1" stroke-miterlimit="4"/><path stroke-linecap="round" transform="matrix(0.471875, 0, 0, 0.471875, 128.558318, 504.631339)" fill-opacity="1" fill="#ffffff" fill-rule="nonzero" stroke-linejoin="round" d="M 29.123102 -113.713766 C 29.123102 -113.713766 -69.924913 106.27796 -69.924913 106.27796 C -69.924913 106.27796 -36.406701 113.720013 -36.406701 113.720013 C -36.406701 113.720013 69.917804 -113.655819 69.917804 -113.655819 C 69.917804 -113.655819 29.123102 -113.713766 29.123102 -113.713766 Z M 29.123102 -113.713766 " stroke="#ff3131" stroke-width="3" stroke-opacity="1" stroke-miterlimit="4"/><path stroke-linecap="round" transform="matrix(0.471875, 0, 0, 0.471875, 103.809394, 554.78032)" fill-opacity="1" fill="#ffffff" fill-rule="nonzero" stroke-linejoin="round" d="M 17.473469 0.00197067 C 17.473469 9.646011 9.650622 17.477137 -0.00169648 17.477137 C -9.654015 17.477137 -17.476862 9.646011 -17.476862 0.00197067 C -17.476862 -9.650347 -9.654015 -17.473195 -0.00169648 -17.473195 C 9.650622 -17.473195 17.473469 -9.650347 17.473469 0.00197067 Z M 17.473469 0.00197067 " stroke="#ff3131" stroke-width="3" stroke-opacity="1" stroke-miterlimit="4"/><path stroke-linecap="round" transform="matrix(0.471875, 0, 0, 0.471875, 682.118105, 350.950608)" fill-opacity="1" fill="#ff3131" fill-rule="nonzero" stroke-linejoin="round" d="M 12.779512 -0.00294399 C 12.779512 7.058314 7.059314 12.778513 -0.00194476 12.778513 C -7.054925 12.778513 -12.783402 7.058314 -12.783402 -0.00294399 C -12.783402 -7.055924 -7.054925 -12.776123 -0.00194476 -12.776123 C 7.059314 -12.776123 12.779512 -7.055924 12.779512 -0.00294399 Z M 12.779512 -0.00294399 " stroke="#ff3131" stroke-width="3" stroke-opacity="1" stroke-miterlimit="4"/><path stroke-linecap="round" transform="matrix(0.471875, 0, 0, 0.471875, 137.07423, 435.600766)" fill-opacity="1" fill="#ff5757" fill-rule="nonzero" stroke-linejoin="round" d="M 58.849314 14.115926 C 58.849314 14.115926 -58.849363 14.115926 -58.849363 14.115926 C -58.849363 14.115926 -58.849363 -14.112551 -58.849363 -14.112551 C -58.849363 -14.112551 58.849314 -14.112551 58.849314 -14.112551 C 58.849314 -14.112551 58.849314 14.115926 58.849314 14.115926 Z M 58.849314 14.115926 " stroke="#ff3131" stroke-width="3" stroke-opacity="1" stroke-miterlimit="4"/><path stroke-linecap="butt" transform="matrix(0.455795, 0.122134, -0.122134, 0.455795, 426.10647, 564.756136)" fill="none" stroke-linejoin="miter" d="M 9.726598 34.771942 C 9.726598 34.771942 -10.405984 34.767414 -10.405984 34.767414 C -10.405984 34.767414 -9.99907 -26.241368 -9.99907 -26.241368 C -9.99907 -26.241368 10.131369 -26.244836 10.131369 -26.244836 C 10.131369 -26.244836 9.726598 34.771942 9.726598 34.771942 Z M 9.726598 34.771942 " stroke="#ff3131" stroke-width="2" stroke-opacity="1" stroke-miterlimit="4"/><path stroke-linecap="round" transform="matrix(0.455795, 0.122134, -0.122134, 0.455795, 426.10647, 564.756136)" fill-opacity="1" fill="#ff8383" fill-rule="nonzero" stroke-linejoin="round" d="M 9.726598 34.771942 C 9.726598 34.771942 -10.405984 34.767414 -10.405984 34.767414 C -10.405984 34.767414 -9.99907 -26.241368 -9.99907 -26.241368 C -9.99907 -26.241368 10.131369 -26.244836 10.131369 -26.244836 C 10.131369 -26.244836 9.726598 34.771942 9.726598 34.771942 Z M 9.726598 34.771942 " stroke="#ff3131" stroke-width="3" stroke-opacity="1" stroke-miterlimit="4"/><path stroke-linecap="round" transform="matrix(0.455795, 0.122134, -0.122134, 0.455795, 429.262038, 554.802952)" fill-opacity="1" fill="#ff5757" fill-rule="nonzero" stroke-linejoin="round" d="M 25.032301 -0.00191604 C 25.026037 13.823474 13.827047 25.026003 0.00379945 25.027734 C -13.819448 25.029465 -25.032116 13.824622 -25.025851 -0.000767762 C -25.027582 -13.824015 -13.820596 -25.028687 0.00265116 -25.030418 C 13.825898 -25.032149 25.03057 -13.825163 25.032301 -0.00191604 Z M 25.032301 -0.00191604 " stroke="#ff3131" stroke-width="3" stroke-opacity="1" stroke-miterlimit="4"/><path stroke-linecap="round" transform="matrix(0.471868, 0.00257376, -0.00257376, 0.471868, 416.974351, 584.176623)" fill-opacity="1" fill="#ff5757" fill-rule="nonzero" stroke-linejoin="round" d="M 46.671637 9.536843 C 46.671637 9.536843 -16.66541 9.534621 -16.66541 9.534621 C -21.938645 9.538549 -26.208705 5.265418 -26.204309 0.00041508 C -26.208191 -5.264543 -21.93506 -9.534602 -16.670103 -9.538484 C -16.670103 -9.538484 46.666944 -9.536262 46.666944 -9.536262 C 51.931947 -9.531867 56.201961 -5.267014 56.205843 -0.00205605 C 56.201448 5.262947 51.936595 9.532961 46.671637 9.536843 Z M 46.671637 9.536843 " stroke="#ff3131" stroke-width="3" stroke-opacity="1" stroke-miterlimit="4"/><path stroke-linecap="round" transform="matrix(0.471868, 0.00257376, -0.00257376, 0.471868, 424.472094, 568.171695)" fill-opacity="1" fill="#ffffff" fill-rule="nonzero" stroke-linejoin="round" d="M 10.228904 -23.54086 C 10.228904 -23.54086 -6.810971 -5.914545 13.928107 6.596696 C 13.928107 6.596696 29.073228 24.05574 29.073228 24.05574 C 29.073228 24.05574 -29.078404 17.054932 -29.078404 17.054932 C -29.078404 17.054932 -15.742819 -24.053184 -15.742819 -24.053184 C -15.742819 -24.053184 10.228904 -23.54086 10.228904 -23.54086 Z M 10.228904 -23.54086 " stroke="#ff3131" stroke-width="3" stroke-opacity="1" stroke-miterlimit="4"/><path stroke-linecap="round" transform="matrix(0.471868, 0.00257376, -0.00257376, 0.471868, 426.752382, 575.412423)" fill-opacity="1" fill="#ff8383" fill-rule="nonzero" stroke-linejoin="round" d="M -34.37342 -14.62714 C -34.37342 -14.62714 -48.31116 11.699272 -48.31116 11.699272 C -48.31116 11.699272 39.166105 14.881131 39.166105 14.881131 C 39.166105 14.881131 48.316256 6.263214 38.382525 -1.290332 C 38.382525 -1.290332 6.329436 -14.882263 6.329436 -14.882263 C 6.329436 -14.882263 -14.847991 10.622697 -34.37342 -14.62714 Z M -34.37342 -14.62714 " stroke="#ff3131" stroke-width="3" stroke-opacity="1" stroke-miterlimit="4"/><path stroke-linecap="round" transform="matrix(0.471875, 0, 0, 0.471875, 208.485418, 409.220567)" fill-opacity="1" fill="#ff5757" fill-rule="nonzero" stroke-linejoin="round" d="M 329.401769 -32.876369 C 329.401769 -32.876369 298.557398 5.054096 330.444815 36.593831 C 343.54912 49.557408 363.722962 61.535885 408.093823 52.777606 C 457.737864 42.98456 450.237864 -37.677693 450.237864 -37.677693 C 450.237864 -37.677693 329.401769 -32.876369 329.401769 -32.876369 Z M 329.401769 -32.876369 " stroke="#ff3131" stroke-width="3" stroke-opacity="1" stroke-miterlimit="4"/><path stroke-linecap="round" transform="matrix(0.470079, 0.0411266, -0.0411266, 0.470079, 256.033467, 413.342639)" fill-opacity="1" fill="#ff5757" fill-rule="nonzero" stroke-linejoin="round" d="M 283.925131 20.915707 C 283.925131 20.915707 409.62004 86.468398 409.62004 86.468398 C 409.62004 86.468398 464.11672 57.228293 464.11672 57.228293 C 443.654324 12.924245 337.539626 -54.025721 337.539626 -54.025721 " stroke="#ff3131" stroke-width="3" stroke-opacity="1" stroke-miterlimit="4"/><path stroke-linecap="round" transform="matrix(0.471868, 0.00257376, -0.00257376, 0.471868, 268.594591, 498.469627)" fill-opacity="1" fill="#ff5757" fill-rule="nonzero" stroke-linejoin="round" d="M 428.36808 -90.592971 C 453.959175 -52.106153 338.066998 132.195918 338.066998 132.195918 C 338.066998 132.195918 310.508017 127.528283 310.508017 127.528283 C 310.508017 127.528283 366.895406 -64.470868 366.895406 -64.470868 " stroke="#ff3131" stroke-width="3" stroke-opacity="1" stroke-miterlimit="4"/><path stroke-linecap="round" transform="matrix(0.471864, 0.00321155, -0.00321155, 0.471864, 404.043055, 290.14855)" fill-opacity="1" fill="#ffffff" fill-rule="nonzero" stroke-linejoin="round" d="M 40.792746 -29.591474 C 17.692453 0.268427 31.486684 1.855045 31.486684 1.855045 C 31.486684 1.855045 51.483224 47.498157 21.776985 53.056425 C -7.937533 58.614749 -51.482744 20.739704 -28.817983 4.732428 C -6.153221 -11.274848 13.914128 -58.614513 13.914128 -58.614513 " stroke="#ff3131" stroke-width="3" stroke-opacity="1" stroke-miterlimit="4"/><path stroke-linecap="round" transform="matrix(0.471864, 0.00321155, -0.00321155, 0.471864, 396.465891, 342.851487)" fill-opacity="1" fill="#ff8383" fill-rule="nonzero" stroke-linejoin="round" d="M -42.728289 117.752314 C -8.023979 125.272917 55.103458 118.725574 55.04754 101.995433 C 54.911923 63.824938 56.707578 34.523956 61.496455 -0.161761 C 71.555446 -73.021652 45.041078 -112.991133 45.041078 -112.991133 C 45.041078 -112.991133 48.831251 -97.37087 44.149921 -99.185078 C 38.970617 -101.186298 1.231283 -125.276034 1.231283 -125.276034 C -40.030437 -108.612372 -38.577575 -59.349591 -46.230593 -31.937596 C -52.178429 -10.630063 -56.592767 8.539499 -59.903948 25.590577 C -71.268594 84.195777 -69.554139 106.212766 -71.554108 115.224932 C -71.554108 115.224932 -42.728289 117.752314 -42.728289 117.752314 Z M -42.728289 117.752314 " stroke="#ff3131" stroke-width="3" stroke-opacity="1" stroke-miterlimit="4"/><path stroke-linecap="round" transform="matrix(0.471875, -0.000428209, 0.000428209, 0.471875, 455.746973, 344.588909)" fill-opacity="1" fill="#ffffff" fill-rule="nonzero" stroke-linejoin="round" d="M -124.169865 -41.170323 C -124.169865 -41.170323 -68.724501 33.664799 -40.255185 41.952228 C -10.685162 50.555225 80.471558 16.565081 80.471558 16.565081 C 80.471558 16.565081 96.742391 30.106343 99.62601 26.996375 C 102.2859 24.126271 89.615782 10.894568 92.012793 5.797403 C 94.102926 1.345655 107.934314 2.889664 111.064571 10.781581 C 114.203099 18.681785 122.233829 17.662582 122.233829 17.662582 C 122.233829 17.662582 125.061139 -5.497116 111.503065 -7.189884 C 97.944991 -8.882652 88.342856 -9.45428 84.388796 -3.522435 C 80.434735 2.409411 -16.799832 10.889059 -16.799832 10.889059 C -16.799832 10.889059 -83.706075 -50.50447 -83.706075 -50.50447 C -83.706075 -50.50447 -124.169865 -41.170323 -124.169865 -41.170323 Z M -124.169865 -41.170323 " stroke="#ff3131" stroke-width="3" stroke-opacity="1" stroke-miterlimit="4"/><path stroke-linecap="round" transform="matrix(0.471875, -0.000428209, 0.000428209, 0.471875, 406.267855, 323.077093)" fill-opacity="1" fill="#ff8383" fill-rule="nonzero" stroke-linejoin="round" d="M -36.874586 -1.123992 C -36.874586 -1.123992 -1.506814 40.613423 -1.506814 40.613423 C -1.506814 40.613423 38.711525 -8.398119 38.711525 -8.398119 C 38.711525 -8.398119 1.042075 -40.626028 1.042075 -40.626028 " stroke="#ff3131" stroke-width="3" stroke-opacity="1" stroke-miterlimit="4"/><path stroke-linecap="round" transform="matrix(0.471864, 0.00321155, -0.00321155, 0.471864, 413.901247, 262.758024)" fill-opacity="1" fill="#ffffff" fill-rule="nonzero" stroke-linejoin="round" d="M 39.42261 -2.603252 C 40.767577 29.590329 18.784948 50.949048 18.784948 50.949048 C 1.843975 51.652111 -38.083472 35.69004 -39.428438 3.496458 C -40.773404 -28.697124 -29.797018 -49.475954 -3.76077 -50.563776 C 22.2672 -51.651542 38.085922 -34.796891 39.42261 -2.603252 Z M 39.42261 -2.603252 " stroke="#ff3131" stroke-width="3" stroke-opacity="1" stroke-miterlimit="4"/><path stroke-linecap="round" transform="matrix(0.471864, 0.00321155, -0.00321155, 0.471864, 415.519519, 257.809519)" fill-opacity="1" fill="#ff3131" fill-rule="nonzero" stroke-linejoin="round" d="M 0.0765915 -2.130015 C 0.0765915 -2.130015 24.495182 7.232157 36.127041 1.267091 C 47.758899 -4.697975 52.86778 -28.855824 52.86778 -28.855824 C 52.86778 -28.855824 41.06317 -34.893173 3.46022 -43.809642 C -12.61744 -47.624149 -28.566724 -39.87469 -40.71499 -23.425734 C -52.863199 -6.968499 -51.94636 30.435072 -46.39516 34.776531 C -29.966249 47.628592 -32.655864 44.103769 -32.655864 44.103769 C -32.655864 44.103769 -26.044517 -0.130998 0.0765915 -2.130015 Z M 0.0765915 -2.130015 " stroke="#ff3131" stroke-width="3" stroke-opacity="1" stroke-miterlimit="4"/><path stroke-linecap="round" transform="matrix(0.471864, 0.00321155, -0.00321155, 0.471864, 432.544086, 268.509791)" fill-opacity="1" fill="#ffffff" fill-rule="nonzero" stroke-linejoin="round" d="M -2.247058 -12.348459 C -2.247058 -12.348459 -0.531219 2.573985 3.684639 6.543729 C 6.975671 9.642264 -6.979769 12.344922 -6.979769 12.344922 " stroke="#ff3131" stroke-width="3" stroke-opacity="1" stroke-miterlimit="4"/><path stroke-linecap="round" transform="matrix(0.471864, 0.00321155, -0.00321155, 0.471864, 400.445667, 263.89949)" fill-opacity="1" fill="#ffffff" fill-rule="nonzero" stroke-linejoin="round" d="M 14.668438 -2.436556 C 14.668438 -2.436556 16.614727 -15.686866 6.035461 -10.755478 C -16.608371 -0.187213 14.162643 15.688169 14.162643 15.688169 " stroke="#ff3131" stroke-width="3" stroke-opacity="1" stroke-miterlimit="4"/><path stroke-linecap="round" transform="matrix(0.471864, 0.00321155, -0.00321155, 0.471864, 412.054327, 264.205466)" fill-opacity="1" fill="#ff3131" fill-rule="nonzero" stroke-linejoin="round" d="M -5.977346 -12.332116 C -5.977346 -12.332116 -6.070596 -11.437421 -6.168125 -9.954934 C -6.619843 -3.345746 -7.332587 14.780387 -1.601087 15.204965 C 5.414285 15.736702 7.327625 -15.734006 7.327625 -15.734006 C 7.327625 -15.734006 -5.977346 -12.332116 -5.977346 -12.332116 Z M -5.977346 -12.332116 " stroke="#ff3131" stroke-width="3" stroke-opacity="1" stroke-miterlimit="4"/><path stroke-linecap="round" transform="matrix(0.471875, 0, 0, 0.471875, 573.010631, 328.276556)" fill-opacity="1" fill="#ffffff" fill-rule="nonzero" stroke-linejoin="round" d="M 35.797008 -0.660583 C 35.797008 -0.660583 6.05363 -29.20363 6.05363 -29.20363 C 6.05363 -29.20363 -35.800675 -16.148994 -35.800675 -16.148994 C -35.800675 -16.148994 13.081776 29.206967 13.081776 29.206967 " stroke="#ff3131" stroke-width="3" stroke-opacity="1" stroke-miterlimit="4"/><path stroke-linecap="round" transform="matrix(0.471875, 0, 0, 0.471875, 605.347773, 328.200589)" fill-opacity="1" fill="#ffffff" fill-rule="nonzero" stroke-linejoin="round" d="M -36.920778 15.907692 C -36.920778 15.907692 32.052733 -83.314164 32.052733 -83.314164 C 32.052733 -83.314164 40.612336 -74.597276 40.612336 -74.597276 C 40.612336 -74.597276 -4.379387 83.308356 -30.198924 71.892793 C -30.198924 71.892793 -57.119454 47.654382 -57.119454 47.654382 " stroke="#ff3131" stroke-width="3" stroke-opacity="1" stroke-miterlimit="4"/><path stroke-linecap="round" transform="matrix(0.471864, -0.00321155, 0.00321155, 0.471864, 630.562772, 285.280143)" fill-opacity="1" fill="#ffffff" fill-rule="nonzero" stroke-linejoin="round" d="M -18.553893 28.20454 C -18.553893 28.20454 -2.704108 17.732698 -2.704108 17.732698 C 9.348759 19.006812 26.71102 -0.834093 12.871677 -14.513037 C -0.96761 -28.20026 -12.573086 -8.849988 -12.573086 -8.849988 C -12.573086 -8.849988 -18.311891 3.594687 -26.707637 15.979887 " stroke="#ff3131" stroke-width="3" stroke-opacity="1" stroke-miterlimit="4"/><path stroke-linecap="round" transform="matrix(0.471864, -0.00321155, 0.00321155, 0.471864, 632.203628, 283.9019)" fill-opacity="1" fill="#ff8383" fill-rule="nonzero" stroke-linejoin="round" d="M 10.268151 17.645738 C 10.268151 17.645738 -2.711365 23.592307 -2.711365 23.592307 C -2.711365 23.592307 -10.270294 -17.643872 -10.270294 -17.643872 C -10.270294 -17.643872 2.709221 -23.590441 2.709221 -23.590441 C 2.709221 -23.590441 10.268151 17.645738 10.268151 17.645738 Z M 10.268151 17.645738 " stroke="#ff3131" stroke-width="3" stroke-opacity="1" stroke-miterlimit="4"/><path stroke-linecap="round" transform="matrix(0.471864, -0.00321155, 0.00321155, 0.471864, 628.099484, 267.242527)" fill-opacity="1" fill="#ff8383" fill-rule="nonzero" stroke-linejoin="round" d="M 18.71115 8.852 C 18.71115 8.852 -5.528823 19.94556 -5.528823 19.94556 C -5.528823 19.94556 -18.710665 -8.845155 -18.710665 -8.845155 C -18.710665 -8.845155 5.529364 -19.946994 5.529364 -19.946994 C 5.529364 -19.946994 18.71115 8.852 18.71115 8.852 Z M 18.71115 8.852 " stroke="#ff3131" stroke-width="3" stroke-opacity="1" stroke-miterlimit="4"/><path stroke-linecap="round" transform="matrix(0.471864, -0.00321155, 0.00321155, 0.471864, 619.061156, 270.453434)" fill-opacity="1" fill="#ffffff" fill-rule="nonzero" stroke-linejoin="round" d="M 0.489276 -15.519208 C 0.489276 -15.519208 -11.489022 -3.423298 -12.508293 0.3778 C -13.671951 4.716008 -10.511713 12.320475 -6.235564 14.08803 C -2.751845 15.519058 13.671119 13.271507 13.671119 13.271507 C 13.671119 13.271507 0.489276 -15.519208 0.489276 -15.519208 Z M 0.489276 -15.519208 " stroke="#ff3131" stroke-width="3" stroke-opacity="1" stroke-miterlimit="4"/><path stroke-linecap="round" transform="matrix(0.471864, -0.00321155, 0.00321155, 0.471864, 661.406034, 251.6253)" fill-opacity="1" fill="#ff8383" fill-rule="nonzero" stroke-linejoin="round" d="M -25.848757 -22.486687 C -25.848757 -22.486687 -19.464448 -49.496844 3.195921 -0.00371937 C 25.847956 49.497627 -1.084001 31.623517 -1.084001 31.623517 C -1.084001 31.623517 -25.848757 -22.486687 -25.848757 -22.486687 Z M -25.848757 -22.486687 " stroke="#ff3131" stroke-width="3" stroke-opacity="1" stroke-miterlimit="4"/><path stroke-linecap="round" transform="matrix(0.471864, -0.00321155, 0.00321155, 0.471864, 649.482859, 253.00697)" fill-opacity="1" fill="#ffffff" fill-rule="nonzero" stroke-linejoin="round" d="M -39.0783 10.870179 C -39.0783 10.870179 -22.614811 -2.196883 -0.561755 -25.242692 C 9.7186 -35.992511 39.077077 29.175704 24.203001 28.867511 C 0.298578 28.365403 -27.576814 35.990432 -27.576814 35.990432 C -27.576814 35.990432 -39.0783 10.870179 -39.0783 10.870179 Z M -39.0783 10.870179 " stroke="#ff3131" stroke-width="3" stroke-opacity="1" stroke-miterlimit="4"/><path stroke-linecap="round" transform="matrix(0.471864, -0.00321155, 0.00321155, 0.471864, 635.754164, 283.834811)" fill-opacity="1" fill="#ffffff" fill-rule="nonzero" stroke-linejoin="round" d="M 6.006756 -16.621024 C 6.006756 -16.621024 -12.826284 -11.7822 -12.826284 -11.7822 C -12.826284 -11.7822 -15.014688 16.62244 -3.298279 15.029959 C 8.426351 13.445812 15.014675 -11.915568 6.006756 -16.621024 Z M 6.006756 -16.621024 " stroke="#ff3131" stroke-width="3" stroke-opacity="1" stroke-miterlimit="4"/><path stroke-linecap="round" transform="matrix(0.471864, -0.00321155, 0.00321155, 0.471864, 627.365372, 282.22899)" fill-opacity="1" fill="#ffffff" fill-rule="nonzero" stroke-linejoin="round" d="M -14.819054 14.066511 C -14.819054 14.066511 -3.820343 -6.140559 -3.820343 -6.140559 C -3.820343 -6.140559 14.818428 -14.060247 14.818428 -14.060247 C 14.818428 -14.060247 14.711675 -2.02427 5.573538 0.239748 C 5.573538 0.239748 -0.405858 3.030244 -0.405858 3.030244 C -0.405858 3.030244 -3.318552 13.788816 -3.318552 13.788816 " stroke="#ff3131" stroke-width="3" stroke-opacity="1" stroke-miterlimit="4"/><path stroke-linecap="butt" transform="matrix(0.455795, 0.122134, -0.122134, 0.455795, 608.958021, 564.756208)" fill="none" stroke-linejoin="miter" d="M 9.726582 34.771788 C 9.726582 34.771788 -10.406 34.76726 -10.406 34.76726 C -10.406 34.76726 -9.999086 -26.241522 -9.999086 -26.241522 C -9.999086 -26.241522 10.131353 -26.24499 10.131353 -26.24499 C 10.131353 -26.24499 9.726582 34.771788 9.726582 34.771788 Z M 9.726582 34.771788 " stroke="#ff3131" stroke-width="2" stroke-opacity="1" stroke-miterlimit="4"/><path stroke-linecap="round" transform="matrix(0.455795, 0.122134, -0.122134, 0.455795, 608.958021, 564.756208)" fill-opacity="1" fill="#ff8383" fill-rule="nonzero" stroke-linejoin="round" d="M 9.726582 34.771788 C 9.726582 34.771788 -10.406 34.76726 -10.406 34.76726 C -10.406 34.76726 -9.999086 -26.241522 -9.999086 -26.241522 C -9.999086 -26.241522 10.131353 -26.24499 10.131353 -26.24499 C 10.131353 -26.24499 9.726582 34.771788 9.726582 34.771788 Z M 9.726582 34.771788 " stroke="#ff3131" stroke-width="3" stroke-opacity="1" stroke-miterlimit="4"/><path stroke-linecap="round" transform="matrix(0.455795, 0.122134, -0.122134, 0.455795, 612.113589, 554.803)" fill-opacity="1" fill="#ff5757" fill-rule="nonzero" stroke-linejoin="round" d="M 25.032299 -0.00202072 C 25.026034 13.823369 13.827044 25.025898 0.00379707 25.02763 C -13.81945 25.029361 -25.032118 13.824517 -25.025853 -0.000872435 C -25.027584 -13.82412 -13.820598 -25.028792 0.00264878 -25.030523 C 13.825896 -25.032254 25.030568 -13.825268 25.032299 -0.00202072 Z M 25.032299 -0.00202072 " stroke="#ff3131" stroke-width="3" stroke-opacity="1" stroke-miterlimit="4"/><path stroke-linecap="round" transform="matrix(0.471868, 0.00257376, -0.00257376, 0.471868, 604.746837, 584.949255)" fill-opacity="1" fill="#ff5757" fill-rule="nonzero" stroke-linejoin="round" d="M 31.665155 9.537619 C 31.665155 9.537619 -31.671891 9.535397 -31.671891 9.535397 C -36.936849 9.539279 -41.206908 5.266149 -41.202513 0.00114567 C -41.20644 -5.27209 -36.933264 -9.533871 -31.668306 -9.537754 C -31.668306 -9.537754 31.66874 -9.535532 31.66874 -9.535532 C 36.933698 -9.539414 41.203757 -5.266283 41.207639 -0.00132546 C 41.203244 5.263677 36.938391 9.533692 31.665155 9.537619 Z M 31.665155 9.537619 " stroke="#ff3131" stroke-width="3" stroke-opacity="1" stroke-miterlimit="4"/><path stroke-linecap="round" transform="matrix(0.471868, 0.00257376, -0.00257376, 0.471868, 606.417693, 567.389703)" fill-opacity="1" fill="#ffffff" fill-rule="nonzero" stroke-linejoin="round" d="M 10.228306 -23.539285 C 10.228306 -23.539285 -6.811569 -5.912969 13.927464 6.589993 C 13.927464 6.589993 29.072585 24.049037 29.072585 24.049037 C 29.072585 24.049037 -29.079047 17.04823 -29.079047 17.04823 C -29.079047 17.04823 -15.735139 -24.051653 -15.735139 -24.051653 C -15.735139 -24.051653 10.228306 -23.539285 10.228306 -23.539285 Z M 10.228306 -23.539285 " stroke="#ff3131" stroke-width="3" stroke-opacity="1" stroke-miterlimit="4"/><path stroke-linecap="round" transform="matrix(0.471868, 0.00257376, -0.00257376, 0.471868, 608.697933, 574.629951)" fill-opacity="1" fill="#ffffff" fill-rule="nonzero" stroke-linejoin="round" d="M -34.373911 -14.624548 C -34.373911 -14.624548 -48.311651 11.701864 -48.311651 11.701864 C -48.311651 11.701864 39.165614 14.883723 39.165614 14.883723 C 39.165614 14.883723 48.315765 6.265806 38.382034 -1.28774 C 38.382034 -1.28774 6.328945 -14.879671 6.328945 -14.879671 C 6.328945 -14.879671 -14.84025 10.616966 -34.373911 -14.624548 Z M -34.373911 -14.624548 " stroke="#ff3131" stroke-width="3" stroke-opacity="1" stroke-miterlimit="4"/><path stroke-linecap="round" transform="matrix(0.471875, 0, 0, 0.471875, 569.775023, 409.220567)" fill-opacity="1" fill="#ff8383" fill-rule="nonzero" stroke-linejoin="round" d="M -46.02985 -61.535309 C -46.02985 -61.535309 -79.589454 5.054096 -47.702036 36.593831 C -34.597731 49.557408 -14.42389 61.535885 29.946972 52.777606 C 79.591013 42.98456 65.095979 -38.679349 65.095979 -38.679349 C 65.095979 -38.679349 -46.02985 -61.535309 -46.02985 -61.535309 Z M -46.02985 -61.535309 " stroke="#ff3131" stroke-width="3" stroke-opacity="1" stroke-miterlimit="4"/><path stroke-linecap="round" transform="matrix(0.470079, 0.0411266, -0.0411266, 0.470079, 616.336724, 428.753974)" fill-opacity="1" fill="#ff8383" fill-rule="nonzero" stroke-linejoin="round" d="M -93.546912 21.155695 C -93.546912 21.155695 32.147997 86.708386 32.147997 86.708386 C 32.147997 86.708386 86.644677 57.468281 86.644677 57.468281 C 66.182281 13.164233 -39.932417 -53.785733 -39.932417 -53.785733 " stroke="#ff3131" stroke-width="3" stroke-opacity="1" stroke-miterlimit="4"/><path stroke-linecap="round" transform="matrix(0.471868, 0.00257376, -0.00257376, 0.471868, 630.027212, 501.406411)" fill-opacity="1" fill="#ff8383" fill-rule="nonzero" stroke-linejoin="round" d="M 48.725078 -94.298962 C 74.316128 -55.820422 -41.576049 128.48165 -41.576049 128.48165 C -41.576049 128.48165 -69.13503 123.814015 -69.13503 123.814015 C -69.13503 123.814015 -12.747641 -68.185136 -12.747641 -68.185136 " stroke="#ff3131" stroke-width="3" stroke-opacity="1" stroke-miterlimit="4"/><path stroke-linecap="round" transform="matrix(0.471872, 0.00174881, -0.00174881, 0.471872, 582.151798, 290.114655)" fill-opacity="1" fill="#ffffff" fill-rule="nonzero" stroke-linejoin="round" d="M 40.794087 -29.591387 C 17.692679 0.270924 31.490019 1.850595 31.490019 1.850595 C 31.490019 1.850595 51.485485 47.497003 21.770777 53.054187 C -7.935653 58.611339 -51.486924 20.734404 -28.822567 4.731424 C -6.149931 -11.271587 13.914816 -58.614487 13.914816 -58.614487 " stroke="#ff3131" stroke-width="3" stroke-opacity="1" stroke-miterlimit="4"/><path stroke-linecap="round" transform="matrix(0.471872, 0.00174881, -0.00174881, 0.471872, 579.594358, 344.207463)" fill-opacity="1" fill="#ffffff" fill-rule="nonzero" stroke-linejoin="round" d="M -9.068929 -128.130438 C -9.068929 -128.130438 27.980693 -93.366845 33.153706 -91.366135 C 37.837606 -89.554012 34.735161 -115.850642 34.735161 -115.850642 C 34.735161 -115.850642 82.744214 -52.294686 41.135184 -6.138506 C 17.680079 19.867473 44.612389 60.968274 44.745574 99.138573 C 44.799299 115.868621 -18.330864 122.410579 -53.036127 114.890141 C -59.929111 113.400776 -56.520326 83.868072 -60.453958 81.233626 C -64.686398 78.385054 -82.747199 128.129483 -81.802618 123.895821 C -79.799587 114.881713 -81.57124 81.345002 -70.199004 22.726293 C -66.89296 5.677499 -62.477197 -13.486349 -56.537904 -34.79162 C -48.882822 -62.204285 -50.331974 -111.470776 -9.068929 -128.130438 Z M -9.068929 -128.130438 " stroke="#ff3131" stroke-width="3" stroke-opacity="1" stroke-miterlimit="4"/><path stroke-linecap="round" transform="matrix(0.471872, 0.00174881, -0.00174881, 0.471872, 635.060252, 341.21508)" fill-opacity="1" fill="#ffffff" fill-rule="nonzero" stroke-linejoin="round" d="M -123.326026 -45.247399 C -123.326026 -45.247399 -65.885339 34.689278 -36.088119 44.69481 C -6.506374 54.634915 78.741679 23.126708 78.741679 23.126708 C 78.741679 23.126708 95.01717 36.675755 97.894749 33.569042 C 100.549679 30.694945 87.884661 17.463646 90.283026 12.371941 C 92.377433 7.910506 106.199485 9.456973 109.333067 17.351043 C 112.46668 25.253391 120.501023 24.230231 120.501023 24.230231 C 120.501023 24.230231 123.32913 1.073895 109.771425 -0.62256 C 96.21372 -2.319014 86.608928 -2.879448 82.65735 3.045833 C 78.705804 8.979393 -18.449263 17.352761 -18.449263 17.352761 C -18.449263 17.352761 -82.839019 -54.635922 -82.839019 -54.635922 C -82.839019 -54.635922 -123.326026 -45.247399 -123.326026 -45.247399 Z M -123.326026 -45.247399 " stroke="#ff3131" stroke-width="3" stroke-opacity="1" stroke-miterlimit="4"/><path stroke-linecap="round" transform="matrix(0.471872, 0.00174881, -0.00174881, 0.471872, 585.616966, 320.031801)" fill-opacity="1" fill="#ffffff" fill-rule="nonzero" stroke-linejoin="round" d="M -39.386027 4.788874 C -39.386027 4.788874 -3.479226 46.137873 -3.479226 46.137873 C -3.479226 46.137873 39.457805 5.390716 39.457805 5.390716 C 39.457805 5.390716 -8.21482 -45.567062 -8.21482 -45.567062 " stroke="#ff3131" stroke-width="3" stroke-opacity="1" stroke-miterlimit="4"/><path stroke-linecap="round" transform="matrix(0.471856, -0.00425657, 0.00425657, 0.471856, 585.69559, 259.324987)" fill-opacity="1" fill="#ffffff" fill-rule="nonzero" stroke-linejoin="round" d="M 35.154998 -13.4185 C 48.882615 15.737974 36.914058 43.950696 36.914058 43.950696 C 21.575115 51.171896 -21.422151 51.959565 -35.149843 22.811369 C -48.885813 -6.336903 -46.828461 -29.754728 -23.267146 -40.850591 C 0.302521 -51.954656 21.419028 -42.566772 35.154998 -13.4185 Z M 35.154998 -13.4185 " stroke="#ff3131" stroke-width="3" stroke-opacity="1" stroke-miterlimit="4"/><path stroke-linecap="round" transform="matrix(0.471856, -0.00425657, 0.00425657, 0.471856, 578.63347, 254.587625)" fill-opacity="1" fill="#ff3131" fill-rule="nonzero" stroke-linejoin="round" d="M -3.543671 12.746434 C -3.543671 12.746434 2.206618 27.790639 11.853511 18.340851 C 21.500479 8.882785 30.847976 -8.674339 49.797662 -7.783167 C 49.797662 -7.783167 43.143855 -56.653124 -10.501978 -28.981939 C -49.792285 -8.722952 -39.343137 52.574131 -4.601963 56.64596 C -4.601963 56.64596 4.194692 54.266604 4.194692 54.266604 C 4.194692 54.266604 -15.322358 28.170613 -3.543671 12.746434 Z M -3.543671 12.746434 " stroke="#ff3131" stroke-width="3" stroke-opacity="1" stroke-miterlimit="4"/><path stroke-linecap="round" transform="matrix(0.471856, -0.00425657, 0.00425657, 0.471856, 605.801565, 259.945349)" fill-opacity="1" fill="#ffffff" fill-rule="nonzero" stroke-linejoin="round" d="M -8.516919 -12.295947 C -8.516919 -12.295947 -1.142889 0.784348 4.286063 2.81188 C 8.518689 4.38986 -3.291528 12.296892 -3.291528 12.296892 " stroke="#ff3131" stroke-width="3" stroke-opacity="1" stroke-miterlimit="4"/><path stroke-linecap="round" transform="matrix(0.471856, -0.00425657, 0.00425657, 0.471856, 574.636391, 264.986023)" fill-opacity="1" fill="#ffffff" fill-rule="nonzero" stroke-linejoin="round" d="M 10.697694 -1.968331 C 10.697694 -1.968331 7.345932 -14.929557 -0.489006 -6.282993 C -17.262754 12.241949 17.259112 14.929293 17.259112 14.929293 " stroke="#ff3131" stroke-width="3" stroke-opacity="1" stroke-miterlimit="4"/><path stroke-linecap="round" transform="matrix(0.471856, -0.00425657, 0.00425657, 0.471856, 560.505143, 255.942223)" fill-opacity="1" fill="#ff3131" fill-rule="nonzero" stroke-linejoin="round" d="M 17.498338 -7.369021 C 21.566953 2.295557 17.037516 13.430649 7.372938 17.499264 C -2.299918 21.567804 -13.426732 17.038442 -17.503625 7.373789 C -21.572165 -2.299067 -17.03445 -13.434084 -7.369872 -17.502699 C 2.294706 -21.571314 13.429723 -17.033599 17.498338 -7.369021 Z M 17.498338 -7.369021 " stroke="#ff3131" stroke-width="3" stroke-opacity="1" stroke-miterlimit="4"/><path stroke-linecap="round" transform="matrix(0.471856, -0.00425657, 0.00425657, 0.471856, 584.710414, 263.208112)" fill-opacity="1" fill="#ff3131" fill-rule="nonzero" stroke-linejoin="round" d="M -10.699813 -8.609094 C -10.699813 -8.609094 -10.426134 -7.745662 -9.942085 -6.342232 C -7.796566 -0.0726234 -1.418007 16.906136 4.029186 15.076059 C 10.696951 12.843068 0.252947 -16.904671 0.252947 -16.904671 C 0.252947 -16.904671 -10.699813 -8.609094 -10.699813 -8.609094 Z M -10.699813 -8.609094 " stroke="#ff3131" stroke-width="3" stroke-opacity="1" stroke-miterlimit="4"/><path stroke-linecap="round" transform="matrix(0.455795, 0.122134, -0.122134, 0.455795, 239.951783, 564.756136)" fill-opacity="1" fill="#ff8383" fill-rule="nonzero" stroke-linejoin="round" d="M 9.723399 34.772799 C 9.723399 34.772799 -10.409183 34.768271 -10.409183 34.768271 C -10.409183 34.768271 -10.002269 -26.240511 -10.002269 -26.240511 C -10.002269 -26.240511 10.12817 -26.243979 10.12817 -26.243979 C 10.12817 -26.243979 9.723399 34.772799 9.723399 34.772799 Z M 9.723399 34.772799 " stroke="#ff3131" stroke-width="3" stroke-opacity="1" stroke-miterlimit="4"/><path stroke-linecap="round" transform="matrix(0.455795, 0.122134, -0.122134, 0.455795, 243.107379, 554.802952)" fill-opacity="1" fill="#ff5757" fill-rule="nonzero" stroke-linejoin="round" d="M 25.029044 -0.00104317 C 25.030775 13.822204 13.823789 25.026876 0.000541937 25.028607 C -13.822705 25.030338 -25.027377 13.823352 -25.029108 0.000105114 C -25.03084 -13.823142 -13.823853 -25.027814 -0.000606346 -25.029545 C 13.822641 -25.031276 25.027313 -13.82429 25.029044 -0.00104317 Z M 25.029044 -0.00104317 " stroke="#ff3131" stroke-width="3" stroke-opacity="1" stroke-miterlimit="4"/><path stroke-linecap="round" transform="matrix(0.471868, 0.00257376, -0.00257376, 0.471868, 235.740592, 584.949255)" fill-opacity="1" fill="#ff5757" fill-rule="nonzero" stroke-linejoin="round" d="M 31.670112 9.537592 C 31.670112 9.537592 -31.666934 9.53537 -31.666934 9.53537 C -36.931892 9.539252 -41.201951 5.266122 -41.205834 0.00116378 C -41.201483 -5.272117 -36.936585 -9.533853 -31.671627 -9.537736 C -31.671627 -9.537736 31.665419 -9.535514 31.665419 -9.535514 C 36.938655 -9.539441 41.208714 -5.26631 41.204319 -0.00130735 C 41.208201 5.26365 36.93507 9.53371 31.670112 9.537592 Z M 31.670112 9.537592 " stroke="#ff3131" stroke-width="3" stroke-opacity="1" stroke-miterlimit="4"/><path stroke-linecap="round" transform="matrix(0.471868, 0.00257376, -0.00257376, 0.471868, 237.411452, 567.389631)" fill-opacity="1" fill="#ffffff" fill-rule="nonzero" stroke-linejoin="round" d="M 10.224976 -23.539114 C 10.224976 -23.539114 -6.8149 -5.912799 13.924134 6.590164 C 13.924134 6.590164 29.077533 24.049163 29.077533 24.049163 C 29.077533 24.049163 -29.074099 17.048356 -29.074099 17.048356 C -29.074099 17.048356 -15.73847 -24.051482 -15.73847 -24.051482 C -15.73847 -24.051482 10.224976 -23.539114 10.224976 -23.539114 Z M 10.224976 -23.539114 " stroke="#ff3131" stroke-width="3" stroke-opacity="1" stroke-miterlimit="4"/><path stroke-linecap="round" transform="matrix(0.471868, 0.00257376, -0.00257376, 0.471868, 239.691745, 574.629951)" fill-opacity="1" fill="#ffffff" fill-rule="nonzero" stroke-linejoin="round" d="M -34.369075 -14.624575 C -34.369075 -14.624575 -48.315094 11.701883 -48.315094 11.701883 C -48.315094 11.701883 39.162171 14.883742 39.162171 14.883742 C 39.162171 14.883742 48.312322 6.265825 38.386869 -1.287766 C 38.386869 -1.287766 6.333781 -14.879697 6.333781 -14.879697 C 6.333781 -14.879697 -14.843693 10.616985 -34.369075 -14.624575 Z M -34.369075 -14.624575 " stroke="#ff3131" stroke-width="3" stroke-opacity="1" stroke-miterlimit="4"/><path stroke-linecap="round" transform="matrix(0.471868, 0.00257376, -0.00257376, 0.471868, 224.329811, 583.942719)" fill-opacity="1" fill="#ff5757" fill-rule="nonzero" stroke-linejoin="round" d="M 59.420164 9.532536 C 59.420164 9.532536 -3.916837 9.538592 -3.916837 9.538592 C -9.18184 9.534196 -13.451854 5.269343 -13.455782 -0.00389248 C -13.451386 -5.268895 -9.186533 -9.538909 -3.92153 -9.534514 C -3.92153 -9.534514 59.415516 -9.532292 59.415516 -9.532292 C 64.688752 -9.536219 68.958811 -5.263089 68.954415 0.00191441 C 68.958298 5.266872 64.685167 9.536931 59.420164 9.532536 Z M 59.420164 9.532536 " stroke="#ff3131" stroke-width="3" stroke-opacity="1" stroke-miterlimit="4"/><path stroke-linecap="round" transform="matrix(0.471868, 0.00257376, -0.00257376, 0.471868, 237.137936, 567.966663)" fill-opacity="1" fill="#ffffff" fill-rule="nonzero" stroke-linejoin="round" d="M 10.225155 -23.536799 C 10.225155 -23.536799 -6.814721 -5.910483 13.924313 6.59248 C 13.924313 6.59248 29.077712 24.051478 29.077712 24.051478 C 29.077712 24.051478 -29.07392 17.050671 -29.07392 17.050671 C -29.07392 17.050671 -15.738291 -24.049167 -15.738291 -24.049167 C -15.738291 -24.049167 10.225155 -23.536799 10.225155 -23.536799 Z M 10.225155 -23.536799 " stroke="#ff3131" stroke-width="3" stroke-opacity="1" stroke-miterlimit="4"/><path stroke-linecap="round" transform="matrix(0.471868, 0.00257376, -0.00257376, 0.471868, 239.4182, 575.207463)" fill-opacity="1" fill="#ff5757" fill-rule="nonzero" stroke-linejoin="round" d="M -34.368841 -14.623277 C -34.368841 -14.623277 -48.314905 11.694903 -48.314905 11.694903 C -48.314905 11.694903 39.162405 14.88504 39.162405 14.88504 C 39.162405 14.88504 48.312511 6.258845 38.387103 -1.286469 C 38.387103 -1.286469 6.334015 -14.878399 6.334015 -14.878399 C 6.334015 -14.878399 -14.843458 10.618283 -34.368841 -14.623277 Z M -34.368841 -14.623277 " stroke="#ff3131" stroke-width="3" stroke-opacity="1" stroke-miterlimit="4"/><path stroke-linecap="round" transform="matrix(0.471875, 0, 0, 0.471875, 200.768842, 409.220567)" fill-opacity="1" fill="#ff8383" fill-rule="nonzero" stroke-linejoin="round" d="M -46.033309 -61.535309 C -46.033309 -61.535309 -79.592912 5.054096 -47.705494 36.593831 C -34.592911 49.557408 -14.41907 61.535885 29.943514 52.777606 C 79.587554 42.98456 65.092521 -38.679349 65.092521 -38.679349 C 65.092521 -38.679349 -46.033309 -61.535309 -46.033309 -61.535309 Z M -46.033309 -61.535309 " stroke="#ff3131" stroke-width="3" stroke-opacity="1" stroke-miterlimit="4"/><path stroke-linecap="round" transform="matrix(0.470079, 0.0411266, -0.0411266, 0.470079, 247.330479, 428.753974)" fill-opacity="1" fill="#ff8383" fill-rule="nonzero" stroke-linejoin="round" d="M -93.541974 21.155263 C -93.541974 21.155263 32.152936 86.707954 32.152936 86.707954 C 32.152936 86.707954 86.641369 57.468571 86.641369 57.468571 C 66.187219 13.163801 -39.935725 -53.785443 -39.935725 -53.785443 " stroke="#ff3131" stroke-width="3" stroke-opacity="1" stroke-miterlimit="4"/><path stroke-linecap="round" transform="matrix(0.471868, 0.00257376, -0.00257376, 0.471868, 261.020995, 501.406339)" fill-opacity="1" fill="#ff8383" fill-rule="nonzero" stroke-linejoin="round" d="M 48.721697 -94.298791 C 74.312747 -55.820251 -41.57943 128.481821 -41.57943 128.481821 C -41.57943 128.481821 -69.130133 123.814141 -69.130133 123.814141 C -69.130133 123.814141 -12.751022 -68.184965 -12.751022 -68.184965 " stroke="#ff3131" stroke-width="3" stroke-opacity="1" stroke-miterlimit="4"/><path stroke-linecap="round" transform="matrix(0.471871, 0.00192694, -0.00192694, 0.471871, 244.884205, 295.958444)" fill-opacity="1" fill="#ffffff" fill-rule="nonzero" stroke-linejoin="round" d="M 44.809256 -27.835216 C 21.710844 2.03585 27.347669 -0.147783 27.347669 -0.147783 C 27.347669 -0.147783 47.34381 45.491144 17.631166 51.051266 C -12.081478 56.611388 -47.341202 15.380855 -24.674574 -0.622436 C -2.00798 -16.634006 20.742868 -56.611353 20.742868 -56.611353 " stroke="#ff3131" stroke-width="3" stroke-opacity="1" stroke-miterlimit="4"/><path stroke-linecap="round" transform="matrix(0.471871, 0.00192694, -0.00192694, 0.471871, 219.407205, 347.092445)" fill-opacity="1" fill="#ffffff" fill-rule="nonzero" stroke-linejoin="round" d="M -70.128499 109.048336 C -35.693743 116.515398 18.930761 119.727792 23.245466 103.940172 C 24.362864 99.846171 25.661939 95.643811 27.085625 91.548558 C 38.19687 59.574108 57.562474 27.839131 70.068429 -1.136023 C 99.697221 -69.800638 82.348188 -107.801303 82.348188 -107.801303 C 82.348188 -107.801303 82.23469 -93.024226 77.798684 -94.777649 C 72.898329 -96.719575 39.608215 -119.853694 39.608215 -119.853694 C -8.028441 -104.567978 -19.403171 -58.055905 -34.604237 -32.256859 C -46.418197 -12.216725 -56.335804 5.953066 -64.267015 22.003801 C -91.533541 77.206669 -95.240558 97.875955 -99.700972 106.362783 C -99.700972 106.362783 -70.128499 109.048336 -70.128499 109.048336 Z M -70.128499 109.048336 " stroke="#ff3131" stroke-width="3" stroke-opacity="1" stroke-miterlimit="4"/><path stroke-linecap="round" transform="matrix(0.471865, -0.00299745, 0.00299745, 0.471865, 262.834824, 266.998454)" fill-opacity="1" fill="#ffffff" fill-rule="nonzero" stroke-linejoin="round" d="M 38.693137 9.446274 C 30.919859 40.713754 3.816844 55.020356 3.816844 55.020356 C -12.639319 50.933952 -46.461324 24.369233 -38.688046 -6.898246 C -30.914716 -38.174004 -14.532516 -55.023924 10.750909 -48.737363 C 36.034334 -42.450803 46.466468 -21.829483 38.693137 9.446274 Z M 38.693137 9.446274 " stroke="#ff3131" stroke-width="3" stroke-opacity="1" stroke-miterlimit="4"/><path stroke-linecap="round" transform="matrix(0.471865, -0.00299745, 0.00299745, 0.471865, 257.005215, 260.98782)" fill-opacity="1" fill="#ff3131" fill-rule="nonzero" stroke-linejoin="round" d="M 19.253264 2.499157 C -6.375027 -2.928649 -19.78341 39.685715 -19.78341 39.685715 C -19.78341 39.685715 -23.579961 41.789124 -35.72415 24.8325 C -39.835186 19.102628 -30.184842 -17.045411 -13.897314 -29.417365 C 2.390214 -41.789319 8.489739 -40.235641 14.232124 -37.194136 C 14.232124 -37.194136 39.83209 -7.759402 39.83209 -7.759402 C 39.83209 -7.759402 19.253264 2.499157 19.253264 2.499157 Z M 19.253264 2.499157 " stroke="#ff3131" stroke-width="3" stroke-opacity="1" stroke-miterlimit="4"/><path stroke-linecap="round" transform="matrix(0.471865, -0.00299745, 0.00299745, 0.471865, 277.84288, 277.66114)" fill-opacity="1" fill="#ffffff" fill-rule="nonzero" stroke-linejoin="round" d="M 4.414977 -11.853418 C 4.414977 -11.853418 1.862291 2.948547 4.794151 7.950716 C 7.079045 11.847759 -7.076689 10.51609 -7.076689 10.51609 " stroke="#ff3131" stroke-width="3" stroke-opacity="1" stroke-miterlimit="4"/><path stroke-linecap="round" transform="matrix(0.471865, -0.00299745, 0.00299745, 0.471865, 250.696954, 266.916071)" fill-opacity="1" fill="#ffffff" fill-rule="nonzero" stroke-linejoin="round" d="M 12.521191 -2.540665 C 12.521191 -2.540665 18.120113 -14.707333 6.585545 -12.951097 C -18.124314 -9.184142 6.939651 14.708996 6.939651 14.708996 " stroke="#ff3131" stroke-width="3" stroke-opacity="1" stroke-miterlimit="4"/><path stroke-linecap="round" transform="matrix(0.471865, -0.00299745, 0.00299745, 0.471865, 275.508592, 252.718954)" fill-opacity="1" fill="#ff3131" fill-rule="nonzero" stroke-linejoin="round" d="M -25.090854 -19.92015 C -25.090854 -19.92015 -2.619773 -34.843936 19.811769 -3.144514 C 24.184862 3.034052 25.089048 30.109879 13.825279 34.848027 C 13.825279 34.848027 -9.473043 14.492667 -9.473043 14.492667 C -9.473043 14.492667 -25.090854 -19.92015 -25.090854 -19.92015 Z M -25.090854 -19.92015 " stroke="#ff3131" stroke-width="3" stroke-opacity="1" stroke-miterlimit="4"/><path stroke-linecap="round" transform="matrix(0.471871, 0.00192694, -0.00192694, 0.471871, 266.071632, 341.251937)" fill-opacity="1" fill="#ffffff" fill-rule="nonzero" stroke-linejoin="round" d="M -68.326569 -27.250152 C -68.326569 -27.250152 -36.886508 53.690021 -7.093721 63.700895 C 22.491809 73.63811 74.023306 18.808011 74.023306 18.808011 C 74.023306 18.808011 90.295634 32.350947 93.17204 29.243149 C 95.834163 26.368015 83.164151 13.141497 85.56056 8.040609 C 87.653316 3.586661 101.48423 5.127877 104.612547 13.029076 C 107.74911 20.921963 115.7831 19.904047 115.7831 19.904047 C 115.7831 19.904047 118.602466 -3.253356 105.052365 -4.953004 C 91.49402 -6.64434 81.888982 -7.209427 77.939676 -1.274376 C 73.982057 4.652432 10.551369 36.35212 10.551369 36.35212 C 10.551369 36.35212 -34.84188 -43.637027 -34.84188 -43.637027 C -34.84188 -43.637027 -68.326569 -27.250152 -68.326569 -27.250152 Z M -68.326569 -27.250152 " stroke="#ff3131" stroke-width="3" stroke-opacity="1" stroke-miterlimit="4"/><path stroke-linecap="round" transform="matrix(0.471871, 0.00192694, -0.00192694, 0.471871, 216.636408, 320.050024)" fill-opacity="1" fill="#ffffff" fill-rule="nonzero" stroke-linejoin="round" d="M 13.093981 -0.689288 C 13.093981 -0.689288 42.80285 49.587167 42.80285 49.587167 C 42.80285 49.587167 80.054151 8.88007 80.054151 8.88007 C 80.054151 8.88007 60.864811 -31.770387 60.864811 -31.770387 " stroke="#ff3131" stroke-width="3" stroke-opacity="1" stroke-miterlimit="4"/></svg>