<svg xmlns="http://www.w3.org/2000/svg" xmlns:xlink="http://www.w3.org/1999/xlink" width="1080" zoomAndPan="magnify" viewBox="0 0 810 809.999993" height="1080" preserveAspectRatio="xMidYMid meet" version="1.0"><defs><clipPath id="f0a6b3296d"><path d="M 118 748 L 194 748 L 194 804.585938 L 118 804.585938 Z M 118 748 " clip-rule="nonzero"/></clipPath><clipPath id="12afa7b91a"><path d="M 118 759 L 194 759 L 194 804.585938 L 118 804.585938 Z M 118 759 " clip-rule="nonzero"/></clipPath><clipPath id="70f786b171"><path d="M 260 748 L 335 748 L 335 804.585938 L 260 804.585938 Z M 260 748 " clip-rule="nonzero"/></clipPath><clipPath id="7bf8ffdab2"><path d="M 260 759 L 335 759 L 335 804.585938 L 260 804.585938 Z M 260 759 " clip-rule="nonzero"/></clipPath></defs><path fill="#ffeba7" d="M 366.410156 413.699219 C 366.410156 492.179688 302.789062 555.804688 224.304688 555.804688 C 145.820312 555.804688 82.199219 492.179688 82.199219 413.699219 C 82.199219 335.214844 145.820312 271.59375 224.304688 271.59375 C 302.789062 271.59375 366.410156 335.214844 366.410156 413.699219 Z M 366.410156 413.699219 " fill-opacity="1" fill-rule="nonzero"/><path stroke-linecap="round" transform="matrix(0.744987, 0, 0, 0.744987, 630.159884, 567.359703)" fill-opacity="1" fill="#f4d94b" fill-rule="nonzero" stroke-linejoin="round" d="M 74.618914 10.884817 C 74.618914 10.884817 -74.618182 10.884817 -74.618182 10.884817 C -74.618182 10.884817 -74.618182 -10.880455 -74.618182 -10.880455 C -74.618182 -10.880455 74.618914 -10.880455 74.618914 -10.880455 C 74.618914 -10.880455 74.618914 10.884817 74.618914 10.884817 Z M 74.618914 10.884817 " stroke="#c29a15" stroke-width="2" stroke-opacity="1" stroke-miterlimit="4"/><path stroke-linecap="round" transform="matrix(0.744987, 0, 0, 0.744987, 632.917772, 650.679827)" fill-opacity="1" fill="#f4d94b" fill-rule="nonzero" stroke-linejoin="round" d="M 82.158794 7.172757 C 82.158794 7.172757 -82.158265 7.172757 -82.158265 7.172757 C -82.158265 7.172757 -82.158265 -7.173132 -82.158265 -7.173132 C -82.158265 -7.173132 82.158794 -7.173132 82.158794 -7.173132 C 82.158794 -7.173132 82.158794 7.172757 82.158794 7.172757 Z M 82.158794 7.172757 " stroke="#c29a15" stroke-width="2" stroke-opacity="1" stroke-miterlimit="4"/><path stroke-linecap="round" transform="matrix(0.744987, 0, 0, 0.744987, 632.172812, 700.456857)" fill-opacity="1" fill="#f4d94b" fill-rule="nonzero" stroke-linejoin="round" d="M 104.897813 7.173179 C 104.897813 7.173179 -104.895085 7.173179 -104.895085 7.173179 C -104.895085 7.173179 -104.895085 -7.17271 -104.895085 -7.17271 C -104.895085 -7.17271 104.897813 -7.17271 104.897813 -7.17271 C 104.897813 -7.17271 104.897813 7.173179 104.897813 7.173179 Z M 104.897813 7.173179 " stroke="#c29a15" stroke-width="2" stroke-opacity="1" stroke-miterlimit="4"/><path stroke-linecap="round" transform="matrix(0.744987, 0, 0, 0.744987, 631.628996, 610.401325)" fill-opacity="1" fill="#f4d94b" fill-rule="nonzero" stroke-linejoin="round" d="M 56.340004 7.174312 C 56.340004 7.174312 -56.340244 7.174312 -56.340244 7.174312 C -56.340244 7.174312 -56.340244 -7.176821 -56.340244 -7.176821 C -56.340244 -7.176821 56.340004 -7.176821 56.340004 -7.176821 C 56.340004 -7.176821 56.340004 7.174312 56.340004 7.174312 Z M 56.340004 7.174312 " stroke="#c29a15" stroke-width="2" stroke-opacity="1" stroke-miterlimit="4"/><path stroke-linecap="round" transform="matrix(0.744987, 0, 0, 0.744987, 565.128479, 680.383162)" fill-opacity="1" fill="#f4d94b" fill-rule="nonzero" stroke-linejoin="round" d="M -34.747309 140.831489 C -34.747309 140.831489 -55.804725 140.831489 -55.804725 140.831489 C -55.804725 140.831489 34.743213 -140.827183 34.743213 -140.827183 C 34.743213 -140.827183 55.800629 -140.827183 55.800629 -140.827183 C 55.800629 -140.827183 -34.747309 140.831489 -34.747309 140.831489 Z M -34.747309 140.831489 " stroke="#c29a15" stroke-width="2" stroke-opacity="1" stroke-miterlimit="4"/><path stroke-linecap="round" transform="matrix(0.744987, 0, 0, 0.744987, 698.060248, 680.383162)" fill-opacity="1" fill="#f4d94b" fill-rule="nonzero" stroke-linejoin="round" d="M 34.745662 140.831489 C 34.745662 140.831489 55.803078 140.831489 55.803078 140.831489 C 55.803078 140.831489 -34.74486 -140.827183 -34.74486 -140.827183 C -34.74486 -140.827183 -55.802276 -140.827183 -55.802276 -140.827183 C -55.802276 -140.827183 34.745662 140.831489 34.745662 140.831489 Z M 34.745662 140.831489 " stroke="#c29a15" stroke-width="2" stroke-opacity="1" stroke-miterlimit="4"/><path stroke-linecap="round" transform="matrix(0.744987, 0, 0, 0.744987, 131.303946, 567.359703)" fill-opacity="1" fill="#f4d94b" fill-rule="nonzero" stroke-linejoin="round" d="M 74.619543 10.884817 C 74.619543 10.884817 -74.617554 10.884817 -74.617554 10.884817 C -74.617554 10.884817 -74.617554 -10.880455 -74.617554 -10.880455 C -74.617554 -10.880455 74.619543 -10.880455 74.619543 -10.880455 C 74.619543 -10.880455 74.619543 10.884817 74.619543 10.884817 Z M 74.619543 10.884817 " stroke="#c29a15" stroke-width="2" stroke-opacity="1" stroke-miterlimit="4"/><path stroke-linecap="round" transform="matrix(0.744987, 0, 0, 0.744987, 134.062643, 650.679827)" fill-opacity="1" fill="#f4d94b" fill-rule="nonzero" stroke-linejoin="round" d="M 82.163581 7.172757 C 82.163581 7.172757 -82.158722 7.172757 -82.158722 7.172757 C -82.158722 7.172757 -82.158722 -7.173132 -82.158722 -7.173132 C -82.158722 -7.173132 82.163581 -7.173132 82.163581 -7.173132 C 82.163581 -7.173132 82.163581 7.172757 82.163581 7.172757 Z M 82.163581 7.172757 " stroke="#c29a15" stroke-width="2" stroke-opacity="1" stroke-miterlimit="4"/><path stroke-linecap="round" transform="matrix(0.744987, 0, 0, 0.744987, 133.316906, 700.456857)" fill-opacity="1" fill="#f4d94b" fill-rule="nonzero" stroke-linejoin="round" d="M 104.8984 7.173179 C 104.8984 7.173179 -104.894498 7.173179 -104.894498 7.173179 C -104.894498 7.173179 -104.894498 -7.17271 -104.894498 -7.17271 C -104.894498 -7.17271 104.8984 -7.17271 104.8984 -7.17271 C 104.8984 -7.17271 104.8984 7.173179 104.8984 7.173179 Z M 104.8984 7.173179 " stroke="#c29a15" stroke-width="2" stroke-opacity="1" stroke-miterlimit="4"/><path stroke-linecap="round" transform="matrix(0.744987, 0, 0, 0.744987, 132.773068, 610.401325)" fill-opacity="1" fill="#f4d94b" fill-rule="nonzero" stroke-linejoin="round" d="M 56.34062 7.174312 C 56.34062 7.174312 -56.339628 7.174312 -56.339628 7.174312 C -56.339628 7.174312 -56.339628 -7.176821 -56.339628 -7.176821 C -56.339628 -7.176821 56.34062 -7.176821 56.34062 -7.176821 C 56.34062 -7.176821 56.34062 7.174312 56.34062 7.174312 Z M 56.34062 7.174312 " stroke="#c29a15" stroke-width="2" stroke-opacity="1" stroke-miterlimit="4"/><path stroke-linecap="round" transform="matrix(0.744987, 0, 0, 0.744987, 66.27181, 680.383162)" fill-opacity="1" fill="#f4d94b" fill-rule="nonzero" stroke-linejoin="round" d="M -34.745698 140.831489 C -34.745698 140.831489 -55.803114 140.831489 -55.803114 140.831489 C -55.803114 140.831489 34.744824 -140.827183 34.744824 -140.827183 C 34.744824 -140.827183 55.80224 -140.827183 55.80224 -140.827183 C 55.80224 -140.827183 -34.745698 140.831489 -34.745698 140.831489 Z M -34.745698 140.831489 " stroke="#c29a15" stroke-width="2" stroke-opacity="1" stroke-miterlimit="4"/><path stroke-linecap="round" transform="matrix(0.744987, 0, 0, 0.744987, 199.204299, 680.383162)" fill-opacity="1" fill="#f4d94b" fill-rule="nonzero" stroke-linejoin="round" d="M 34.746307 140.831489 C 34.746307 140.831489 55.803723 140.831489 55.803723 140.831489 C 55.803723 140.831489 -34.744215 -140.827183 -34.744215 -140.827183 C -34.744215 -140.827183 -55.801631 -140.827183 -55.801631 -140.827183 C -55.801631 -140.827183 34.746307 140.831489 34.746307 140.831489 Z M 34.746307 140.831489 " stroke="#c29a15" stroke-width="2" stroke-opacity="1" stroke-miterlimit="4"/><path stroke-linecap="round" transform="matrix(0.744977, -0.00389153, 0.00389153, 0.744977, 594.95623, 237.509509)" fill-opacity="1" fill="#ffffff" fill-rule="nonzero" stroke-linejoin="miter" d="M 17.929219 24.945344 C 17.929219 24.945344 -24.115878 -6.582941 -24.115878 -6.582941 C -24.115878 -6.582941 -25.770676 -18.032798 -14.031182 -24.945266 C -14.031182 -24.945266 25.771218 5.291901 25.771218 5.291901 " stroke="#c29a15" stroke-width="2" stroke-opacity="1" stroke-miterlimit="10"/><path stroke-linecap="round" transform="matrix(0.744977, -0.00389153, 0.00389153, 0.744977, 559.711151, 208.267699)" fill-opacity="1" fill="#ffffff" fill-rule="nonzero" stroke-linejoin="miter" d="M 18.837976 25.374303 C 18.837976 25.374303 -19.650082 -18.578113 -19.650082 -18.578113 C -19.650082 -18.578113 -16.017593 -25.370382 -16.017593 -25.370382 C -16.017593 -25.370382 19.649445 8.552304 19.649445 8.552304 " stroke="#c29a15" stroke-width="2" stroke-opacity="1" stroke-miterlimit="10"/><path stroke-linecap="butt" transform="matrix(0.744981, -0.00303408, 0.00303408, 0.744981, 553.889856, 145.530202)" fill-opacity="1" fill="#ffffff" fill-rule="nonzero" stroke-linejoin="miter" d="M 1.033235 164.979451 C 1.033235 164.979451 162.883926 4.859521 3.1426 -164.980605 C 3.1426 -164.980605 -38.058466 -124.212996 -38.058466 -124.212996 C -38.058466 -124.212996 1.467028 -80.578796 -38.816744 -41.023926 C -79.384831 -1.181825 -122.005836 -41.77696 -122.005836 -41.77696 C -122.005836 -41.77696 -162.883279 -1.936119 -162.883279 -1.936119 C -162.883279 -1.936119 -118.775011 42.98041 -118.775011 42.98041 C -138.182927 62.78443 -138.254679 94.564528 -118.740944 114.437926 C -99.227208 134.311323 -67.448861 134.81303 -47.299446 115.76184 C -47.299446 115.76184 1.033235 164.979451 1.033235 164.979451 Z M 1.033235 164.979451 " stroke="#c29a15" stroke-width="5" stroke-opacity="1" stroke-miterlimit="10"/><path stroke-linecap="round" transform="matrix(0.744987, 0, 0, 0.744987, 647.240179, 342.371429)" fill-opacity="1" fill="#f4d94b" fill-rule="nonzero" stroke-linejoin="round" d="M 12.932872 -30.107941 C 12.932872 -30.107941 50.658995 15.152919 -5.099113 23.856931 C -45.121837 30.107041 -50.658846 -20.837644 -50.658846 -20.837644 C -50.658846 -20.837644 12.932872 -30.107941 12.932872 -30.107941 Z M 12.932872 -30.107941 " stroke="#c29a15" stroke-width="2" stroke-opacity="1" stroke-miterlimit="4"/><path stroke-linecap="round" transform="matrix(0.744987, 0, 0, 0.744987, 631.909844, 467.702804)" fill-opacity="1" fill="#ffffff" fill-rule="nonzero" stroke-linejoin="miter" d="M 12.22274 -97.563151 C 12.22274 -97.563151 21.849586 99.614173 21.849586 99.614173 C 21.849586 99.614173 5.516456 100.007427 5.516456 100.007427 C 5.516456 100.007427 -21.848747 -100.01181 -21.848747 -100.01181 " stroke="#c29a15" stroke-width="2" stroke-opacity="1" stroke-miterlimit="10"/><path stroke-linecap="round" transform="matrix(0.744987, 0, 0, 0.744987, 636.07286, 546.976096)" fill-opacity="1" fill="#ffffff" fill-rule="nonzero" stroke-linejoin="miter" d="M -1.21464 -11.026204 C -1.21464 -11.026204 -12.702886 0.44107 -17.621177 3.969865 C -17.621177 3.969865 4.810004 11.027455 15.936458 0.593128 C 15.936458 0.593128 17.619583 3.476987 15.83159 -9.668168 " stroke="#c29a15" stroke-width="2" stroke-opacity="1" stroke-miterlimit="10"/><path stroke-linecap="round" transform="matrix(0.744987, 0, 0, 0.744987, 633.648596, 549.604456)" fill-opacity="1" fill="#f4d94b" fill-rule="nonzero" stroke-linejoin="round" d="M 19.090936 -13.19623 C 19.090936 -13.19623 20.202533 -12.619458 22.986768 -6.390322 C 25.776246 -0.161186 24.098365 2.32942 24.098365 2.32942 C 24.098365 2.32942 26.394965 12.176489 26.394965 12.176489 C 26.394965 12.176489 21.130611 12.176489 21.130611 12.176489 C 21.130611 12.176489 18.78682 4.536883 18.78682 4.536883 C 18.78682 4.536883 12.028103 13.193704 -4.20016 12.947265 C -20.423179 12.695583 -23.931001 12.863371 -23.931001 12.863371 C -23.931001 12.863371 -26.39539 1.165389 -15.845708 0.504723 C 2.364552 -0.638333 20.816008 4.741375 19.090936 -13.19623 Z M 19.090936 -13.19623 " stroke="#c29a15" stroke-width="2" stroke-opacity="1" stroke-miterlimit="4"/><path stroke-linecap="round" transform="matrix(0.744987, 0, 0, 0.744987, 635.262284, 428.214046)" fill-opacity="1" fill="#f4d94b" fill-rule="nonzero" stroke-linejoin="round" d="M -34.077488 -130.726893 C -34.077488 -130.726893 -12.438057 130.729033 -12.438057 130.729033 C -12.438057 130.729033 25.078331 127.72982 25.078331 127.72982 C 25.078331 127.72982 5.305543 -94.091393 5.305543 -94.091393 " stroke="#c29a15" stroke-width="2" stroke-opacity="1" stroke-miterlimit="4"/><path stroke-linecap="round" transform="matrix(0.744987, -0.000593626, 0.000593626, 0.744987, 717.963831, 436.036318)" fill-opacity="1" fill="#ffffff" fill-rule="nonzero" stroke-linejoin="miter" d="M -49.242365 -35.564712 C -49.242365 -35.564712 -23.007426 -25.287751 -23.007426 -25.287751 C -23.007426 -25.287751 58.908198 22.953717 58.908198 22.953717 C 58.908198 22.953717 53.28773 35.564816 53.28773 35.564816 C 53.28773 35.564816 -40.30898 -0.982731 -40.30898 -0.982731 C -40.30898 -0.982731 -58.911281 -15.673781 -58.911281 -15.673781 " stroke="#c29a15" stroke-width="2" stroke-opacity="1" stroke-miterlimit="10"/><path stroke-linecap="round" transform="matrix(0.744987, -0.000593626, 0.000593626, 0.744987, 763.534117, 459.662277)" fill-opacity="1" fill="#ffffff" fill-rule="nonzero" stroke-linejoin="miter" d="M -9.596531 3.182726 C -9.596531 3.182726 3.761067 12.951304 8.109595 17.317263 C 8.109595 17.317263 11.205817 -5.719691 -1.061325 -15.277665 C -1.061325 -15.277665 1.50956 -17.320535 -11.208454 -13.791386 " stroke="#c29a15" stroke-width="2" stroke-opacity="1" stroke-miterlimit="10"/><path stroke-linecap="round" transform="matrix(0.744987, -0.000593626, 0.000593626, 0.744987, 767.583061, 461.397117)" fill-opacity="1" fill="#f4d94b" fill-rule="nonzero" stroke-linejoin="round" d="M -16.641516 -16.124401 C -16.641516 -16.124401 -16.263056 -17.298617 -10.576376 -20.880559 C -4.884452 -24.462497 -2.127479 -23.149455 -2.127479 -23.149455 C -2.127479 -23.149455 7.229575 -26.738959 7.229575 -26.738959 C 7.229575 -26.738959 8.143034 -21.552526 8.143034 -21.552526 C 8.143034 -21.552526 0.977913 -18.212958 0.977913 -18.212958 C 0.977913 -18.212958 10.731471 -12.720608 13.298457 3.289483 C 15.86544 19.304818 16.638728 22.734606 16.638728 22.734606 C 16.638728 22.734606 5.477621 26.7369 2.995222 16.436919 C -1.300672 -1.341569 0.832715 -20.242262 -16.641516 -16.124401 Z M -16.641516 -16.124401 " stroke="#c29a15" stroke-width="2" stroke-opacity="1" stroke-miterlimit="4"/><path stroke-linecap="round" transform="matrix(0.744987, -0.000593626, 0.000593626, 0.744987, 686.874929, 402.538154)" fill-opacity="1" fill="#f4d94b" fill-rule="nonzero" stroke-linejoin="round" d="M -74.13791 -70.093712 C -74.13791 -70.093712 -29.017099 26.719347 -29.017099 26.719347 C -29.017099 26.719347 63.821557 80.202414 63.821557 80.202414 C 63.821557 80.202414 74.140447 47.408038 74.140447 47.408038 C 74.140447 47.408038 -2.861537 -1.574076 -2.861537 -1.574076 C -2.861537 -1.574076 -28.014308 -80.202904 -28.014308 -80.202904 " stroke="#c29a15" stroke-width="2" stroke-opacity="1" stroke-miterlimit="4"/><path stroke-linecap="round" transform="matrix(0.744986, -0.00118725, 0.00118725, 0.744986, 622.538948, 248.881121)" fill-opacity="1" fill="#ffffff" fill-rule="nonzero" stroke-linejoin="miter" d="M 6.640016 -27.410061 C 6.640016 -27.410061 8.97752 -3.721957 16.789641 6.478393 C 24.596518 16.678736 0.129504 27.40966 -12.234446 20.856696 C -24.598388 14.298489 -15.641155 -3.111011 -15.641155 -3.111011 C -15.641155 -3.111011 -7.63505 -9.348369 -9.240997 -18.296147 " stroke="#c29a15" stroke-width="2" stroke-opacity="1" stroke-miterlimit="10"/><path stroke-linecap="round" transform="matrix(0.744986, -0.00118725, 0.00118725, 0.744986, 628.12514, 285.548737)" fill-opacity="1" fill="#ffffff" fill-rule="nonzero" stroke-linejoin="miter" d="M 3.739242 -56.494034 C 3.739242 -56.494034 -16.653538 -52.420961 -19.103439 -51.643601 C -21.31727 -50.939272 -15.46053 -64.022675 -15.46053 -64.022675 C -15.46053 -64.022675 -40.570813 -51.048606 -32.741914 -5.313796 C -28.580669 18.974961 -23.44747 35.473593 -24.59241 53.105279 C -25.301941 64.026123 40.724354 59.753118 38.647878 46.651829 C 37.78616 41.202576 12.411491 25.956316 26.615215 -19.722409 C 30.525861 -32.305549 22.333878 -47.618807 3.739242 -56.494034 Z M 3.739242 -56.494034 " stroke="#c29a15" stroke-width="2" stroke-opacity="1" stroke-miterlimit="10"/><path stroke-linecap="round" transform="matrix(0.744982, -0.00263833, 0.00263833, 0.744982, 596.915997, 252.790438)" fill-opacity="1" fill="#ffffff" fill-rule="nonzero" stroke-linejoin="miter" d="M 31.23005 18.434483 C 31.23005 18.434483 -28.622088 10.630057 -29.61581 -0.447551 C -31.230007 -18.432931 30.858638 0.422044 30.858638 0.422044 C 30.858638 0.422044 31.23005 18.434483 31.23005 18.434483 Z M 31.23005 18.434483 " stroke="#c29a15" stroke-width="2" stroke-opacity="1" stroke-miterlimit="10"/><path stroke-linecap="round" transform="matrix(0.744982, -0.00263833, 0.00263833, 0.744982, 606.296805, 257.37317)" fill-opacity="1" fill="#ffffff" fill-rule="nonzero" stroke-linejoin="miter" d="M 29.337555 14.646339 C 29.337555 14.646339 -22.547915 6.298594 -22.547915 6.298594 C -22.547915 6.298594 -29.33642 -3.06921 -22.15913 -14.647465 C -22.15913 -14.647465 27.136423 -6.392787 27.136423 -6.392787 " stroke="#c29a15" stroke-width="2" stroke-opacity="1" stroke-miterlimit="10"/><path stroke-linecap="round" transform="matrix(0.744982, -0.00263833, 0.00263833, 0.744982, 563.807903, 247.985516)" fill-opacity="1" fill="#ffffff" fill-rule="nonzero" stroke-linejoin="miter" d="M 27.257796 14.351842 C 27.257796 14.351842 -27.257011 -6.647084 -27.257011 -6.647084 C -27.257011 -6.647084 -27.203498 -14.354712 -27.203498 -14.354712 C -27.203498 -14.354712 20.154607 -0.915916 20.154607 -0.915916 " stroke="#c29a15" stroke-width="2" stroke-opacity="1" stroke-miterlimit="10"/><path stroke-linecap="round" transform="matrix(0.744982, -0.00263833, 0.00263833, 0.744982, 537.018192, 239.410921)" fill-opacity="1" fill="#ffffff" fill-rule="nonzero" stroke-linejoin="miter" d="M 15.092333 -1.478654 C 15.092333 -1.478654 0.685426 -7.963343 0.685426 -7.963343 C 0.685426 -7.963343 -15.094708 -4.238727 -15.094708 -4.238727 C -15.094708 -4.238727 -3.439881 7.967266 14.900016 5.447214 " stroke="#c29a15" stroke-width="2" stroke-opacity="1" stroke-miterlimit="10"/><path stroke-linecap="round" transform="matrix(0.744984, -0.00211067, 0.00211067, 0.744984, 623.382164, 219.286298)" fill-opacity="1" fill="#ffffff" fill-rule="nonzero" stroke-linejoin="round" d="M -16.695703 -6.844282 C -23.07842 6.639393 -18.626352 21.296827 -18.626352 21.296827 C -11.531063 24.656976 10.313382 24.503885 16.696099 11.02021 C 23.084045 -2.458207 21.277243 -14.329144 10.375112 -19.493321 C -0.521775 -24.657484 -10.307742 -20.327943 -16.695703 -6.844282 Z M -16.695703 -6.844282 " stroke="#c29a15" stroke-width="2" stroke-opacity="1" stroke-miterlimit="4"/><path stroke-linecap="round" transform="matrix(0.744984, -0.00211067, 0.00211067, 0.744984, 608.137413, 220.071499)" fill-opacity="1" fill="#ffffff" fill-rule="nonzero" stroke-linejoin="round" d="M 3.597831 -6.183856 C 3.597831 -6.183856 0.877536 0.855569 -1.636693 1.787014 C -3.599789 2.515529 1.858681 6.185644 1.858681 6.185644 " stroke="#c29a15" stroke-width="2" stroke-opacity="1" stroke-miterlimit="4"/><path stroke-linecap="round" transform="matrix(0.744984, -0.00211067, 0.00211067, 0.744984, 629.137988, 222.215649)" fill-opacity="1" fill="#c29a15" fill-rule="nonzero" stroke-linejoin="miter" d="M -0.453586 -27.425355 C -0.453586 -27.425355 -18.517403 -32.871993 -24.582695 -24.085506 C -30.300529 -15.790915 -26.257529 -12.208704 -20.126201 -9.139673 C -13.994858 -6.075886 -6.260175 -6.310899 -5.91713 -1.543675 C -5.579329 3.223534 -15.882717 32.871995 -12.90085 31.59581 C -9.92421 30.314367 12.663929 30.467501 12.663929 30.467501 C 12.663929 30.467501 30.303111 -21.48658 -0.453586 -27.425355 Z M -0.453586 -27.425355 " stroke="#c29a15" stroke-width="2" stroke-opacity="1" stroke-miterlimit="10"/><path stroke-linecap="round" transform="matrix(0.744987, 0, 0, 0.744987, 157.426167, 287.36233)" fill-opacity="1" fill="#ffffff" fill-rule="nonzero" stroke-linejoin="miter" d="M -6.198193 -25.963944 C -6.198193 -25.963944 -2.627451 -17.071171 -13.439302 -8.372402 C -24.251152 0.321123 -4.425931 25.961253 9.914715 21.986771 C 24.250117 18.017532 18.555806 -8.325212 18.555806 -8.325212 C 18.555806 -8.325212 8.24732 -7.549192 11.073502 -23.997676 " stroke="#c29a15" stroke-width="2" stroke-opacity="1" stroke-miterlimit="10"/><path stroke-linecap="round" transform="matrix(0.744987, 0, 0, 0.744987, 148.151084, 377.616769)" fill-opacity="1" fill="#ffffff" fill-rule="nonzero" stroke-linejoin="round" d="M -29.230155 -24.837332 C -29.230155 -24.837332 -51.425385 29.132784 9.072739 21.708157 C 51.423524 16.506724 35.640948 -29.13166 35.640948 -29.13166 C 35.640948 -29.13166 -29.230155 -24.837332 -29.230155 -24.837332 Z M -29.230155 -24.837332 " stroke="#c29a15" stroke-width="2" stroke-opacity="1" stroke-miterlimit="4"/><path stroke-linecap="round" transform="matrix(0.744987, 0, 0, 0.744987, 162.556152, 492.008779)" fill-opacity="1" fill="#ffffff" fill-rule="nonzero" stroke-linejoin="miter" d="M 8.733506 -75.364406 C 8.733506 -75.364406 6.342524 68.28849 6.342524 68.28849 C 6.342524 68.28849 5.797213 75.29889 -1.055885 75.33035 C -8.050555 75.361811 -8.113476 68.770881 -8.113476 68.770881 C -8.113476 68.770881 -8.737438 -74.436328 -8.737438 -74.436328 C -8.737438 -74.436328 8.733506 -75.364406 8.733506 -75.364406 Z M 8.733506 -75.364406 " stroke="#c29a15" stroke-width="2" stroke-opacity="1" stroke-miterlimit="10"/><path stroke-linecap="round" transform="matrix(0.744987, 0, 0, 0.744987, 172.184366, 550.248088)" fill-opacity="1" fill="#f4d94b" fill-rule="nonzero" stroke-linejoin="miter" d="M -20.985045 -10.573332 C -20.985045 -10.573332 -23.785011 11.055612 -23.785011 11.055612 C -23.785011 11.055612 21.077353 11.055612 21.077353 11.055612 C 21.077353 11.055612 23.782937 5.660174 21.50731 3.977048 C 19.22644 2.293923 -6.009951 -11.055723 -6.009951 -11.055723 C -6.009951 -11.055723 -6.555262 -6.252787 -13.990376 -5.49774 C -20.764823 -4.816101 -20.985045 -10.573332 -20.985045 -10.573332 Z M -20.985045 -10.573332 " stroke="#c29a15" stroke-width="2" stroke-opacity="1" stroke-miterlimit="10"/><path stroke-linecap="round" transform="matrix(0.744987, 0, 0, 0.744987, 171.747796, 544.572761)" fill-opacity="1" fill="#f4d94b" fill-rule="nonzero" stroke-linejoin="miter" d="M -5.995469 -2.268426 C -5.995469 -2.268426 -5.214206 -5.970253 -5.214206 -5.970253 C -5.214206 -5.970253 6.436586 -0.0819368 6.541453 2.943494 C 6.651564 5.968924 -6.650892 2.419156 -5.995469 -2.268426 Z M -5.995469 -2.268426 " stroke="#c29a15" stroke-width="2" stroke-opacity="1" stroke-miterlimit="10"/><path stroke-linecap="round" transform="matrix(0.744987, 0, 0, 0.744987, 163.038158, 451.893429)" fill-opacity="1" fill="#ffffff" fill-rule="nonzero" stroke-linejoin="round" d="M 18.688622 -111.08478 C 18.688622 -111.08478 10.430297 111.087739 10.430297 111.087739 C 10.430297 111.087739 -11.801636 111.087739 -11.801636 111.087739 C -11.801636 111.087739 -18.691438 -79.960074 -18.691438 -79.960074 " stroke="#c29a15" stroke-width="2" stroke-opacity="1" stroke-miterlimit="4"/><path stroke-linecap="round" transform="matrix(0.744987, 0, 0, 0.744987, 122.400612, 492.424459)" fill-opacity="1" fill="#ffffff" fill-rule="nonzero" stroke-linejoin="miter" d="M -1.418631 -75.366577 C -1.418631 -75.366577 -18.674597 68.291562 -18.674597 68.291562 C -18.674597 68.291562 -19.08358 75.296719 -12.240969 75.328179 C -5.251542 75.364883 -4.28676 68.773953 -4.28676 68.773953 C -4.28676 68.773953 19.082987 -74.438499 19.082987 -74.438499 C 19.082987 -74.438499 -1.418631 -75.366577 -1.418631 -75.366577 Z M -1.418631 -75.366577 " stroke="#c29a15" stroke-width="2" stroke-opacity="1" stroke-miterlimit="10"/><path stroke-linecap="round" transform="matrix(0.744987, 0, 0, 0.744987, 101.786079, 550.663816)" fill-opacity="1" fill="#f4d94b" fill-rule="nonzero" stroke-linejoin="miter" d="M 23.494349 -10.575568 C 23.494349 -10.575568 23.337048 11.053377 23.337048 11.053377 C 23.337048 11.053377 -21.525316 11.053377 -21.525316 11.053377 C -21.525316 11.053377 -23.491584 5.663181 -20.985248 3.980056 C -18.478912 2.291688 8.582175 -11.052716 8.582175 -11.052716 C 8.582175 -11.052716 8.472064 -6.249779 15.807553 -5.499976 C 22.48762 -4.813093 23.494349 -10.575568 23.494349 -10.575568 Z M 23.494349 -10.575568 " stroke="#c29a15" stroke-width="2" stroke-opacity="1" stroke-miterlimit="10"/><path stroke-linecap="round" transform="matrix(0.744987, 0, 0, 0.744987, 103.363966, 544.989257)" fill-opacity="1" fill="#f4d94b" fill-rule="nonzero" stroke-linejoin="miter" d="M 6.878396 -2.26645 C 6.878396 -2.26645 6.60574 -5.968276 6.60574 -5.968276 C 6.60574 -5.968276 -5.852532 -0.0852033 -6.371627 2.940227 C -6.890722 5.970901 6.894126 2.421133 6.878396 -2.26645 Z M 6.878396 -2.26645 " stroke="#c29a15" stroke-width="2" stroke-opacity="1" stroke-miterlimit="10"/><path stroke-linecap="round" transform="matrix(0.744987, 0, 0, 0.744987, 127.601363, 451.324269)" fill-opacity="1" fill="#ffffff" fill-rule="nonzero" stroke-linejoin="round" d="M 28.875564 -79.196087 C 28.875564 -79.196087 -6.648339 112.407524 -6.648339 112.407524 C -6.648339 112.407524 -28.880273 112.407524 -28.880273 112.407524 C -28.880273 112.407524 -4.592934 -112.407659 -4.592934 -112.407659 " stroke="#c29a15" stroke-width="2" stroke-opacity="1" stroke-miterlimit="4"/><path stroke-linecap="round" transform="matrix(0.744987, 0, 0, 0.744987, 158.364855, 252.791959)" fill-opacity="1" fill="#ffffff" fill-rule="nonzero" stroke-linejoin="round" d="M 18.73773 -2.242812 C 21.306986 12.915801 12.251668 22.007823 12.251668 22.007823 C 4.145402 23.905927 -16.167454 23.94263 -18.741954 8.784017 C -21.311211 -6.374596 -16.088804 -18.114525 -3.635775 -21.024601 C 8.817254 -23.945164 16.168473 -17.401425 18.73773 -2.242812 Z M 18.73773 -2.242812 " stroke="#c29a15" stroke-width="2" stroke-opacity="1" stroke-miterlimit="4"/><path stroke-linecap="round" transform="matrix(0.744987, 0, 0, 0.744987, 165.166577, 253.436374)" fill-opacity="1" fill="#ffffff" fill-rule="nonzero" stroke-linejoin="round" d="M -1.487252 -6.505523 C -1.487252 -6.505523 -0.758422 1.27041 1.506719 2.770017 C 3.273738 3.939291 -3.275244 6.508547 -3.275244 6.508547 " stroke="#c29a15" stroke-width="2" stroke-opacity="1" stroke-miterlimit="4"/><path stroke-linecap="round" transform="matrix(0.744987, 0, 0, 0.744987, 156.495684, 251.384686)" fill-opacity="1" fill="#c29a15" fill-rule="nonzero" stroke-linejoin="miter" d="M -9.133419 -4.779234 C -9.133419 -4.779234 -9.799329 4.994427 -9.799329 4.994427 C -9.799329 4.994427 -5.059313 4.994427 -5.059313 4.994427 C -5.059313 4.994427 -5.541704 -4.344034 -5.541704 -4.344034 C -5.541704 -4.344034 6.366013 -15.108694 19.28046 -8.003913 C 19.28046 -8.003913 22.379297 -4.045161 25.158289 -9.09978 C 27.937281 -14.154398 27.87436 -19.817249 27.87436 -19.817249 C 27.87436 -19.817249 15.57339 -20.67192 9.286576 -24.043414 C 2.999763 -27.414908 -27.936182 -21.904115 -20.632153 2.755504 C -13.333367 27.415122 -13.511642 20.44667 -13.511642 20.44667 C -13.511642 20.44667 -9.133419 -4.779234 -9.133419 -4.779234 Z M -9.133419 -4.779234 " stroke="#c29a15" stroke-width="2" stroke-opacity="1" stroke-miterlimit="10"/><path stroke-linecap="round" transform="matrix(0.744987, 0, 0, 0.744987, 146.524023, 255.420271)" fill-opacity="1" fill="#ffffff" fill-rule="nonzero" stroke-linejoin="miter" d="M 3.160972 -4.800784 C 3.160972 -4.800784 -4.232194 -8.623208 -3.204492 0.00215286 C -2.176789 8.62227 4.230622 7.972091 4.230622 7.972091 " stroke="#c29a15" stroke-width="2" stroke-opacity="1" stroke-miterlimit="10"/><path stroke-linecap="round" transform="matrix(0.744987, 0, 0, 0.744987, 208.387757, 227.469119)" fill-opacity="1" fill="#ffffff" fill-rule="nonzero" stroke-linejoin="round" d="M -3.771384 30.306244 C 10.537801 18.513881 9.987246 -18.829475 9.987246 -18.829475 C 9.987246 -18.829475 12.991703 -26.11253 12.991703 -26.11253 C 12.991703 -26.11253 4.853977 -30.307235 4.853977 -30.307235 C 4.853977 -30.307235 1.84952 -24.806928 -0.0957745 -19.500627 C -4.647029 -7.094789 -12.994491 13.621807 -11.363799 20.632207 " stroke="#c29a15" stroke-width="2" stroke-opacity="1" stroke-miterlimit="4"/><path stroke-linecap="round" transform="matrix(0.744987, 0, 0, 0.744987, 152.447427, 281.357759)" fill-opacity="1" fill="#ffffff" fill-rule="nonzero" stroke-linejoin="round" d="M -7.626714 -1.958855 C -7.626714 -1.958855 -2.912915 -10.825411 -2.912915 -10.825411 C -2.912915 -10.825411 4.144676 -3.33262 4.144676 -3.33262 C 4.144676 -3.33262 7.62628 10.824507 7.62628 10.824507 C 7.62628 10.824507 -7.626714 -1.958855 -7.626714 -1.958855 Z M -7.626714 -1.958855 " stroke="#c29a15" stroke-width="2" stroke-opacity="1" stroke-miterlimit="4"/><path stroke-linecap="round" transform="matrix(0.744987, 0, 0, 0.744987, 164.388818, 281.657994)" fill-opacity="1" fill="#ffffff" fill-rule="nonzero" stroke-linejoin="round" d="M 8.402321 -1.554381 C 8.402321 -1.554381 4.904986 -10.420938 4.904986 -10.420938 C 4.904986 -10.420938 -3.175064 -2.928147 -3.175064 -2.928147 C -3.175064 -2.928147 -8.402714 10.4215 -8.402714 10.4215 C -8.402714 10.4215 8.402321 -1.554381 8.402321 -1.554381 Z M 8.402321 -1.554381 " stroke="#c29a15" stroke-width="2" stroke-opacity="1" stroke-miterlimit="4"/><path stroke-linecap="round" transform="matrix(0.744987, 0, 0, 0.744987, 152.951041, 324.301028)" fill-opacity="1" fill="#f4d94b" fill-rule="nonzero" stroke-linejoin="round" d="M 33.686274 -17.670524 C 33.686274 -17.670524 30.896796 49.764593 30.896796 49.764593 C 32.490784 60.864829 -37.702351 60.330004 -36.595998 46.92268 C -36.595998 46.92268 -26.79612 -21.314674 -26.79612 -21.314674 C -25.658306 -29.562511 -31.394565 -42.225275 -26.880014 -50.378732 C -24.17443 -55.276049 -15.601503 -55.312753 -5.749191 -60.865493 C -5.749191 -60.865493 4.449185 -48.805718 7.034171 -48.082131 C 9.377962 -47.426709 21.930615 -60.005579 21.930615 -60.005579 C 21.930615 -60.005579 34.163422 -58.941172 37.702704 -48.915829 C 37.702704 -48.915829 33.686274 -17.670524 33.686274 -17.670524 Z M 33.686274 -17.670524 " stroke="#c29a15" stroke-width="2" stroke-opacity="1" stroke-miterlimit="4"/><path stroke-linecap="round" transform="matrix(0.744987, 0, 0, 0.744987, 125.352991, 230.58764)" fill-opacity="1" fill="#ffffff" fill-rule="nonzero" stroke-linejoin="round" d="M -16.403211 27.651303 C -18.41667 9.656021 8.324571 -20.011026 8.324571 -20.011026 C 8.324571 -20.011026 11.297568 -27.650631 11.297568 -27.650631 C 11.297568 -27.650631 17.096747 -20.755586 17.096747 -20.755586 C 17.096747 -20.755586 18.418079 -19.969079 16.079531 -14.552667 C 10.610685 -1.868929 2.022028 19.739042 -4.096997 24.400407 " stroke="#c29a15" stroke-width="2" stroke-opacity="1" stroke-miterlimit="4"/><path stroke-linecap="round" transform="matrix(0.744987, 0, 0, 0.744987, 138.130266, 207.475147)" fill-opacity="1" fill="#ffffff" fill-rule="nonzero" stroke-linejoin="round" d="M -7.195743 6.818294 C -7.195743 6.818294 -0.714925 -9.142556 -0.714925 -9.142556 C -0.714925 -9.142556 7.192093 -5.241481 7.192093 -5.241481 C 7.192093 -5.241481 4.088011 6.110438 -3.352346 9.146355 " stroke="#c29a15" stroke-width="2" stroke-opacity="1" stroke-miterlimit="4"/><path stroke-linecap="round" transform="matrix(0.744987, 0, 0, 0.744987, 118.924502, 246.99745)" fill-opacity="1" fill="#ffffff" fill-rule="nonzero" stroke-linejoin="round" d="M -14.181628 -0.00182047 C -14.181628 -0.00182047 -11.229604 9.331397 -11.229604 9.331397 C -11.229604 9.331397 10.273499 1.109776 10.273499 1.109776 C 10.273499 1.109776 14.185061 -9.335038 14.185061 -9.335038 C 14.185061 -9.335038 -14.181628 -0.00182047 -14.181628 -0.00182047 Z M -14.181628 -0.00182047 " stroke="#c29a15" stroke-width="2" stroke-opacity="1" stroke-miterlimit="4"/><path stroke-linecap="round" transform="matrix(0.744987, 0, 0, 0.744987, 129.443728, 278.496246)" fill-opacity="1" fill="#f4d94b" fill-rule="nonzero" stroke-linejoin="round" d="M 25.348628 3.528591 C 14.678349 -8.489237 -3.851758 -41.171228 -3.851758 -41.171228 C -3.851758 -41.171228 -25.349618 -32.949608 -25.349618 -32.949608 C -25.349618 -32.949608 5.297941 37.17012 5.297941 37.17012 " stroke="#c29a15" stroke-width="2" stroke-opacity="1" stroke-miterlimit="4"/><path stroke-linecap="round" transform="matrix(0.744987, 0, 0, 0.744987, 205.030834, 247.569617)" fill-opacity="1" fill="#ffffff" fill-rule="nonzero" stroke-linejoin="round" d="M 12.810137 4.630838 C 12.810137 4.630838 7.566757 10.115414 7.566757 10.115414 C 7.566757 10.115414 -12.80902 1.88855 -12.80902 1.88855 C -12.80902 1.88855 -6.983624 -10.113548 -6.983624 -10.113548 C -6.983624 -10.113548 6.586244 -2.484429 12.810137 4.630838 Z M 12.810137 4.630838 " stroke="#c29a15" stroke-width="2" stroke-opacity="1" stroke-miterlimit="4"/><path stroke-linecap="round" transform="matrix(0.744987, 0, 0, 0.744987, 190.658548, 278.700388)" fill-opacity="1" fill="#f4d94b" fill-rule="nonzero" stroke-linejoin="round" d="M -26.854436 2.415629 C -26.854436 2.415629 6.482978 -39.898451 6.482978 -39.898451 C 6.482978 -39.898451 26.858754 -31.671587 26.858754 -31.671587 C 26.858754 -31.671587 -17.982636 39.895313 -17.982636 39.895313 " stroke="#c29a15" stroke-width="2" stroke-opacity="1" stroke-miterlimit="4"/><path stroke-linecap="butt" transform="matrix(0.744987, 0, 0, 0.744987, 206.011239, 136.682766)" fill-opacity="1" fill="#ffffff" fill-rule="nonzero" stroke-linejoin="miter" d="M 80.187663 -103.513707 C 80.119499 -103.492733 80.046091 -103.47176 79.977927 -103.450786 C 79.977927 -103.450786 66.203567 -159.75945 66.203567 -159.75945 C -159.031087 -99.486791 -105.747854 121.862518 -105.747854 121.862518 C -105.747854 121.862518 -52.658626 108.874664 -52.658626 108.874664 C -44.94037 140.434572 -13.09732 159.756429 18.462587 152.038173 C 50.022494 144.319917 69.344352 112.476867 61.626096 80.916959 C 61.626096 80.916959 121.500258 66.272198 121.500258 66.272198 C 121.500258 66.272198 107.935632 10.818205 107.935632 10.818205 C 108.003796 10.802475 108.077204 10.791988 108.145368 10.771015 C 139.705275 3.052759 159.032375 -28.790291 151.308876 -60.350199 C 143.59062 -91.904863 111.74757 -111.231963 80.187663 -103.513707 Z M 80.187663 -103.513707 " stroke="#c29a15" stroke-width="5" stroke-opacity="1" stroke-miterlimit="10"/><path stroke-linecap="round" transform="matrix(0.744985, 0.00151704, -0.00151704, 0.744985, 245.895958, 513.329754)" fill-opacity="1" fill="#ffffff" fill-rule="nonzero" stroke-linejoin="miter" d="M -13.947319 -1.583507 C -13.947319 -1.583507 7.972172 -15.995036 7.972172 -15.995036 C 7.972172 -15.995036 15.711512 -5.649853 15.711512 -5.649853 C 15.711512 -5.649853 -7.215713 15.994365 -7.215713 15.994365 C -7.215713 15.994365 -15.712845 14.601196 -13.947319 -1.583507 Z M -13.947319 -1.583507 " stroke="#c29a15" stroke-width="2" stroke-opacity="1" stroke-miterlimit="10"/><path stroke-linecap="round" transform="matrix(0.744985, 0.00151704, -0.00151704, 0.744985, 231.792618, 527.952713)" fill-opacity="1" fill="#ffeba7" fill-rule="nonzero" stroke-linejoin="miter" d="M -20.73006 -6.820834 C -20.73006 -6.820834 4.943663 -21.250495 4.943663 -21.250495 C 4.943663 -21.250495 20.72682 -0.382475 20.72682 -0.382475 C 20.72682 -0.382475 -9.840049 21.251084 -9.840049 21.251084 " stroke="#c29a15" stroke-width="2" stroke-opacity="1" stroke-miterlimit="10"/><path stroke-linecap="round" transform="matrix(0.744985, 0.00151704, -0.00151704, 0.744985, 266.864344, 496.905235)" fill-opacity="1" fill="#ffffff" fill-rule="nonzero" stroke-linejoin="miter" d="M -20.338644 6.083166 C -20.338644 6.083166 18.484526 -19.127468 18.484526 -19.127468 C 18.484526 -19.127468 31.803084 -26.6841 36.252099 -25.398042 C 40.260415 -24.236928 38.218787 -17.468795 35.698242 -14.144595 C 32.571088 -10.022164 20.334387 -11.921571 20.334387 -11.921571 C 20.334387 -11.921571 -0.146002 19.12431 -17.486564 18.797827 " stroke="#c29a15" stroke-width="2" stroke-opacity="1" stroke-miterlimit="10"/><path stroke-linecap="round" transform="matrix(0.744985, 0.00151704, -0.00151704, 0.744985, 211.006913, 521.999706)" fill-opacity="1" fill="#ffffff" fill-rule="nonzero" stroke-linejoin="miter" d="M -3.083839 -26.69792 C -3.083839 -26.69792 -7.1747 -4.022407 -15.503375 5.212436 C -23.826795 14.452512 -1.045531 26.701875 11.39135 21.333533 C 23.82823 15.965191 10.573039 -2.008381 10.573039 -2.008381 C 10.573039 -2.008381 4.387208 -1.335117 11.534172 -16.676105 " stroke="#c29a15" stroke-width="2" stroke-opacity="1" stroke-miterlimit="10"/><path stroke-linecap="round" transform="matrix(0.744987, 0, 0, 0.744987, 223.992239, 619.700269)" fill-opacity="1" fill="#f4d94b" fill-rule="nonzero" stroke-linejoin="miter" d="M -43.598779 -22.773411 C -43.598779 -22.773411 -32.435622 43.717897 12.290414 9.992474 C 43.598639 -13.618469 15.446929 -43.720716 15.446929 -43.720716 C 15.446929 -43.720716 -43.598779 -22.773411 -43.598779 -22.773411 Z M -43.598779 -22.773411 " stroke="#c29a15" stroke-width="2" stroke-opacity="1" stroke-miterlimit="10"/><path stroke-linecap="round" transform="matrix(0.744987, 0, 0, 0.744987, 280.278241, 742.985959)" fill-opacity="1" fill="#ffffff" fill-rule="nonzero" stroke-linejoin="miter" d="M -3.582434 -42.667513 C -3.582434 -42.667513 20.967074 36.187687 20.967074 36.187687 C 20.967074 36.187687 19.262975 42.668505 12.913241 42.642288 C 6.42718 42.621315 7.491586 36.51802 7.491586 36.51802 C 7.491586 36.51802 -20.96424 -37.235371 -20.96424 -37.235371 C -20.96424 -37.235371 -3.582434 -42.667513 -3.582434 -42.667513 Z M -3.582434 -42.667513 " stroke="#c29a15" stroke-width="2" stroke-opacity="1" stroke-miterlimit="10"/><path stroke-linecap="round" transform="matrix(0.744987, 0, 0, 0.744987, 259.697978, 682.893802)" fill-opacity="1" fill="#f4d94b" fill-rule="nonzero" stroke-linejoin="miter" d="M -51.210433 -70.475298 C -51.210433 -70.475298 29.081453 107.925481 29.081453 107.925481 C 29.081453 107.925481 51.213762 107.296275 51.213762 107.296275 C 51.213762 107.296275 -21.742634 -107.923522 -21.742634 -107.923522 " stroke="#c29a15" stroke-width="2" stroke-opacity="1" stroke-miterlimit="10"/><path stroke-linecap="round" transform="matrix(0.744987, 0, 0, 0.744987, 174.409639, 736.146199)" fill-opacity="1" fill="#ffffff" fill-rule="nonzero" stroke-linejoin="miter" d="M 41.218909 -51.848785 C 41.218909 -51.848785 -26.677625 45.368733 -26.677625 45.368733 C -26.677625 45.368733 -28.381724 51.849551 -34.731458 51.823334 C -41.222763 51.797118 -40.153113 45.699066 -40.153113 45.699066 C -40.153113 45.699066 23.082056 -51.355907 23.082056 -51.355907 C 23.082056 -51.355907 41.218909 -51.848785 41.218909 -51.848785 Z M 41.218909 -51.848785 " stroke="#c29a15" stroke-width="2" stroke-opacity="1" stroke-miterlimit="10"/><path fill="#f4d94b" d="M 144.679688 769.386719 C 144.679688 769.386719 140 784.277344 140 784.277344 C 140 784.277344 170.972656 784.546875 170.972656 784.546875 C 170.972656 784.546875 173.523438 780.84375 172.164062 779.667969 C 170.808594 778.496094 155.078125 769.144531 155.078125 769.144531 C 155.078125 769.144531 154.09375 772.453125 148.863281 772.925781 C 144.097656 773.355469 144.679688 769.386719 144.679688 769.386719 Z M 144.679688 769.386719 " fill-opacity="1" fill-rule="nonzero"/><g clip-path="url(#f0a6b3296d)"><path stroke-linecap="round" transform="matrix(0.744987, 0, 0, 0.744987, 156.76164, 776.844053)" fill="none" stroke-linejoin="miter" d="M -16.217671 -10.01002 C -16.217671 -10.01002 -22.499241 9.977747 -22.499241 9.977747 C -22.499241 9.977747 19.075523 10.33954 19.075523 10.33954 C 19.075523 10.33954 22.499451 5.368815 20.674755 3.790558 C 18.855301 2.217543 -2.259792 -10.33511 -2.259792 -10.33511 C -2.259792 -10.33511 -3.581124 -5.893966 -10.60201 -5.259517 C -16.998934 -4.682745 -16.217671 -10.01002 -16.217671 -10.01002 Z M -16.217671 -10.01002 " stroke="#c29a15" stroke-width="2" stroke-opacity="1" stroke-miterlimit="10"/></g><path stroke-linecap="round" transform="matrix(0.744987, 0, 0, 0.744987, 158.162223, 771.549485)" fill-opacity="1" fill="#f4d94b" fill-rule="nonzero" stroke-linejoin="miter" d="M -4.868631 -2.15329 C -4.868631 -2.15329 -3.515839 -5.571974 -3.515839 -5.571974 C -3.515839 -5.571974 6.273553 -0.0349639 5.859326 2.770245 C 5.445098 5.57021 -6.273857 2.182986 -4.868631 -2.15329 Z M -4.868631 -2.15329 " stroke="#c29a15" stroke-width="2" stroke-opacity="1" stroke-miterlimit="10"/><path fill="#ffffff" d="M 141.1875 780.703125 C 141.1875 780.703125 140 784.277344 140 784.277344 C 140 784.277344 170.96875 784.546875 170.96875 784.546875 C 170.96875 784.546875 172.292969 782.128906 172.292969 782.128906 C 172.292969 782.128906 141.1875 780.703125 141.1875 780.703125 Z M 141.1875 780.703125 " fill-opacity="1" fill-rule="nonzero"/><g clip-path="url(#12afa7b91a)"><path stroke-linecap="round" transform="matrix(0.744987, 0, 0, 0.744987, 156.147036, 782.624453)" fill="none" stroke-linejoin="miter" d="M -20.080267 -2.579008 C -20.080267 -2.579008 -21.674254 2.218685 -21.674254 2.218685 C -21.674254 2.218685 19.895266 2.580478 19.895266 2.580478 C 19.895266 2.580478 21.672772 -0.665175 21.672772 -0.665175 C 21.672772 -0.665175 -20.080267 -2.579008 -20.080267 -2.579008 Z M -20.080267 -2.579008 " stroke="#c29a15" stroke-width="2" stroke-opacity="1" stroke-miterlimit="10"/></g><path fill="#f4d94b" d="M 285.171875 769.386719 C 285.171875 769.386719 281.363281 784.277344 281.363281 784.277344 C 281.363281 784.277344 312.335938 784.546875 312.335938 784.546875 C 312.335938 784.546875 314.886719 780.84375 313.527344 779.667969 C 312.171875 778.496094 296.441406 769.144531 296.441406 769.144531 C 296.441406 769.144531 295.457031 772.453125 290.226562 772.925781 C 285.464844 773.355469 285.171875 769.386719 285.171875 769.386719 Z M 285.171875 769.386719 " fill-opacity="1" fill-rule="nonzero"/><g clip-path="url(#70f786b171)"><path stroke-linecap="round" transform="matrix(0.744987, 0, 0, 0.744987, 298.125896, 776.844053)" fill="none" stroke-linejoin="miter" d="M -17.388252 -10.01002 C -17.388252 -10.01002 -22.500548 9.977747 -22.500548 9.977747 C -22.500548 9.977747 19.074216 10.33954 19.074216 10.33954 C 19.074216 10.33954 22.498143 5.368815 20.673447 3.790558 C 18.853994 2.217543 -2.261099 -10.33511 -2.261099 -10.33511 C -2.261099 -10.33511 -3.582431 -5.893966 -10.603318 -5.259517 C -16.994999 -4.682745 -17.388252 -10.01002 -17.388252 -10.01002 Z M -17.388252 -10.01002 " stroke="#c29a15" stroke-width="2" stroke-opacity="1" stroke-miterlimit="10"/></g><path stroke-linecap="round" transform="matrix(0.744987, 0, 0, 0.744987, 299.526464, 771.549485)" fill-opacity="1" fill="#f4d94b" fill-rule="nonzero" stroke-linejoin="miter" d="M -4.869919 -2.15329 C -4.869919 -2.15329 -3.517127 -5.571974 -3.517127 -5.571974 C -3.517127 -5.571974 6.277508 -0.0349639 5.858037 2.770245 C 5.44381 5.57021 -6.275145 2.182986 -4.869919 -2.15329 Z M -4.869919 -2.15329 " stroke="#c29a15" stroke-width="2" stroke-opacity="1" stroke-miterlimit="10"/><path fill="#ffffff" d="M 282.550781 780.703125 C 282.550781 780.703125 281.363281 784.277344 281.363281 784.277344 C 281.363281 784.277344 312.335938 784.546875 312.335938 784.546875 C 312.335938 784.546875 313.65625 782.128906 313.65625 782.128906 C 313.65625 782.128906 282.550781 780.703125 282.550781 780.703125 Z M 282.550781 780.703125 " fill-opacity="1" fill-rule="nonzero"/><g clip-path="url(#7bf8ffdab2)"><path stroke-linecap="round" transform="matrix(0.744987, 0, 0, 0.744987, 297.511277, 782.624453)" fill="none" stroke-linejoin="miter" d="M -20.081555 -2.579008 C -20.081555 -2.579008 -21.675543 2.218685 -21.675543 2.218685 C -21.675543 2.218685 19.899222 2.580478 19.899222 2.580478 C 19.899222 2.580478 21.671484 -0.665175 21.671484 -0.665175 C 21.671484 -0.665175 -20.081555 -2.579008 -20.081555 -2.579008 Z M -20.081555 -2.579008 " stroke="#c29a15" stroke-width="2" stroke-opacity="1" stroke-miterlimit="10"/></g><path stroke-linecap="round" transform="matrix(0.744987, 0, 0, 0.744987, 187.594417, 690.427833)" fill-opacity="1" fill="#f4d94b" fill-rule="nonzero" stroke-linejoin="miter" d="M 13.086582 -94.36263 C 13.086582 -94.36263 5.190051 8.564929 5.190051 8.564929 C 5.190051 8.564929 -53.8609 97.812509 -53.8609 97.812509 C -53.8609 97.812509 -35.661127 97.812509 -35.661127 97.812509 C -35.661127 97.812509 34.264596 17.777549 34.264596 17.777549 C 34.264596 17.777549 53.859109 -97.807531 53.859109 -97.807531 " stroke="#c29a15" stroke-width="2" stroke-opacity="1" stroke-miterlimit="10"/><path stroke-linecap="round" transform="matrix(0.744985, 0.00151704, -0.00151704, 0.744985, 214.029353, 565.154056)" fill-opacity="1" fill="#ffeba7" fill-rule="nonzero" stroke-linejoin="round" d="M -15.030917 -62.121613 C -15.030917 -62.121613 0.552046 -57.16688 3.011934 -56.804851 C 5.235807 -56.473803 5.844541 -61.377614 5.844541 -61.377614 C 5.844541 -61.377614 31.417134 -40.498068 23.23927 -6.126712 C 20.702244 4.554 24.091542 10.718571 27.921706 27.39 C 30.29176 37.709413 -30.348455 65.843096 -30.406448 52.813385 C -30.427804 47.475656 -28.733324 27.300877 -26.547156 -16.632712 C -25.912437 -29.375446 -31.419602 -50.762514 -15.030917 -62.121613 Z M -15.030917 -62.121613 " stroke="#c29a15" stroke-width="2" stroke-opacity="1" stroke-miterlimit="4"/><path stroke-linecap="round" transform="matrix(0.744986, 0.00112129, -0.00112129, 0.744986, 241.181814, 523.228122)" fill-opacity="1" fill="#ffffff" fill-rule="nonzero" stroke-linejoin="miter" d="M -27.800359 19.366874 C -27.800359 19.366874 28.241244 2.13665 28.75989 -8.613074 C 29.273284 -19.368034 -29.273684 1.992507 -29.273684 1.992507 C -29.273684 1.992507 -27.800359 19.366874 -27.800359 19.366874 Z M -27.800359 19.366874 " stroke="#c29a15" stroke-width="2" stroke-opacity="1" stroke-miterlimit="10"/><path stroke-linecap="round" transform="matrix(0.744986, 0.00112129, -0.00112129, 0.744986, 217.757585, 532.837505)" fill-opacity="1" fill="#ffeba7" fill-rule="nonzero" stroke-linejoin="miter" d="M -20.134534 17.263213 C -20.134534 17.263213 12.831503 10.869097 12.831503 10.869097 C 12.831503 10.869097 20.13509 -6.848813 12.044604 -17.260489 C 12.044604 -17.260489 -18.503593 -6.958446 -18.503593 -6.958446 " stroke="#c29a15" stroke-width="2" stroke-opacity="1" stroke-miterlimit="10"/><path stroke-linecap="round" transform="matrix(0.744983, 0.00244046, -0.00244046, 0.744983, 210.89551, 497.382643)" fill-opacity="1" fill="#ffffff" fill-rule="nonzero" stroke-linejoin="round" d="M 14.049564 -11.64946 C 23.340392 -0.59533 22.775443 14.219151 22.775443 14.219151 C 16.96081 19.114569 -3.523797 24.341187 -12.819851 13.292317 C -22.115906 2.243447 -23.344021 -9.314246 -14.407659 -16.831108 C -5.471281 -24.342726 4.75351 -22.69833 14.049564 -11.64946 Z M 14.049564 -11.64946 " stroke="#c29a15" stroke-width="2" stroke-opacity="1" stroke-miterlimit="4"/><path stroke-linecap="round" transform="matrix(0.744983, 0.00244046, -0.00244046, 0.744983, 206.631044, 493.330123)" fill-opacity="1" fill="#c29a15" fill-rule="nonzero" stroke-linejoin="miter" d="M 4.198364 14.790951 C 0.267191 2.408411 7.023447 -3.156005 7.023447 -3.156005 C 7.023447 -3.156005 23.756574 -5.926906 23.486377 -11.578416 C 23.486377 -11.578416 12.335259 -28.693076 -2.456133 -17.407997 C -2.456133 -17.407997 -23.756401 -11.476089 -16.9444 9.580099 C -16.9444 9.580099 -10.694567 28.692824 -0.566776 26.336817 C 9.566259 23.980792 6.609065 16.004768 6.609065 16.004768 " stroke="#c29a15" stroke-width="2" stroke-opacity="1" stroke-miterlimit="10"/><path stroke-linecap="round" transform="matrix(0.744983, 0.00244046, -0.00244046, 0.744983, 225.101551, 494.029027)" fill-opacity="1" fill="#ffffff" fill-rule="nonzero" stroke-linejoin="round" d="M -4.438448 -5.577194 C -4.438448 -5.577194 -0.161402 0.344334 2.42443 0.598034 C 4.438547 0.795929 0.228018 5.57598 0.228018 5.57598 " stroke="#c29a15" stroke-width="2" stroke-opacity="1" stroke-miterlimit="4"/><path stroke-linecap="round" transform="matrix(0.744983, 0.00244046, -0.00244046, 0.744983, 209.075326, 500.389459)" fill-opacity="1" fill="#ffffff" fill-rule="nonzero" stroke-linejoin="miter" d="M 3.595868 -4.687335 C 3.595868 -4.687335 -5.511294 -7.693435 -2.874872 0.000496219 C -0.243694 7.694444 5.508818 6.244149 5.508818 6.244149 " stroke="#c29a15" stroke-width="2" stroke-opacity="1" stroke-miterlimit="10"/><path stroke-linecap="round" transform="matrix(0.744983, 0.00244046, -0.00244046, 0.744983, 211.944031, 492.961579)" fill-opacity="1" fill="#c29a15" fill-rule="nonzero" stroke-linejoin="miter" d="M -6.066748 -0.563006 C -6.066748 -0.563006 -0.6505 10.582468 4.401047 11.237077 C 4.401047 11.237077 -0.676165 -2.054063 2.696028 -6.647849 C 6.062995 -11.236374 -6.066748 -0.563006 -6.066748 -0.563006 Z M -6.066748 -0.563006 " stroke="#c29a15" stroke-width="2" stroke-opacity="1" stroke-miterlimit="10"/><path stroke-linecap="round" transform="matrix(0.744987, 0, 0, 0.744987, 381.989838, 472.002884)" fill="none" stroke-linejoin="miter" d="M -44.864453 141.258043 C -44.864453 141.258043 23.535446 -80.95118 -19.124698 -111.105861 C -61.779599 -141.260543 -29.417454 -7.391795 16.178983 -26.037256 C 61.780663 -44.682717 58.105053 -113.423436 37.509055 -111.048184 C 16.918299 -108.667689 27.305436 70.063422 59.321518 138.804141 " stroke="#c29a15" stroke-width="5" stroke-opacity="1" stroke-miterlimit="10"/><path stroke-linecap="round" transform="matrix(0.744987, 0, 0, 0.744987, 388.566577, 617.807989)" fill-opacity="1" fill="#c29a15" fill-rule="nonzero" stroke-linejoin="miter" d="M 56.911423 0.000811868 C 56.911423 31.434878 31.433837 56.912464 -0.000228865 56.912464 C -31.434295 56.912464 -56.917124 31.434878 -56.917124 0.000811868 C -56.917124 -31.433254 -31.434295 -56.916084 -0.000228865 -56.916084 C 31.433837 -56.916084 56.911423 -31.433254 56.911423 0.000811868 Z M 56.911423 0.000811868 " stroke="#c29a15" stroke-width="5" stroke-opacity="1" stroke-miterlimit="10"/><path stroke-linecap="round" transform="matrix(0.744987, 0, 0, 0.744987, 386.862786, 577.239015)" fill-opacity="1" fill="#f4d94b" fill-rule="nonzero" stroke-linejoin="miter" d="M 73.575781 17.024272 C 73.575781 17.024272 -73.57445 17.024272 -73.57445 17.024272 C -79.772126 17.024272 -84.795284 12.001113 -84.795284 5.803437 C -84.795284 5.803437 -84.795284 -5.805407 -84.795284 -5.805407 C -84.795284 -11.997839 -79.772126 -17.026241 -73.57445 -17.026241 C -73.57445 -17.026241 73.575781 -17.026241 73.575781 -17.026241 C 79.773456 -17.026241 84.796615 -11.997839 84.796615 -5.805407 C 84.796615 -5.805407 84.796615 5.803437 84.796615 5.803437 C 84.796615 12.001113 79.773456 17.024272 73.575781 17.024272 Z M 73.575781 17.024272 " stroke="#c29a15" stroke-width="5" stroke-opacity="1" stroke-miterlimit="10"/><path stroke-linecap="round" transform="matrix(0.744987, 0, 0, 0.744987, 386.862786, 602.026934)" fill-opacity="1" fill="#f4d94b" fill-rule="nonzero" stroke-linejoin="miter" d="M 73.575781 17.025807 C 73.575781 17.025807 -73.57445 17.025807 -73.57445 17.025807 C -79.772126 17.025807 -84.795284 12.002648 -84.795284 5.804973 C -84.795284 5.804973 -84.795284 -5.803872 -84.795284 -5.803872 C -84.795284 -12.001548 -79.772126 -17.024706 -73.57445 -17.024706 C -73.57445 -17.024706 73.575781 -17.024706 73.575781 -17.024706 C 79.773456 -17.024706 84.796615 -12.001548 84.796615 -5.803872 C 84.796615 -5.803872 84.796615 5.804973 84.796615 5.804973 C 84.796615 12.002648 79.773456 17.025807 73.575781 17.025807 Z M 73.575781 17.025807 " stroke="#c29a15" stroke-width="5" stroke-opacity="1" stroke-miterlimit="10"/><path stroke-linecap="round" transform="matrix(0.744987, 0, 0, 0.744987, 386.862786, 627.39222)" fill-opacity="1" fill="#f4d94b" fill-rule="nonzero" stroke-linejoin="miter" d="M 73.575781 17.023115 C 73.575781 17.023115 -73.57445 17.023115 -73.57445 17.023115 C -79.772126 17.023115 -84.795284 11.999956 -84.795284 5.807524 C -84.795284 5.807524 -84.795284 -5.806564 -84.795284 -5.806564 C -84.795284 -11.998996 -79.772126 -17.022155 -73.57445 -17.022155 C -73.57445 -17.022155 73.575781 -17.022155 73.575781 -17.022155 C 79.773456 -17.022155 84.796615 -11.998996 84.796615 -5.806564 C 84.796615 -5.806564 84.796615 5.807524 84.796615 5.807524 C 84.796615 11.999956 79.773456 17.023115 73.575781 17.023115 Z M 73.575781 17.023115 " stroke="#c29a15" stroke-width="5" stroke-opacity="1" stroke-miterlimit="10"/><path stroke-linecap="butt" transform="matrix(0.744986, 0.00112129, -0.00112129, 0.744986, 235.439288, 435.75595)" fill-opacity="1" fill="#ffffff" fill-rule="nonzero" stroke-linejoin="miter" d="M 46.382952 -22.823611 C 36.751452 -53.776558 53.973663 -86.668029 84.863524 -96.409544 C 84.863524 -96.409544 62.676342 -167.686212 62.676342 -167.686212 C 62.676342 -167.686212 3.82068 -149.366371 3.82068 -149.366371 C 3.82068 -149.366371 19.777672 -92.719862 -34.864281 -75.711966 C -88.038776 -59.162454 -108.518686 -114.396928 -108.518686 -114.396928 C -108.518686 -114.396928 -160.697397 -98.153031 -160.697397 -98.153031 C -116.547254 31.292175 -10.843435 57.260876 -10.843435 57.260876 C 32.619157 71.30017 63.695549 91.42995 74.369578 114.81512 C 85.569697 139.36353 95.00323 167.684594 95.00323 167.684594 C 95.00323 167.684594 160.698308 147.236131 160.698308 147.236131 C 160.698308 147.236131 119.822465 15.919351 119.822465 15.919351 C 88.864101 25.435504 56.019694 8.129328 46.382952 -22.823611 Z M 46.382952 -22.823611 " stroke="#c29a15" stroke-width="5" stroke-opacity="1" stroke-miterlimit="10"/><path stroke-linecap="round" transform="matrix(0.744983, 0.00230854, -0.00230854, 0.744983, 265.20995, 503.972515)" fill-opacity="1" fill="#ffffff" fill-rule="nonzero" stroke-linejoin="miter" d="M -15.830254 14.667859 C -15.830254 14.667859 11.264241 -25.355121 11.264241 -25.355121 C 11.264241 -25.355121 15.828477 -19.48092 15.828477 -19.48092 C 15.828477 -19.48092 4.993491 18.756108 -11.041369 25.35481 " stroke="#c29a15" stroke-width="2" stroke-opacity="1" stroke-miterlimit="10"/><path stroke-linecap="round" transform="matrix(0.744983, 0.00230854, -0.00230854, 0.744983, 280.007217, 485.376476)" fill-opacity="1" fill="#ffffff" fill-rule="nonzero" stroke-linejoin="miter" d="M -11.352409 2.985235 C -11.352409 2.985235 -3.843519 -8.751801 -3.843519 -8.751801 C -3.843519 -8.751801 7.963509 -9.11348 7.963509 -9.11348 C 7.963509 -9.11348 11.354631 9.060142 -9.314707 9.113705 " stroke="#c29a15" stroke-width="2" stroke-opacity="1" stroke-miterlimit="10"/><path stroke-linecap="round" transform="matrix(0.744987, -0.000659584, 0.000659584, 0.744987, 534.642817, 480.734996)" fill-opacity="1" fill="#ffffff" fill-rule="nonzero" stroke-linejoin="miter" d="M -4.999361 -24.282122 C -4.999361 -24.282122 3.914251 -6.357591 12.369362 2.348667 C 20.819231 11.05492 3.824205 24.279415 -8.493511 19.497031 C -20.816465 14.709399 -11.118978 0.0732165 -11.118978 0.0732165 C -11.118978 0.0732165 -10.64988 -2.679144 -18.171608 -17.377763 " stroke="#c29a15" stroke-width="2" stroke-opacity="1" stroke-miterlimit="10"/><path stroke-linecap="round" transform="matrix(0.744987, 0, 0, 0.744987, 529.898761, 703.319049)" fill-opacity="1" fill="#ffffff" fill-rule="nonzero" stroke-linejoin="miter" d="M 34.050079 -88.590461 C 34.050079 -88.590461 -8.47898 10.331156 -8.47898 10.331156 C -8.47898 10.331156 -18.970985 94.933101 -18.970985 94.933101 C -18.970985 94.933101 -34.050947 95.452195 -34.050947 95.452195 C -34.050947 95.452195 -32.210521 6.576896 -32.210521 6.576896 C -32.210521 6.576896 -9.821286 -95.454046 -9.821286 -95.454046 " stroke="#c29a15" stroke-width="2" stroke-opacity="1" stroke-miterlimit="10"/><path stroke-linecap="round" transform="matrix(0.744987, 0, 0, 0.744987, 578.10835, 694.417257)" fill-opacity="1" fill="#ffffff" fill-rule="nonzero" stroke-linejoin="miter" d="M -30.661914 -99.780576 C -30.661914 -99.780576 -12.918314 18.27938 -12.918314 18.27938 C -12.918314 18.27938 15.584702 106.882024 15.584702 106.882024 C 15.584702 106.882024 30.664665 107.406362 30.664665 107.406362 C 30.664665 107.406362 12.816197 18.525819 12.816197 18.525819 C 12.816197 18.525819 9.06718 -107.404451 9.06718 -107.404451 " stroke="#c29a15" stroke-width="2" stroke-opacity="1" stroke-miterlimit="10"/><path stroke-linecap="round" transform="matrix(0.744987, 0, 0, 0.744987, 559.729535, 624.264781)" fill-opacity="1" fill="#ffeba7" fill-rule="nonzero" stroke-linejoin="miter" d="M -44.478344 -83.279479 C -44.478344 -83.279479 -71.906468 56.514289 -71.906468 56.514289 C -71.906468 56.514289 -57.801774 89.825485 47.438116 74.194968 C 70.372663 70.78677 71.908973 49.797518 71.908973 49.797518 C 55.329404 -31.773752 15.112676 -89.823218 15.112676 -89.823218 " stroke="#c29a15" stroke-width="2" stroke-opacity="1" stroke-miterlimit="10"/><path stroke-linecap="round" transform="matrix(0.744987, 0, 0, 0.744987, 505.647218, 776.552789)" fill-opacity="1" fill="#ffffff" fill-rule="nonzero" stroke-linejoin="miter" d="M -1.372129 -8.365887 C -1.372129 -8.365887 -12.047652 -1.365974 -16.63561 2.042223 C -16.63561 2.042223 4.652515 8.36574 15.008192 -1.65436 C 15.008192 -1.65436 16.638883 5.046681 14.751266 -7.343428 " stroke="#c29a15" stroke-width="2" stroke-opacity="1" stroke-miterlimit="10"/><path stroke-linecap="round" transform="matrix(0.744987, 0, 0, 0.744987, 503.156762, 779.666885)" fill-opacity="1" fill="#ffeba7" fill-rule="nonzero" stroke-linejoin="round" d="M 22.435738 -3.401499 C 21.817019 -5.755777 18.870239 -9.740746 18.870239 -9.740746 C 20.46947 -0.779809 2.489918 -3.411986 -14.69264 -2.05395 C -24.649819 -1.267443 -22.143483 9.738413 -22.143483 9.738413 C -22.143483 9.738413 -18.829667 9.528677 -3.503266 9.518191 C -3.503266 9.518191 23.07543 8.359404 23.07543 8.359404 C 23.07543 8.359404 24.648444 5.045587 22.435738 -3.401499 Z M 22.435738 -3.401499 " stroke="#c29a15" stroke-width="2" stroke-opacity="1" stroke-miterlimit="4"/><path stroke-linecap="round" transform="matrix(0.744987, 0, 0, 0.744987, 589.75099, 776.552789)" fill-opacity="1" fill="#ffffff" fill-rule="nonzero" stroke-linejoin="miter" d="M -1.369851 -8.365887 C -1.369851 -8.365887 -12.045374 -1.365974 -16.638575 2.042223 C -16.638575 2.042223 4.654793 8.36574 15.005226 -1.65436 C 15.005226 -1.65436 16.635918 5.046681 14.753544 -7.343428 " stroke="#c29a15" stroke-width="2" stroke-opacity="1" stroke-miterlimit="10"/><path stroke-linecap="round" transform="matrix(0.744987, 0, 0, 0.744987, 587.260582, 779.666885)" fill-opacity="1" fill="#ffeba7" fill-rule="nonzero" stroke-linejoin="round" d="M 22.432708 -3.401499 C 21.819232 -5.755777 18.872452 -9.740746 18.872452 -9.740746 C 20.46644 -0.779809 2.486888 -3.411986 -14.690426 -2.05395 C -24.647606 -1.267443 -22.14127 9.738413 -22.14127 9.738413 C -22.14127 9.738413 -18.832697 9.528677 -3.501052 9.518191 C -3.501052 9.518191 23.077644 8.359404 23.077644 8.359404 C 23.077644 8.359404 24.650658 5.045587 22.432708 -3.401499 Z M 22.432708 -3.401499 " stroke="#c29a15" stroke-width="2" stroke-opacity="1" stroke-miterlimit="4"/><path stroke-linecap="round" transform="matrix(0.744987, -0.000659584, 0.000659584, 0.744987, 539.102616, 526.562634)" fill-opacity="1" fill="#f4d94b" fill-rule="nonzero" stroke-linejoin="round" d="M 6.437414 -59.171299 C 6.437414 -59.171299 -12.890117 -58.695533 -15.197482 -58.382973 C -17.284602 -58.096435 -17.628381 -60.676483 -17.628381 -60.676483 C -17.628381 -60.676483 -45.365045 -32.004006 -23.167639 -4.83936 C -8.753468 12.801655 -16.984789 35.59784 -17.318348 51.086497 C -17.526087 60.676461 46.672411 56.428482 44.118983 44.471309 C 43.058978 39.499643 35.104283 22.278574 27.599293 -17.247447 C 23.444931 -39.126519 24.596219 -48.422017 6.437414 -59.171299 Z M 6.437414 -59.171299 " stroke="#c29a15" stroke-width="2" stroke-opacity="1" stroke-miterlimit="4"/><path stroke-linecap="butt" transform="matrix(0.744986, -0.00115427, 0.00115427, 0.744986, 517.849537, 386.064317)" fill-opacity="1" fill="#ffffff" fill-rule="nonzero" stroke-linejoin="miter" d="M 98.259447 -119.027139 C 98.259447 -119.027139 81.522822 -71.820641 35.193449 -86.128219 C -10.721884 -100.314557 0.794826 -149.133619 0.794826 -149.133619 C 0.794826 -149.133619 -59.359971 -167.720248 -59.359971 -167.720248 C -59.359971 -167.720248 -81.31403 -96.653936 -81.31403 -96.653936 C -112.240453 -106.208114 -145.054196 -88.882371 -154.608374 -57.955948 C -164.162551 -27.029524 -146.836816 5.789462 -115.910393 15.343639 C -115.910393 15.343639 -156.714558 147.408525 -156.714558 147.408525 C -156.714558 147.408525 -90.97298 167.718398 -90.97298 167.718398 C -90.97298 167.718398 -81.601082 139.376682 -70.452278 114.807714 C -59.829608 91.39672 -28.794176 71.205332 14.637728 57.06829 C 14.637728 57.06829 120.28537 30.873473 164.163488 -98.664581 C 164.163488 -98.664581 98.259447 -119.027139 98.259447 -119.027139 Z M 98.259447 -119.027139 " stroke="#c29a15" stroke-width="5" stroke-opacity="1" stroke-miterlimit="10"/><path stroke-linecap="round" transform="matrix(0.744983, -0.0023745, 0.0023745, 0.744983, 531.883873, 456.650013)" fill-opacity="1" fill="#ffffff" fill-rule="nonzero" stroke-linejoin="round" d="M -13.951666 -10.643509 C -22.591573 0.486923 -21.473523 14.9151 -21.473523 14.9151 C -15.61539 19.458832 4.563212 23.77555 13.203119 12.645118 C 21.8378 1.509426 22.597447 -9.803425 13.595813 -16.790117 C 4.594178 -23.776809 -5.316985 -21.779201 -13.951666 -10.643509 Z M -13.951666 -10.643509 " stroke="#c29a15" stroke-width="2" stroke-opacity="1" stroke-miterlimit="4"/><path stroke-linecap="round" transform="matrix(0.744983, -0.0023745, 0.0023745, 0.744983, 517.976113, 453.992229)" fill-opacity="1" fill="#ffffff" fill-rule="nonzero" stroke-linejoin="round" d="M 4.207691 -5.523683 C 4.207691 -5.523683 0.261467 0.409763 -2.251219 0.753063 C -4.207876 1.024727 0.082612 5.526758 0.082612 5.526758 " stroke="#c29a15" stroke-width="2" stroke-opacity="1" stroke-miterlimit="4"/><path stroke-linecap="round" transform="matrix(0.744983, -0.0023745, 0.0023745, 0.744983, 541.774848, 463.806861)" fill-opacity="1" fill="#c29a15" fill-rule="nonzero" stroke-linejoin="miter" d="M -7.904817 -7.877493 C -7.904817 -7.877493 -10.962243 -14.294681 -16.327711 -15.481062 C -21.473124 -16.614308 -22.558791 -19.816247 -25.639936 -23.727162 C -30.120667 -29.409567 -21.791505 -40.105786 -4.230461 -33.799672 C 13.241546 -27.525303 19.428598 -12.666741 17.536086 -7.843595 C 17.255915 -7.131385 21.204189 1.097619 18.98277 10.408073 C 18.079384 14.175203 30.122134 19.535645 29.398785 26.040408 C 28.060196 38.033056 20.675127 33.835766 18.457355 33.776263 C 16.984073 33.740107 7.46797 40.106733 -0.933833 32.466526 C -24.44531 11.092868 -6.002583 -7.525365 -7.904817 -7.877493 Z M -7.904817 -7.877493 " stroke="#c29a15" stroke-width="2" stroke-opacity="1" stroke-miterlimit="10"/><path stroke-linecap="round" transform="matrix(0.744984, -0.00197875, 0.00197875, 0.744984, 509.747138, 478.076396)" fill-opacity="1" fill="#ffffff" fill-rule="nonzero" stroke-linejoin="round" d="M 29.730752 26.854084 C 29.730752 26.854084 -32.289043 3.492556 -28.964869 -10.273024 C -24.967309 -26.852521 32.28904 15.194317 32.28904 15.194317 C 32.28904 15.194317 29.730752 26.854084 29.730752 26.854084 Z M 29.730752 26.854084 " stroke="#c29a15" stroke-width="2" stroke-opacity="1" stroke-miterlimit="4"/><path stroke-linecap="round" transform="matrix(0.744984, -0.00197875, 0.00197875, 0.744984, 522.184081, 489.873811)" fill-opacity="1" fill="#f4d94b" fill-rule="nonzero" stroke-linejoin="round" d="M 14.017437 22.753232 C 14.017437 22.753232 -25.441897 4.050088 -25.441897 4.050088 C -25.441897 4.050088 -27.612697 -13.704584 -18.45991 -22.751354 C -18.45991 -22.751354 27.610218 4.274894 27.610218 4.274894 " stroke="#c29a15" stroke-width="2" stroke-opacity="1" stroke-miterlimit="4"/><path stroke-linecap="round" transform="matrix(0.744984, -0.00197875, 0.00197875, 0.744984, 490.237275, 454.770525)" fill-opacity="1" fill="#ffffff" fill-rule="nonzero" stroke-linejoin="round" d="M -2.303714 24.898693 C -2.303714 24.898693 -11.384386 -20.842623 -11.384386 -20.842623 C -11.384386 -20.842623 -5.343698 -24.9007 -5.343698 -24.9007 C -5.343698 -24.9007 11.383537 20.205501 11.383537 20.205501 " stroke="#c29a15" stroke-width="2" stroke-opacity="1" stroke-miterlimit="4"/><path stroke-linecap="round" transform="matrix(0.744984, -0.00197875, 0.00197875, 0.744984, 481.902051, 431.949814)" fill-opacity="1" fill="#ffffff" fill-rule="nonzero" stroke-linejoin="round" d="M 7.760361 11.943302 C 7.760361 11.943302 8.441943 -3.827032 8.441943 -3.827032 C 8.441943 -3.827032 1.680917 -12.837419 1.680917 -12.837419 C 1.680917 -12.837419 -8.441752 -7.793939 -8.049656 0.538864 C -7.900893 3.753462 -1.878832 8.682523 0.653182 12.836777 " stroke="#c29a15" stroke-width="2" stroke-opacity="1" stroke-miterlimit="4"/></svg>