<svg xmlns="http://www.w3.org/2000/svg" xmlns:xlink="http://www.w3.org/1999/xlink" width="1080" zoomAndPan="magnify" viewBox="0 0 810 809.999993" height="1080" preserveAspectRatio="xMidYMid meet" version="1.0"><path fill="#ffffff" d="M 553.441406 403.953125 C 553.441406 512.46875 465.476562 600.4375 356.957031 600.4375 C 248.441406 600.4375 160.472656 512.46875 160.472656 403.953125 C 160.472656 295.4375 248.441406 207.46875 356.957031 207.46875 C 465.476562 207.46875 553.441406 295.4375 553.441406 403.953125 Z M 553.441406 403.953125 " fill-opacity="1" fill-rule="nonzero"/><path stroke-linecap="round" transform="matrix(1.158663, -0.00396535, 0.00396535, 1.158663, 592.43815, 333.895726)" fill-opacity="1" fill="#88c9bb" fill-rule="nonzero" stroke-linejoin="miter" d="M -13.052048 -68.659275 C -50.970618 -61.449632 -75.868454 -24.864742 -68.65881 13.053829 C -61.449167 50.972399 -24.867637 75.866852 13.050922 68.66058 C 50.969492 61.450936 75.867328 24.866046 68.657685 -13.052524 C 61.448041 -50.971094 24.866511 -75.865547 -13.052048 -68.659275 Z M 10.467779 55.071969 C -19.944668 60.854252 -49.2913 40.886493 -55.073571 10.470674 C -60.852471 -19.945133 -40.884724 -49.288393 -10.468905 -55.070665 C 19.946913 -60.852936 49.290174 -40.885188 55.072445 -10.46937 C 60.854717 19.946449 40.883598 49.289698 10.467779 55.071969 Z M 10.467779 55.071969 " stroke="#007d5f" stroke-width="2" stroke-opacity="1" stroke-miterlimit="10"/><path stroke-linecap="round" transform="matrix(1.158663, -0.00396535, 0.00396535, 1.158663, 510.449282, 337.339515)" fill-opacity="1" fill="#008d6f" fill-rule="nonzero" stroke-linejoin="round" d="M -46.888936 12.876797 C -46.888936 12.876797 17.503268 -50.037973 17.503268 -50.037973 C 17.503268 -50.037973 46.888543 -9.838651 25.386698 12.64879 C -10.369608 50.035983 -35.030867 35.225557 -46.888936 12.876797 Z M -46.888936 12.876797 " stroke="#007d5f" stroke-width="3" stroke-opacity="1" stroke-miterlimit="4"/><path stroke-linecap="round" transform="matrix(1.158663, -0.00396535, 0.00396535, 1.158663, 439.606805, 401.041524)" fill-opacity="1" fill="#88c9bb" fill-rule="nonzero" stroke-linejoin="miter" d="M -73.8263 14.622953 C -73.8263 14.622953 78.791985 17.299555 78.791985 17.299555 C 78.791985 17.299555 44.73846 -17.299086 44.73846 -17.299086 C 44.73846 -17.299086 -78.794505 -0.490924 -78.794505 -0.490924 C -78.794505 -0.490924 -73.8263 14.622953 -73.8263 14.622953 Z M -73.8263 14.622953 " stroke="#007d5f" stroke-width="2" stroke-opacity="1" stroke-miterlimit="10"/><path stroke-linecap="round" transform="matrix(1.158663, -0.00396535, 0.00396535, 1.158663, 352.948287, 415.608407)" fill-opacity="1" fill="#88c9bb" fill-rule="nonzero" stroke-linejoin="miter" d="M 18.455667 26.559383 C 18.455667 26.559383 11.091452 33.806167 11.091452 33.806167 C 11.091452 33.806167 -31.596417 -9.560545 -31.596417 -9.560545 C -31.596417 -9.560545 -24.23219 -16.8107 -24.23219 -16.8107 C -24.23219 -16.8107 -1.478136 -33.808681 16.193478 -12.839132 C 31.598646 5.43907 18.455667 26.559383 18.455667 26.559383 Z M 18.455667 26.559383 " stroke="#007d5f" stroke-width="2" stroke-opacity="1" stroke-miterlimit="10"/><path stroke-linecap="round" transform="matrix(1.158663, -0.00396535, 0.00396535, 1.158663, 551.020344, 374.917912)" fill-opacity="1" fill="#88c9bb" fill-rule="nonzero" stroke-linejoin="miter" d="M 82.101659 19.689852 C 82.101659 19.689852 18.384408 82.404651 18.384408 82.404651 C 13.39825 87.313119 3.560447 85.408355 -3.585545 78.145626 C -3.585545 78.145626 -78.193557 2.348606 -78.193557 2.348606 C -85.339548 -4.914124 -87.08922 -14.78129 -82.103062 -19.689758 C -82.103062 -19.689758 -55.784758 -8.336031 -31.401424 -33.483714 C -6.321144 -59.347108 -18.385811 -82.404557 -18.385811 -82.404557 C -13.399653 -87.313025 -3.561849 -85.408261 3.584142 -78.145532 C 3.584142 -78.145532 78.192143 -2.345141 78.192143 -2.345141 C 85.341517 4.914229 87.091188 14.781396 82.101659 19.689852 Z M 82.101659 19.689852 " stroke="#007d5f" stroke-width="2" stroke-opacity="1" stroke-miterlimit="10"/><path stroke-linecap="round" transform="matrix(1.155834, 0.0810166, -0.0810166, 1.155834, 289.610204, 484.410932)" fill-opacity="1" fill="#88c9bb" fill-rule="nonzero" stroke-linejoin="miter" d="M -18.755436 82.525625 C -18.755436 82.525625 20.656729 -32.236683 -33.804339 -70.214758 C -33.804339 -70.214758 -29.2228 -82.526697 -29.2228 -82.526697 C -29.2228 -82.526697 33.805095 -51.931948 -6.473923 82.526567 C -6.473923 82.526567 -18.755436 82.525625 -18.755436 82.525625 Z M -18.755436 82.525625 " stroke="#007d5f" stroke-width="2" stroke-opacity="1" stroke-miterlimit="10"/><path stroke-linecap="round" transform="matrix(1.101184, 0.360429, -0.360429, 1.101184, 286.193603, 332.110666)" fill-opacity="1" fill="#008d6f" fill-rule="nonzero" stroke-linejoin="miter" d="M -5.30704 55.928258 C -5.30704 55.928258 -28.601775 34.720266 -21.532608 3.949866 C -14.949342 -24.70692 15.05776 -55.92953 15.05776 -55.92953 C 15.05776 -55.92953 28.601883 -20.02256 24.624197 10.601511 C 21.858157 31.900397 4.076831 49.277574 -5.30704 55.928258 Z M -5.30704 55.928258 " stroke="#007d5f" stroke-width="2" stroke-opacity="1" stroke-miterlimit="10"/><path stroke-linecap="round" transform="matrix(1.101184, 0.360429, -0.360429, 1.101184, 291.415419, 333.819788)" fill="none" stroke-linejoin="round" d="M 10.318971 -55.930551 C 10.318971 -55.930551 -10.318389 30.926266 -10.049033 55.928285 " stroke="#007d5f" stroke-width="2" stroke-opacity="1" stroke-miterlimit="4"/><path stroke-linecap="round" transform="matrix(1.08756, 0.399661, -0.399661, 1.08756, 193.741736, 405.751944)" fill-opacity="1" fill="#008d6f" fill-rule="nonzero" stroke-linejoin="miter" d="M 48.3628 -28.531682 C 48.3628 -28.531682 48.205616 2.971909 20.612588 18.32356 C -5.080992 32.618019 -48.364125 31.233188 -48.364125 31.233188 C -48.364125 31.233188 -30.75749 -2.868362 -5.347435 -20.416922 C 12.32605 -32.618957 37.140258 -31.048729 48.3628 -28.531682 Z M 48.3628 -28.531682 " stroke="#007d5f" stroke-width="2" stroke-opacity="1" stroke-miterlimit="10"/><path stroke-linecap="round" transform="matrix(1.08756, 0.399661, -0.399661, 1.08756, 193.202175, 407.22012)" fill="none" stroke-linejoin="round" d="M -48.3621 29.878879 C -48.3621 29.878879 37.477982 -23.367422 48.362823 -29.881663 " stroke="#007d5f" stroke-width="2" stroke-opacity="1" stroke-miterlimit="4"/><path stroke-linecap="round" transform="matrix(1.15867, 0, 0, 1.15867, 270.735928, 600.43787)" fill-opacity="1" fill="#008d6f" fill-rule="nonzero" stroke-linejoin="round" d="M 101.023737 34.865908 C 101.023737 34.865908 89.234219 34.865908 89.234219 34.865908 C 89.234219 34.865908 -101.026418 34.865908 -101.026418 34.865908 C -94.802955 -15.69383 -39.270516 -11.226826 -39.270516 -11.226826 C -39.270516 -11.226826 -35.993589 -34.866546 8.541593 -34.866546 C 58.551805 -34.866546 68.365727 -5.182043 68.365727 -5.182043 C 68.365727 -5.182043 101.023737 -21.445307 101.023737 34.865908 Z M 101.023737 34.865908 " stroke="#007d5f" stroke-width="3" stroke-opacity="1" stroke-miterlimit="4"/></svg>