<svg xmlns="http://www.w3.org/2000/svg" xmlns:xlink="http://www.w3.org/1999/xlink" width="1080" zoomAndPan="magnify" viewBox="0 0 810 809.999993" height="1080" preserveAspectRatio="xMidYMid meet" version="1.0"><defs><clipPath id="d8ce00306c"><path d="M 68.285156 306 L 191 306 L 191 414 L 68.285156 414 Z M 68.285156 306 " clip-rule="nonzero"/></clipPath></defs><path fill="#ff8383" d="M 668.011719 318.988281 C 668.011719 415.371094 589.878906 493.503906 493.496094 493.503906 C 397.113281 493.503906 318.984375 415.371094 318.984375 318.988281 C 318.984375 222.605469 397.113281 144.472656 493.496094 144.472656 C 589.878906 144.472656 668.011719 222.605469 668.011719 318.988281 Z M 668.011719 318.988281 " fill-opacity="1" fill-rule="nonzero"/><path stroke-linecap="round" transform="matrix(0.644737, 0, 0, 0.644737, 272.865107, 642.872868)" fill-opacity="1" fill="#ffffff" fill-rule="nonzero" stroke-linejoin="miter" d="M 6.443591 -36.209354 C 6.443591 -36.209354 12.290206 50.575012 12.290206 50.575012 C 12.290206 50.575012 10.824008 61.638141 -0.0149497 61.523026 C -11.084137 61.41397 -10.617619 50.987002 -10.617619 50.987002 C -10.617619 50.987002 -12.289812 -61.637585 -12.289812 -61.637585 C -12.289812 -61.637585 6.443591 -36.209354 6.443591 -36.209354 Z M 6.443591 -36.209354 " stroke="#ff3131" stroke-width="3" stroke-opacity="1" stroke-miterlimit="10"/><path stroke-linecap="round" transform="matrix(0.644737, 0, 0, 0.644737, 286.423935, 682.602874)" fill-opacity="1" fill="#ff5757" fill-rule="nonzero" stroke-linejoin="round" d="M -31.980848 -16.790604 C -31.980848 -16.790604 -37.809287 17.428755 -37.809287 17.428755 C -37.809287 17.428755 33.174072 17.519635 33.174072 17.519635 C 33.174072 17.519635 37.808954 8.98903 34.313102 6.323216 C 30.81725 3.651343 -8.255102 -17.517644 -8.255102 -17.517644 C -8.255102 -17.517644 -9.430484 -9.920074 -21.244887 -8.744692 C -32.011141 -7.678366 -31.980848 -16.790604 -31.980848 -16.790604 Z M -31.980848 -16.790604 " stroke="#ff3131" stroke-width="3" stroke-opacity="1" stroke-miterlimit="4"/><path stroke-linecap="round" transform="matrix(0.644737, 0, 0, 0.644737, 285.65284, 691.220433)" fill-opacity="1" fill="#ffffff" fill-rule="nonzero" stroke-linejoin="miter" d="M -35.068342 -4.152799 C -35.068342 -4.152799 -36.613302 4.062756 -36.613302 4.062756 C -36.613302 4.062756 34.370057 4.153636 34.370057 4.153636 C 34.370057 4.153636 36.611764 -1.408222 36.611764 -1.408222 C 36.611764 -1.408222 -35.068342 -4.152799 -35.068342 -4.152799 Z M -35.068342 -4.152799 " stroke="#ff3131" stroke-width="3" stroke-opacity="1" stroke-miterlimit="10"/><path stroke-linecap="round" transform="matrix(0.644737, 0, 0, 0.644737, 196.810614, 607.008685)" fill-opacity="1" fill="#ffffff" fill-rule="nonzero" stroke-linejoin="miter" d="M 35.712717 -119.254124 C 35.712717 -119.254124 -10.836032 108.061055 -10.836032 108.061055 C -10.836032 108.061055 -13.786603 119.148418 -24.63162 119.202946 C -35.712924 119.251416 -33.846854 108.824447 -33.846854 108.824447 C -33.846854 108.824447 5.728367 -118.296854 5.728367 -118.296854 C 5.728367 -118.296854 35.712717 -119.254124 35.712717 -119.254124 Z M 35.712717 -119.254124 " stroke="#ff3131" stroke-width="3" stroke-opacity="1" stroke-miterlimit="10"/><path stroke-linecap="round" transform="matrix(0.644737, 0, 0, 0.644737, 193.038891, 684.82849)" fill-opacity="1" fill="#ff5757" fill-rule="nonzero" stroke-linejoin="round" d="M -27.566676 -16.728549 C -27.566676 -16.728549 -38.435927 17.49081 -38.435927 17.49081 C -38.435927 17.49081 32.547432 17.49081 32.547432 17.49081 C 32.547432 17.49081 38.436458 8.960205 35.334419 6.294391 C 32.232381 3.628577 -3.731874 -17.491941 -3.731874 -17.491941 C -3.731874 -17.491941 -6.022051 -9.888312 -18.012156 -8.700813 C -28.935935 -7.616312 -27.566676 -16.728549 -27.566676 -16.728549 Z M -27.566676 -16.728549 " stroke="#ff3131" stroke-width="3" stroke-opacity="1" stroke-miterlimit="4"/><path stroke-linecap="round" transform="matrix(0.644737, 0, 0, 0.644737, 192.126587, 693.458313)" fill-opacity="1" fill="#ffffff" fill-rule="nonzero" stroke-linejoin="miter" d="M -34.270289 -4.109765 C -34.270289 -4.109765 -37.020925 4.105789 -37.020925 4.105789 C -37.020925 4.105789 33.962434 4.105789 33.962434 4.105789 C 33.962434 4.105789 37.022062 -1.456069 37.022062 -1.456069 C 37.022062 -1.456069 -34.270289 -4.109765 -34.270289 -4.109765 Z M -34.270289 -4.109765 " stroke="#ff3131" stroke-width="3" stroke-opacity="1" stroke-miterlimit="10"/><path stroke-linecap="round" transform="matrix(0.644737, 0, 0, 0.644737, 235.394274, 430.77811)" fill-opacity="1" fill="#ffffff" fill-rule="nonzero" stroke-linejoin="miter" d="M -36.490961 -31.009454 C -36.490961 -31.009454 -67.063001 29.995278 7.113276 30.552676 C 67.063799 31.007076 56.103668 -7.68358 56.103668 -7.68358 C 56.103668 -7.68358 -36.490961 -31.009454 -36.490961 -31.009454 Z M -36.490961 -31.009454 " stroke="#ff3131" stroke-width="3" stroke-opacity="1" stroke-miterlimit="10"/><path stroke-linecap="round" transform="matrix(0.644737, 0, 0, 0.644737, 263.874247, 546.499457)" fill-opacity="1" fill="#ffffff" fill-rule="nonzero" stroke-linejoin="miter" d="M 13.936105 -187.169599 C 13.936105 -187.169599 40.248902 186.226133 40.248902 186.226133 C 40.248902 186.226133 -0.0230668 187.165227 -0.0230668 187.165227 C -0.0230668 187.165227 -40.252625 -148.933343 -40.252625 -148.933343 " stroke="#ff3131" stroke-width="3" stroke-opacity="1" stroke-miterlimit="10"/><path stroke-linecap="round" transform="matrix(0.644737, 0, 0, 0.644737, 211.644089, 552.296944)" fill-opacity="1" fill="#ffffff" fill-rule="nonzero" stroke-linejoin="miter" d="M -2.949885 -179.451806 C -2.949885 -179.451806 -55.745122 179.451591 -55.745122 179.451591 C -55.745122 179.451591 -28.17818 178.239858 -28.17818 178.239858 C -28.17818 178.239858 55.740435 -154.920258 55.740435 -154.920258 " stroke="#ff3131" stroke-width="3" stroke-opacity="1" stroke-miterlimit="10"/><path stroke-linecap="round" transform="matrix(0.644737, 0, 0, 0.644737, 416.125111, 574.220559)" fill-opacity="1" fill="#ffffff" fill-rule="nonzero" stroke-linejoin="miter" d="M -33.45008 -140.279155 C -33.45008 -140.279155 -10.511961 151.536608 -10.511961 151.536608 C -10.511961 151.536608 13.73483 152.124298 13.73483 152.124298 C 13.73483 152.124298 33.449737 -152.123852 33.449737 -152.123852 " stroke="#ff3131" stroke-width="3" stroke-opacity="1" stroke-miterlimit="10"/><path stroke-linecap="round" transform="matrix(0.644737, 0, 0, 0.644737, 364.008441, 563.414176)" fill-opacity="1" fill="#ffffff" fill-rule="nonzero" stroke-linejoin="miter" d="M -27.852674 -114.763472 C -27.852674 -114.763472 -47.016242 167.322069 -47.016242 167.322069 C -47.016242 167.322069 -22.81792 167.90976 -22.81792 167.90976 C -22.81792 167.90976 47.014292 -167.910111 47.014292 -167.910111 " stroke="#ff3131" stroke-width="3" stroke-opacity="1" stroke-miterlimit="10"/><path stroke-linecap="round" transform="matrix(0.644737, 0, 0, 0.644737, 387.175765, 482.279084)" fill-opacity="1" fill="#ff8383" fill-rule="nonzero" stroke-linejoin="miter" d="M -39.211676 -130.191365 C -39.211676 -130.191365 -74.988113 37.536811 -104.421124 99.341287 C -104.421124 99.341287 -107.492869 130.192026 -1.126887 130.192026 C 105.239095 130.192026 107.49292 103.267304 107.49292 103.267304 C 107.49292 103.267304 54.721918 -130.03384 54.721918 -130.03384 " stroke="#ff3131" stroke-width="3" stroke-opacity="1" stroke-miterlimit="10"/><path stroke-linecap="round" transform="matrix(0.644737, 0, 0, 0.644737, 426.854862, 678.677674)" fill-opacity="1" fill="#ffffff" fill-rule="nonzero" stroke-linejoin="miter" d="M -2.90722 -12.895782 C -2.90722 -12.895782 19.279624 -2.680867 27.222538 2.547764 C 27.222538 2.547764 -6.845354 12.89597 -25.281882 -2.547576 C -25.281882 -2.547576 -27.226715 6.722186 -27.063131 -12.726139 " stroke="#ff3131" stroke-width="3" stroke-opacity="1" stroke-miterlimit="10"/><path stroke-linecap="round" transform="matrix(0.644737, 0, 0, 0.644737, 426.112062, 683.328202)" fill-opacity="1" fill="#ff8383" fill-rule="nonzero" stroke-linejoin="round" d="M -14.448033 13.389538 C -14.448033 13.389538 -10.479605 14.116578 13.482428 13.747 C 37.45052 13.377421 42.673092 13.619768 42.673092 13.619768 C 42.673092 13.619768 44.115055 -3.689848 28.374635 -4.665293 C 1.207566 -6.361721 -16.913911 -1.272439 -26.759247 -14.116816 C -26.759247 -14.116816 -44.117332 9.578636 -14.448033 13.389538 Z M -14.448033 13.389538 " stroke="#ff3131" stroke-width="3" stroke-opacity="1" stroke-miterlimit="4"/><path stroke-linecap="round" transform="matrix(0.644737, 0, 0, 0.644737, 351.220063, 677.99365)" fill-opacity="1" fill="#ffffff" fill-rule="nonzero" stroke-linejoin="miter" d="M -2.904139 -12.895115 C -2.904139 -12.895115 19.282704 -2.6802 27.225619 2.542373 C 27.225619 2.542373 -6.848332 12.890578 -25.278802 -2.546909 C -25.278802 -2.546909 -27.223634 6.722854 -27.06005 -12.725472 " stroke="#ff3131" stroke-width="3" stroke-opacity="1" stroke-miterlimit="10"/><path stroke-linecap="round" transform="matrix(0.644737, 0, 0, 0.644737, 350.476685, 682.643482)" fill-opacity="1" fill="#ff8383" fill-rule="nonzero" stroke-linejoin="round" d="M -14.450114 13.391285 C -14.450114 13.391285 -10.481686 14.112267 13.480347 13.742688 C 37.448439 13.373109 42.671011 13.621514 42.671011 13.621514 C 42.671011 13.621514 44.112974 -3.688101 28.378613 -4.669605 C 1.211544 -6.359974 -16.915992 -1.270692 -26.761328 -14.115069 C -26.761328 -14.115069 -44.113355 9.580383 -14.450114 13.391285 Z M -14.450114 13.391285 " stroke="#ff3131" stroke-width="3" stroke-opacity="1" stroke-miterlimit="4"/><path stroke-linecap="round" transform="matrix(0.644737, 0, 0, 0.644737, 563.609447, 624.178693)" fill-opacity="1" fill="#ffffff" fill-rule="nonzero" stroke-linejoin="miter" d="M 23.265175 -39.397977 C 23.265175 -39.397977 0.108944 76.504349 0.108944 76.504349 C 0.108944 76.504349 -1.357254 87.567477 -12.196211 87.458421 C -23.265398 87.343306 -22.798881 76.916338 -22.798881 76.916338 C -22.798881 76.916338 19.59968 -87.57045 19.59968 -87.57045 C 19.59968 -87.57045 23.265175 -39.397977 23.265175 -39.397977 Z M 23.265175 -39.397977 " stroke="#ff3131" stroke-width="3" stroke-opacity="1" stroke-miterlimit="10"/><path stroke-linecap="round" transform="matrix(0.644737, 0, 0, 0.644737, 554.089896, 440.585878)" fill-opacity="1" fill="#ff5757" fill-rule="nonzero" stroke-linejoin="round" d="M 56.351594 -26.724694 C 56.351594 -26.724694 71.080217 39.817661 -0.0000804583 38.854333 C -71.074319 37.897063 -51.941044 -39.817476 -51.941044 -39.817476 C -51.941044 -39.817476 56.351594 -26.724694 56.351594 -26.724694 Z M 56.351594 -26.724694 " stroke="#ff3131" stroke-width="3" stroke-opacity="1" stroke-miterlimit="4"/><path stroke-linecap="round" transform="matrix(0.644737, 0, 0, 0.644737, 569.315999, 680.627386)" fill-opacity="1" fill="#ff5757" fill-rule="nonzero" stroke-linejoin="round" d="M -31.983079 -16.786212 C -31.983079 -16.786212 -37.805459 17.427089 -37.805459 17.427089 C -37.805459 17.427089 33.1779 17.517969 33.1779 17.517969 C 33.1779 17.517969 37.806723 8.993422 34.310871 6.321549 C 30.821078 3.649677 -8.257333 -17.519311 -8.257333 -17.519311 C -8.257333 -17.519311 -9.426656 -9.92174 -21.241059 -8.746359 C -32.007313 -7.673975 -31.983079 -16.786212 -31.983079 -16.786212 Z M -31.983079 -16.786212 " stroke="#ff3131" stroke-width="3" stroke-opacity="1" stroke-miterlimit="4"/><path stroke-linecap="round" transform="matrix(0.644737, 0, 0, 0.644737, 568.544927, 689.244945)" fill-opacity="1" fill="#ffffff" fill-rule="nonzero" stroke-linejoin="miter" d="M -35.07061 -4.148407 C -35.07061 -4.148407 -36.609511 4.061089 -36.609511 4.061089 C -36.609511 4.061089 34.373847 4.151969 34.373847 4.151969 C 34.373847 4.151969 36.609496 -1.409889 36.609496 -1.409889 C 36.609496 -1.409889 -35.07061 -4.148407 -35.07061 -4.148407 Z M -35.07061 -4.148407 " stroke="#ff3131" stroke-width="3" stroke-opacity="1" stroke-miterlimit="10"/><path stroke-linecap="round" transform="matrix(0.644737, 0, 0, 0.644737, 515.395994, 605.033198)" fill-opacity="1" fill="#ffffff" fill-rule="nonzero" stroke-linejoin="miter" d="M 35.713582 -119.25579 C 35.713582 -119.25579 -10.835167 108.059389 -10.835167 108.059389 C -10.835167 108.059389 -13.785739 119.146752 -24.636814 119.20128 C -35.71206 119.255808 -33.84599 108.822781 -33.84599 108.822781 C -33.84599 108.822781 5.729232 -118.292462 5.729232 -118.292462 C 5.729232 -118.292462 35.713582 -119.25579 35.713582 -119.25579 Z M 35.713582 -119.25579 " stroke="#ff3131" stroke-width="3" stroke-opacity="1" stroke-miterlimit="10"/><path stroke-linecap="round" transform="matrix(0.644737, 0, 0, 0.644737, 511.624898, 682.853002)" fill-opacity="1" fill="#ff5757" fill-rule="nonzero" stroke-linejoin="round" d="M -27.566783 -16.730216 C -27.566783 -16.730216 -38.436034 17.489143 -38.436034 17.489143 C -38.436034 17.489143 32.547325 17.489143 32.547325 17.489143 C 32.547325 17.489143 38.436351 8.958538 35.334313 6.292724 C 32.232274 3.62691 -3.731981 -17.493608 -3.731981 -17.493608 C -3.731981 -17.493608 -6.022158 -9.889979 -18.012263 -8.70248 C -28.936042 -7.617978 -27.566783 -16.730216 -27.566783 -16.730216 Z M -27.566783 -16.730216 " stroke="#ff3131" stroke-width="3" stroke-opacity="1" stroke-miterlimit="4"/><path stroke-linecap="round" transform="matrix(0.644737, 0, 0, 0.644737, 510.711962, 691.482177)" fill-opacity="1" fill="#ffffff" fill-rule="nonzero" stroke-linejoin="miter" d="M -34.269417 -4.104368 C -34.269417 -4.104368 -37.020053 4.105127 -37.020053 4.105127 C -37.020053 4.105127 33.963306 4.105127 33.963306 4.105127 C 33.963306 4.105127 37.022934 -1.45673 37.022934 -1.45673 C 37.022934 -1.45673 -34.269417 -4.104368 -34.269417 -4.104368 Z M -34.269417 -4.104368 " stroke="#ff3131" stroke-width="3" stroke-opacity="1" stroke-miterlimit="10"/><path stroke-linecap="round" transform="matrix(0.644737, 0, 0, 0.644737, 584.239774, 542.178401)" fill-opacity="1" fill="#ff5757" fill-rule="nonzero" stroke-linejoin="round" d="M 9.588557 -184.296638 C 9.588557 -184.296638 53.307908 0.00199581 39.778901 39.916503 C 20.13064 97.904018 -23.516007 184.294571 -23.516007 184.294571 C -23.516007 184.294571 -53.30648 184.294571 -53.30648 184.294571 C -53.30648 184.294571 -5.436941 12.646437 -5.436941 12.646437 C -5.436941 12.646437 -38.232513 -122.970796 -38.232513 -122.970796 " stroke="#ff3131" stroke-width="3" stroke-opacity="1" stroke-miterlimit="4"/><path stroke-linecap="round" transform="matrix(0.644737, 0, 0, 0.644737, 529.030873, 543.575561)" fill-opacity="1" fill="#ff5757" fill-rule="nonzero" stroke-linejoin="round" d="M 55.116291 -136.243357 C 55.116291 -136.243357 24.507899 6.49887 24.507899 6.49887 C 24.507899 6.49887 -18.157244 182.127549 -18.157244 182.127549 C -18.157244 182.127549 -55.115121 182.127549 -55.115121 182.127549 C -55.115121 182.127549 -28.190399 55.640729 -23.276819 12.672653 C -17.739196 -35.72399 -15.418726 -182.125653 -15.418726 -182.125653 " stroke="#ff3131" stroke-width="3" stroke-opacity="1" stroke-miterlimit="4"/><path stroke-linecap="round" transform="matrix(0.644737, -0.000288792, 0.000288792, 0.644737, 397.210472, 303.466294)" fill-opacity="1" fill="#ffffff" fill-rule="nonzero" stroke-linejoin="miter" d="M -16.600374 -39.815143 C -16.600374 -39.815143 -16.27081 -4.583832 -26.135545 11.667159 C -36.006335 27.91209 1.709609 39.816093 18.854787 28.203245 C 36.006023 16.590399 10.969882 -6.625519 10.969882 -6.625519 C 10.969882 -6.625519 1.862458 -3.84867 8.217119 -28.928715 " stroke="#ff3131" stroke-width="3" stroke-opacity="1" stroke-miterlimit="10"/><path stroke-linecap="round" transform="matrix(0.644737, -0.000288792, 0.000288792, 0.644737, 393.701936, 354.179681)" fill-opacity="1" fill="#ff5757" fill-rule="nonzero" stroke-linejoin="round" d="M -14.566143 -88.105627 C -14.566143 -88.105627 14.039114 -79.665205 17.764858 -78.912261 C 21.133174 -78.232181 16.44157 -86.861828 16.44157 -86.861828 C 16.44157 -86.861828 50.337449 -68.028418 46.089917 0.505349 C 43.837961 36.910885 40.066791 42.889103 44.562901 68.65258 C 47.342743 84.606302 -50.342751 88.100809 -49.370638 68.489331 C -48.967113 60.334543 -27.389659 41.156402 -42.371011 -30.354726 C -46.367242 -49.441325 -40.504421 -72.092065 -14.566143 -88.105627 Z M -14.566143 -88.105627 " stroke="#ff3131" stroke-width="3" stroke-opacity="1" stroke-miterlimit="4"/><path stroke-linecap="round" transform="matrix(0.644736, -0.00115517, 0.00115517, 0.644736, 393.964378, 266.912234)" fill-opacity="1" fill="#ffffff" fill-rule="nonzero" stroke-linejoin="round" d="M 26.188625 -8.044636 C 33.03368 12.942772 23.738969 33.622563 23.738969 33.622563 C 12.693601 37.225863 -19.343013 32.909212 -26.188058 11.915746 C -33.033113 -9.071662 -28.149494 -26.160501 -11.181343 -31.691966 C 5.786818 -37.22949 19.343581 -29.038102 26.188625 -8.044636 Z M 26.188625 -8.044636 " stroke="#ff3131" stroke-width="3" stroke-opacity="1" stroke-miterlimit="4"/><path stroke-linecap="round" transform="matrix(0.644736, -0.00115517, 0.00115517, 0.644736, 413.693599, 269.235974)" fill-opacity="1" fill="#ffffff" fill-rule="nonzero" stroke-linejoin="round" d="M -4.47026 -9.243914 C -4.47026 -9.243914 -1.793577 1.599857 1.723215 3.441937 C 4.465225 4.876698 -4.236798 9.241531 -4.236798 9.241531 " stroke="#ff3131" stroke-width="3" stroke-opacity="1" stroke-miterlimit="4"/><path stroke-linecap="round" transform="matrix(0.644736, -0.00115517, 0.00115517, 0.644736, 390.122561, 277.11692)" fill-opacity="1" fill="#ff3131" fill-rule="nonzero" stroke-linejoin="miter" d="M 5.752953 -16.62035 C 5.752953 -16.62035 11.224234 -23.547733 20.146705 -22.453302 C 28.705734 -21.401933 25.627966 -24.806366 30.779193 -28.941272 C 38.278506 -34.962279 34.68694 -55.937799 5.459884 -55.941695 C -23.633893 -55.939294 -34.057991 -37.260891 -30.958409 -29.124591 C -30.500089 -27.93021 -37.134207 -17.860456 -33.531829 -2.919361 C -32.076456 3.123749 -38.280746 13.382092 -37.135395 23.380963 C -35.029721 41.821293 -22.720439 39.528933 -19.038717 40.620033 C -16.592311 41.345398 1.818102 55.937388 8.162098 42.098616 C 20.035038 16.200864 2.585132 -17.104661 5.752953 -16.62035 Z M 5.752953 -16.62035 " stroke="#ff3131" stroke-width="3" stroke-opacity="1" stroke-miterlimit="10"/><path stroke-linecap="round" transform="matrix(0.644734, -0.00211781, 0.00211781, 0.644734, 600.470421, 309.752582)" fill-opacity="1" fill="#ffffff" fill-rule="nonzero" stroke-linejoin="miter" d="M -37.759576 18.187419 C -37.759576 18.187419 60.755978 21.552489 67.110053 -3.8126 C 71.57937 -21.646855 -40.919349 -10.353387 -40.919349 -10.353387 C -40.919349 -10.353387 -71.582128 -10.448048 -70.301002 7.162747 C -69.251953 21.64649 -37.759576 18.187419 -37.759576 18.187419 Z M -37.759576 18.187419 " stroke="#ff3131" stroke-width="3" stroke-opacity="1" stroke-miterlimit="10"/><path stroke-linecap="round" transform="matrix(0.644734, -0.00211781, 0.00211781, 0.644734, 651.164323, 305.585424)" fill-opacity="1" fill="#ffffff" fill-rule="nonzero" stroke-linejoin="miter" d="M -34.811586 -6.178312 C -34.811586 -6.178312 41.197654 -27.327973 41.197654 -27.327973 C 41.197654 -27.327973 41.143824 -14.629111 41.143824 -14.629111 C 41.143824 -14.629111 -12.698342 27.3323 -41.202391 19.301771 " stroke="#ff3131" stroke-width="3" stroke-opacity="1" stroke-miterlimit="10"/><path stroke-linecap="round" transform="matrix(0.644734, -0.00211781, 0.00211781, 0.644734, 687.275705, 293.245083)" fill-opacity="1" fill="#ffffff" fill-rule="nonzero" stroke-linejoin="round" d="M -23.582487 -5.989188 C -23.582487 -5.989188 0.281264 -14.762564 0.281264 -14.762564 C 0.281264 -14.762564 20.422764 -22.863534 22.102795 -19.713549 C 24.890808 -14.487849 8.356159 -8.816689 8.356159 -8.816689 C 8.356159 -8.816689 9.299837 0.856099 9.299837 0.856099 C 9.299837 0.856099 -6.876479 22.862697 -24.895249 4.475936 " stroke="#ff3131" stroke-width="3" stroke-opacity="1" stroke-miterlimit="4"/><path stroke-linecap="round" transform="matrix(0.644737, -0.000288792, 0.000288792, 0.644737, 565.203839, 302.659517)" fill-opacity="1" fill="#ffffff" fill-rule="nonzero" stroke-linejoin="miter" d="M 6.386833 -45.272585 C 6.386833 -45.272585 -6.777089 -8.193365 -23.35349 5.067696 C -39.935952 18.334814 -4.941024 45.269157 17.49674 39.662821 C 39.934502 34.062543 22.573447 0.108042 22.573447 0.108042 C 22.573447 0.108042 11.964974 -0.466225 28.243193 -24.33615 " stroke="#ff3131" stroke-width="3" stroke-opacity="1" stroke-miterlimit="10"/><path stroke-linecap="round" transform="matrix(0.644737, -0.000288792, 0.000288792, 0.644737, 561.992855, 365.728506)" fill-opacity="1" fill="#ff8383" fill-rule="nonzero" stroke-linejoin="miter" d="M -7.895873 -107.335882 C -7.895873 -107.335882 27.122969 -79.686605 31.163523 -78.394298 C 34.822435 -77.223336 27.065562 -100.310341 27.065562 -100.310341 C 27.065562 -100.310341 67.705688 -56.542485 41.102054 -2.402014 C 23.145957 34.160073 42.219074 60.263305 44.066029 89.412392 C 45.209091 107.46168 -67.708097 97.874756 -64.238898 76.222625 C -63.260725 70.134101 -50.259951 59.131322 -43.163245 27.605184 C -39.769689 12.514558 -45.000309 -10.098739 -39.876144 -33.870663 C -35.286255 -55.158772 -38.650166 -92.724029 -7.895873 -107.335882 Z M -7.895873 -107.335882 " stroke="#ff3131" stroke-width="3" stroke-opacity="1" stroke-miterlimit="10"/><path stroke-linecap="round" transform="matrix(0.644736, -0.00115517, 0.00115517, 0.644736, 568.911071, 267.235437)" fill-opacity="1" fill="#ffffff" fill-rule="nonzero" stroke-linejoin="round" d="M 27.984849 -10.832893 C 37.929126 11.729265 29.912868 35.749679 29.912868 35.749679 C 18.040603 40.981281 -18.042684 39.753365 -27.986961 17.191207 C -37.931238 -5.370951 -34.412501 -24.903884 -16.173596 -32.941365 C 2.065319 -40.984904 18.040561 -33.388992 27.984849 -10.832893 Z M 27.984849 -10.832893 " stroke="#ff3131" stroke-width="3" stroke-opacity="1" stroke-miterlimit="4"/><path stroke-linecap="round" transform="matrix(0.644736, -0.00115517, 0.00115517, 0.644736, 591.324118, 269.774889)" fill-opacity="1" fill="#ffffff" fill-rule="nonzero" stroke-linejoin="round" d="M -5.749326 -10.257777 C -5.749326 -10.257777 -1.571713 1.491426 2.545222 3.146763 C 5.75401 4.436952 -3.435312 10.254995 -3.435312 10.254995 " stroke="#ff3131" stroke-width="3" stroke-opacity="1" stroke-miterlimit="4"/><path stroke-linecap="round" transform="matrix(0.644736, -0.00115517, 0.00115517, 0.644736, 556.773791, 269.74073)" fill-opacity="1" fill="#ff3131" fill-rule="nonzero" stroke-linejoin="miter" d="M 27.094706 -41.051266 C 27.094706 -41.051266 4.625341 -52.463662 -19.261409 -26.872193 C -29.872342 -15.506949 -30.599757 18.517284 -19.556532 33.017311 C -5.738895 51.157515 13.900996 52.465026 13.900996 52.465026 C 13.900996 52.465026 17.637547 -4.098156 17.637547 -4.098156 C 17.637547 -4.098156 30.593746 -12.393508 30.593746 -12.393508 C 30.593746 -12.393508 27.094706 -41.051266 27.094706 -41.051266 Z M 27.094706 -41.051266 " stroke="#ff3131" stroke-width="3" stroke-opacity="1" stroke-miterlimit="10"/><path stroke-linecap="round" transform="matrix(0.644736, -0.00115517, 0.00115517, 0.644736, 565.605095, 270.992466)" fill-opacity="1" fill="#ffffff" fill-rule="nonzero" stroke-linejoin="miter" d="M 6.740326 -4.774712 C 6.740326 -4.774712 -6.741779 -14.056527 -6.106233 -0.187075 C -5.470676 13.676319 4.646633 14.057967 4.646633 14.057967 " stroke="#ff3131" stroke-width="3" stroke-opacity="1" stroke-miterlimit="10"/><path stroke-linecap="round" transform="matrix(0.644736, -0.00115517, 0.00115517, 0.644736, 581.43859, 252.643836)" fill-opacity="1" fill="#ff3131" fill-rule="nonzero" stroke-linejoin="round" d="M -9.946727 -15.375492 C -9.946727 -15.375492 15.629452 -23.533118 15.583991 5.221287 C 15.583991 5.221287 7.809825 15.858514 11.579311 18.688612 C 11.579311 18.688612 -7.641434 23.53141 -11.637677 15.381387 C -15.627861 7.231374 -9.946727 -15.375492 -9.946727 -15.375492 Z M -9.946727 -15.375492 " stroke="#ff3131" stroke-width="3" stroke-opacity="1" stroke-miterlimit="4"/><path stroke-linecap="round" transform="matrix(0.644737, -0.000288792, 0.000288792, 0.644737, 247.180801, 315.991353)" fill-opacity="1" fill="#ffffff" fill-rule="nonzero" stroke-linejoin="miter" d="M -16.596766 -39.811598 C -16.596766 -39.811598 -16.267203 -4.580287 -26.137993 11.664643 C -36.002727 27.915634 1.707161 39.813576 18.858397 28.200731 C 36.003575 16.587882 10.967431 -6.621977 10.967431 -6.621977 C 10.967431 -6.621977 1.866069 -3.851183 8.220727 -28.92517 " stroke="#ff3131" stroke-width="3" stroke-opacity="1" stroke-miterlimit="10"/><path stroke-linecap="round" transform="matrix(0.644737, -0.000288792, 0.000288792, 0.644737, 241.744885, 371.813233)" fill-opacity="1" fill="#ff5757" fill-rule="nonzero" stroke-linejoin="round" d="M -11.569583 -96.024114 C -11.569583 -96.024114 20.105736 -83.825942 23.825422 -83.073 C 27.199793 -82.386859 17.43877 -94.781211 17.43877 -94.781211 C 17.43877 -94.781211 53.585986 -83.920001 49.086477 -7.413138 C 46.943577 28.992447 44.963172 54.304681 49.453223 80.068155 C 52.233065 96.021877 -53.592589 93.508597 -52.620477 73.897119 C -52.216952 65.742331 -24.399155 33.231853 -39.374448 -38.279272 C -43.376738 -57.365874 -37.51392 -80.010554 -11.569583 -96.024114 Z M -11.569583 -96.024114 " stroke="#ff3131" stroke-width="3" stroke-opacity="1" stroke-miterlimit="4"/><path stroke-linecap="round" transform="matrix(0.644736, -0.00115517, 0.00115517, 0.644736, 243.935792, 279.434538)" fill-opacity="1" fill="#ffffff" fill-rule="nonzero" stroke-linejoin="round" d="M 26.184501 -8.048944 C 33.029545 12.944523 23.740892 33.624324 23.740892 33.624324 C 12.695525 37.227624 -19.341079 32.904915 -26.186134 11.917507 C -33.031189 -9.0699 -28.153629 -26.158751 -11.17942 -31.690205 C 5.788742 -37.227728 19.345504 -29.036341 26.184501 -8.048944 Z M 26.184501 -8.048944 " stroke="#ff3131" stroke-width="3" stroke-opacity="1" stroke-miterlimit="4"/><path stroke-linecap="round" transform="matrix(0.644736, -0.00115517, 0.00115517, 0.644736, 232.524016, 281.295063)" fill-opacity="1" fill="#ff3131" fill-rule="nonzero" stroke-linejoin="miter" d="M -6.45742 -18.039386 C -6.45742 -18.039386 -22.089848 -24.223011 -22.075726 -8.434071 C -22.06571 2.883558 -5.331645 19.793017 4.06955 24.220579 C 4.06955 24.220579 7.565485 3.88786 7.565485 3.88786 C 7.565485 3.88786 22.094603 -23.39257 -6.45742 -18.039386 Z M -6.45742 -18.039386 " stroke="#ff3131" stroke-width="3" stroke-opacity="1" stroke-miterlimit="10"/><path stroke-linecap="round" transform="matrix(0.644736, -0.00115517, 0.00115517, 0.644736, 240.615827, 265.663072)" fill-opacity="1" fill="#ff3131" fill-rule="nonzero" stroke-linejoin="miter" d="M 1.804285 18.756377 C 1.804285 18.756377 18.135141 0.330904 34.933741 4.892893 C 34.933741 4.892893 33.812846 -18.756136 4.585779 -18.753974 C -24.507997 -18.751573 -34.932096 -0.0731689 -31.832502 8.057072 C -29.685726 13.701548 -15.349147 16.108295 1.804285 18.756377 Z M 1.804285 18.756377 " stroke="#ff3131" stroke-width="3" stroke-opacity="1" stroke-miterlimit="10"/><path stroke-linecap="round" transform="matrix(0.644736, -0.00115517, 0.00115517, 0.644736, 263.665068, 281.758921)" fill-opacity="1" fill="#ffffff" fill-rule="nonzero" stroke-linejoin="round" d="M -4.46842 -9.243151 C -4.46842 -9.243151 -1.791737 1.60062 1.725054 3.442701 C 4.467065 4.877461 -4.234959 9.242294 -4.234959 9.242294 " stroke="#ff3131" stroke-width="3" stroke-opacity="1" stroke-miterlimit="4"/><path stroke-linecap="round" transform="matrix(0.644736, -0.00115517, 0.00115517, 0.644736, 240.944624, 281.846051)" fill-opacity="1" fill="#ffffff" fill-rule="nonzero" stroke-linejoin="miter" d="M 6.266062 -3.560903 C 6.266062 -3.560903 -4.919464 -13.032482 -5.589982 -0.619452 C -6.26656 11.793568 2.716238 13.033515 2.716238 13.033515 " stroke="#ff3131" stroke-width="3" stroke-opacity="1" stroke-miterlimit="10"/><path stroke-linecap="round" transform="matrix(0.644736, -0.00115517, 0.00115517, 0.644736, 249.314463, 276.71186)" fill-opacity="1" fill="#ff3131" fill-rule="nonzero" stroke-linejoin="miter" d="M -11.652977 -7.268489 C -11.652977 -7.268489 -10.359988 11.630844 -3.57506 15.453909 C -3.57506 15.453909 -3.160453 -6.296002 4.245398 -10.875211 C 11.657307 -15.454409 -11.652977 -7.268489 -11.652977 -7.268489 Z M -11.652977 -7.268489 " stroke="#ff3131" stroke-width="3" stroke-opacity="1" stroke-miterlimit="10"/><path stroke-linecap="round" transform="matrix(0.644737, -0.000577584, 0.000577584, 0.644737, 418.558278, 359.413156)" fill-opacity="1" fill="#ff8383" fill-rule="nonzero" stroke-linejoin="miter" d="M 405.277313 40.357759 C 405.277313 40.357759 -405.281994 40.352606 -405.281994 40.352606 C -405.281994 40.352606 -405.282396 -40.354952 -405.282396 -40.354952 C -405.282396 -40.354952 405.282975 -40.355852 405.282975 -40.355852 C 405.282975 -40.355852 405.277313 40.357759 405.277313 40.357759 Z M 405.277313 40.357759 " stroke="#ff3131" stroke-width="3" stroke-opacity="1" stroke-miterlimit="10"/><path stroke-linecap="round" transform="matrix(0.644737, -0.000577584, 0.000577584, 0.644737, 704.855776, 359.156692)" fill-opacity="1" fill="#ffffff" fill-rule="nonzero" stroke-linejoin="round" d="M -36.69199 -40.354012 C -36.69199 -40.354012 -57.11577 -40.354133 -57.11577 -40.354133 C -57.11577 -40.354133 -39.057027 -24.421826 -39.057027 -24.421826 C -39.057027 -24.421826 -54.771109 -13.251597 -54.771109 -13.251597 C -54.771109 -13.251597 -39.051827 -3.174062 -39.051827 -3.174062 C -39.051827 -3.174062 -55.055573 13.472947 -55.055573 13.472947 C -55.055573 13.472947 -39.909333 27.488104 -39.909333 27.488104 C -39.909333 27.488104 -55.055421 40.35527 -55.055421 40.35527 C -55.055421 40.35527 -36.697646 40.35354 -36.697646 40.35354 C -36.697646 40.35354 57.114614 0.00201039 57.114614 0.00201039 C 57.114614 0.00201039 -36.69199 -40.354012 -36.69199 -40.354012 Z M -36.69199 -40.354012 " stroke="#ff3131" stroke-width="3" stroke-opacity="1" stroke-miterlimit="4"/><path stroke-linecap="round" transform="matrix(0.644737, -0.000577584, 0.000577584, 0.644737, 726.545007, 359.48218)" fill-opacity="1" fill="#ff3131" fill-rule="nonzero" stroke-linejoin="round" d="M -0.992933 -11.060619 C -0.992933 -11.060619 -23.473976 -0.532612 -23.473976 -0.532612 C -23.473976 -0.532612 -3.478632 11.063421 -3.478632 11.063421 C -3.478632 11.063421 23.474667 -0.532964 23.474667 -0.532964 C 23.474667 -0.532964 -0.992933 -11.060619 -0.992933 -11.060619 Z M -0.992933 -11.060619 " stroke="#ff3131" stroke-width="3" stroke-opacity="1" stroke-miterlimit="4"/><path stroke-linecap="round" transform="matrix(0.644737, -0.000577584, 0.000577584, 0.644737, 68.027374, 72.967252)" fill="none" stroke-linejoin="round" d="M 932.563906 431.51839 C 932.563906 431.51839 137.999489 431.515448 137.999489 431.515448 " stroke="#ff3131" stroke-width="3" stroke-opacity="1" stroke-miterlimit="4"/><path stroke-linecap="round" transform="matrix(0.644737, -0.000577584, 0.000577584, 0.644737, 68.027374, 72.967252)" fill="none" stroke-linejoin="round" d="M 932.279442 458.242933 C 932.279442 458.242933 137.999783 458.240246 137.999783 458.240246 " stroke="#ff3131" stroke-width="3" stroke-opacity="1" stroke-miterlimit="4"/><path fill="#ffffff" d="M 162.898438 385.660156 C 162.898438 385.660156 92.070312 385.722656 92.070312 385.722656 C 92.070312 385.722656 92.023438 333.6875 92.023438 333.6875 C 92.023438 333.6875 162.851562 333.625 162.851562 333.625 C 162.851562 333.625 162.898438 385.660156 162.898438 385.660156 Z M 162.898438 385.660156 " fill-opacity="1" fill-rule="nonzero"/><g clip-path="url(#d8ce00306c)"><path stroke-linecap="round" transform="matrix(0.644737, -0.000577584, 0.000577584, 0.644737, 127.462101, 359.673957)" fill="none" stroke-linejoin="miter" d="M 54.926308 40.354315 C 54.926308 40.354315 -54.929515 40.35284 -54.929515 40.35284 C -54.929515 40.35284 -54.929917 -40.354718 -54.929917 -40.354718 C -54.929917 -40.354718 54.925906 -40.353243 54.925906 -40.353243 C 54.925906 -40.353243 54.926308 40.354315 54.926308 40.354315 Z M 54.926308 40.354315 " stroke="#ff3131" stroke-width="3" stroke-opacity="1" stroke-miterlimit="10"/></g><path stroke-linecap="round" transform="matrix(0.644737, -0.000577584, 0.000577584, 0.644737, 135.583854, 359.666661)" fill-opacity="1" fill="#ff3131" fill-rule="nonzero" stroke-linejoin="round" d="M 42.329308 40.354346 C 42.329308 40.354346 -42.328506 40.357269 -42.328506 40.357269 C -42.328506 40.357269 -42.328903 -40.356348 -42.328903 -40.356348 C -42.328903 -40.356348 42.328906 -40.353212 42.328906 -40.353212 C 42.328906 -40.353212 42.329308 40.354346 42.329308 40.354346 Z M 42.329308 40.354346 " stroke="#ff3131" stroke-width="3" stroke-opacity="1" stroke-miterlimit="4"/><path stroke-linecap="round" transform="matrix(0.644736, -0.0010589, 0.0010589, 0.644736, 542.184, 356.346974)" fill-opacity="1" fill="#ffffff" fill-rule="nonzero" stroke-linejoin="miter" d="M -1.542094 -42.709088 C -1.542094 -42.709088 -36.452128 49.476932 -14.482435 63.666084 C 0.956879 73.633731 26.493336 -36.507428 26.493336 -36.507428 C 26.493336 -36.507428 36.452969 -65.512133 19.37482 -69.969075 C 5.318649 -73.633425 -1.542094 -42.709088 -1.542094 -42.709088 Z M -1.542094 -42.709088 " stroke="#ff3131" stroke-width="3" stroke-opacity="1" stroke-miterlimit="10"/><path stroke-linecap="round" transform="matrix(0.644736, -0.0010589, 0.0010589, 0.644736, 562.818143, 395.956114)" fill-opacity="1" fill="#ffffff" fill-rule="nonzero" stroke-linejoin="miter" d="M -32.495874 -18.143157 C -32.495874 -18.143157 46.385051 -16.286881 46.385051 -16.286881 C 46.385051 -16.286881 42.645093 -4.151435 42.645093 -4.151435 C 42.645093 -4.151435 -21.449914 18.142225 -46.385445 2.179068 " stroke="#ff3131" stroke-width="3" stroke-opacity="1" stroke-miterlimit="10"/><path stroke-linecap="round" transform="matrix(0.644736, -0.0010589, 0.0010589, 0.644736, 597.380709, 396.776162)" fill-opacity="1" fill="#ffffff" fill-rule="nonzero" stroke-linejoin="miter" d="M -15.290217 -17.605561 C -15.290217 -17.605561 9.135169 -19.346696 9.135169 -19.346696 C 9.135169 -19.346696 21.207816 -3.192611 21.207816 -3.192611 C 21.207816 -3.192611 -0.888853 19.351787 -21.210725 -9.508775 " stroke="#ff3131" stroke-width="3" stroke-opacity="1" stroke-miterlimit="10"/><path stroke-linecap="round" transform="matrix(0.644737, -0.000288792, 0.000288792, 0.644737, 395.736135, 371.847335)" fill-opacity="1" fill="#ffffff" fill-rule="nonzero" stroke-linejoin="miter" d="M -29.434088 -57.806334 C -29.434088 -57.806334 -26.487269 58.781963 13.659878 39.890838 C 29.439978 32.469978 -5.798783 -58.777252 -5.798783 -58.777252 C -5.798783 -58.777252 -29.434088 -57.806334 -29.434088 -57.806334 Z M -29.434088 -57.806334 " stroke="#ff3131" stroke-width="3" stroke-opacity="1" stroke-miterlimit="10"/><path stroke-linecap="round" transform="matrix(0.644737, -0.000288792, 0.000288792, 0.644737, 388.834614, 349.556722)" fill-opacity="1" fill="#ff5757" fill-rule="nonzero" stroke-linejoin="miter" d="M -21.428811 -37.564387 C -21.428811 -37.564387 -18.543047 39.491064 -18.543047 39.491064 C -18.543047 39.491064 4.925146 46.396342 21.428091 34.813499 C 21.428091 34.813499 6.184503 -46.397676 6.184503 -46.397676 " stroke="#ff3131" stroke-width="3" stroke-opacity="1" stroke-miterlimit="10"/><path stroke-linecap="round" transform="matrix(0.644737, -0.000288792, 0.000288792, 0.644737, 427.82499, 389.625792)" fill-opacity="1" fill="#ffffff" fill-rule="nonzero" stroke-linejoin="miter" d="M -43.914715 14.156387 C -43.914715 14.156387 40.88705 3.827988 40.88705 3.827988 C 40.88705 3.827988 43.915251 -7.16714 43.915251 -7.16714 C 43.915251 -7.16714 -39.018747 -14.153582 -39.018747 -14.153582 " stroke="#ff3131" stroke-width="3" stroke-opacity="1" stroke-miterlimit="10"/><path stroke-linecap="round" transform="matrix(0.644737, -0.000288792, 0.000288792, 0.644737, 462.873916, 391.858272)" fill-opacity="1" fill="#ffffff" fill-rule="nonzero" stroke-linejoin="round" d="M -20.035265 -11.458149 C -20.035265 -11.458149 -5.464537 -10.627644 -5.464537 -10.627644 C -5.464537 -10.627644 22.550688 -10.487863 22.550688 -10.487863 C 22.550688 -10.487863 2.547248 11.459795 -22.548903 0.482362 " stroke="#ff3131" stroke-width="3" stroke-opacity="1" stroke-miterlimit="4"/><path stroke-linecap="round" transform="matrix(0.644737, -0.000288792, 0.000288792, 0.644737, 228.859461, 370.16883)" fill-opacity="1" fill="#ffffff" fill-rule="nonzero" stroke-linejoin="miter" d="M -5.073149 -49.842224 C -5.073149 -49.842224 -27.740872 49.84303 11.394145 45.219618 C 27.741301 43.288166 17.038586 -44.464338 17.038586 -44.464338 C 17.038586 -44.464338 -5.073149 -49.842224 -5.073149 -49.842224 Z M -5.073149 -49.842224 " stroke="#ff3131" stroke-width="3" stroke-opacity="1" stroke-miterlimit="10"/><path stroke-linecap="round" transform="matrix(0.644737, -0.000288792, 0.000288792, 0.644737, 232.65736, 356.66051)" fill-opacity="1" fill="#ff5757" fill-rule="nonzero" stroke-linejoin="miter" d="M -15.618956 -45.077987 C -15.618956 -45.077987 -17.392623 32.678183 -17.392623 32.678183 C -17.392623 32.678183 -5.577711 45.073454 13.201392 37.738758 C 13.201392 37.738758 17.388284 -44.202872 17.388284 -44.202872 " stroke="#ff3131" stroke-width="3" stroke-opacity="1" stroke-miterlimit="10"/><path stroke-linecap="round" transform="matrix(0.644737, -0.000288792, 0.000288792, 0.644737, 263.02499, 392.365371)" fill-opacity="1" fill="#ffffff" fill-rule="nonzero" stroke-linejoin="miter" d="M -41.539544 11.065518 C -41.539544 11.065518 37.893877 1.546576 37.893877 1.546576 C 37.893877 1.546576 41.539975 -9.254398 41.539975 -9.254398 C 41.539975 -9.254398 -34.495514 -11.069705 -34.495514 -11.069705 " stroke="#ff3131" stroke-width="3" stroke-opacity="1" stroke-miterlimit="10"/><path stroke-linecap="round" transform="matrix(0.644737, -0.000288792, 0.000288792, 0.644737, 300.0345, 391.544151)" fill-opacity="1" fill="#ffffff" fill-rule="nonzero" stroke-linejoin="round" d="M -19.516562 -7.711144 C -19.516562 -7.711144 -0.810427 -14.458182 -0.810427 -14.458182 C -0.810427 -14.458182 22.587534 -13.072383 22.587534 -13.072383 C 22.587534 -13.072383 1.842437 14.454977 -22.59269 2.072229 " stroke="#ff3131" stroke-width="3" stroke-opacity="1" stroke-miterlimit="4"/></svg>