<svg xmlns="http://www.w3.org/2000/svg" xmlns:xlink="http://www.w3.org/1999/xlink" width="1080" zoomAndPan="magnify" viewBox="0 0 810 809.999993" height="1080" preserveAspectRatio="xMidYMid meet" version="1.0"><path fill="#ffe86d" d="M 643.765625 473.808594 C 643.765625 628.609375 518.273438 754.101562 363.472656 754.101562 C 208.671875 754.101562 83.179688 628.609375 83.179688 473.808594 C 83.179688 319.007812 208.671875 193.515625 363.472656 193.515625 C 518.273438 193.515625 643.765625 319.007812 643.765625 473.808594 Z M 643.765625 473.808594 " fill-opacity="1" fill-rule="nonzero"/><path fill="#ffd43b" d="M 318.910156 333.785156 C 318.910156 333.785156 245.238281 456.558594 187.632812 540.574219 C 187.632812 540.574219 175.632812 561 194.738281 568.007812 C 239.503906 584.425781 353.277344 626.148438 397.453125 611.109375 C 397.453125 611.109375 544.070312 378.8125 544.070312 378.8125 C 544.070312 378.8125 318.910156 333.785156 318.910156 333.785156 Z M 318.910156 333.785156 " fill-opacity="1" fill-rule="nonzero"/><path stroke-linecap="round" transform="matrix(0.932606, 0, 0, 0.932606, 425.78007, 522.08565)" fill-opacity="1" fill="#fffd55" fill-rule="nonzero" stroke-linejoin="miter" d="M -121.461935 -180.135829 C -121.461935 -180.135829 -146.551234 51.305621 -148.306228 110.665477 C -148.808852 127.595518 -146.07793 143.834451 -119.644113 154.004204 C -80.217474 169.170873 85.472422 210.850942 85.472422 210.850942 C 85.472422 210.850942 120.291677 214.553603 122.616312 192.55544 C 128.182869 139.830216 148.807194 -26.416754 148.643841 -104.113998 C 148.614521 -118.250289 145.686739 -148.608759 115.018317 -159.658103 C 84.349896 -170.707447 -35.41695 -210.284873 -87.769395 -213.761354 C -99.643879 -214.552986 -118.680751 -210.272308 -121.461935 -180.135829 Z M -121.461935 -180.135829 " stroke="#ffd43b" stroke-width="3" stroke-opacity="1" stroke-miterlimit="10"/><path stroke-linecap="round" transform="matrix(0.932606, 0, 0, 0.932606, 424.15083, 221.497274)" fill-opacity="1" fill="#ffffff" fill-rule="nonzero" stroke-linejoin="miter" d="M -105.025783 79.848883 C -170.534403 -25.492663 -149.889135 -101.950101 -119.149509 -150.989418 C -110.382914 -164.979111 -99.501111 -177.016948 -73.645312 -173.955132 C -35.08151 -169.389634 46.481748 -157.99683 97.623707 -151.600944 C 124.681615 -148.2208 127.605209 -129.761945 108.354723 -72.697403 C 77.703055 18.176958 170.53346 120.406426 139.354038 165.650934 C 131.521486 177.018606 130.641894 163.359808 101.045737 159.200597 C 71.453767 155.037197 -40.300419 146.480029 -82.504054 126.860951 C -92.074846 122.412732 -78.855844 121.931051 -105.025783 79.848883 Z M -105.025783 79.848883 " stroke="#ffd43b" stroke-width="3" stroke-opacity="1" stroke-miterlimit="10"/><path stroke-linecap="round" transform="matrix(0.932606, 0, 0, 0.932606, 450.113645, 518.225562)" fill-opacity="1" fill="#ffe86d" fill-rule="nonzero" stroke-linejoin="miter" d="M -126.36836 -172.507751 C -126.36836 -172.507751 -125.79872 52.898027 -121.530607 110.620168 C -120.311744 127.085282 -116.315886 142.813214 -92.022408 152.182957 C -55.791618 166.160084 94.308566 203.450573 94.308566 203.450573 C 94.308566 203.450573 125.353956 206.374167 125.245054 184.954021 C 124.985365 133.606824 126.870204 -28.35528 119.113045 -103.861922 C 117.70151 -117.596114 112.147518 -147.041484 84.034101 -157.186106 C 55.924871 -167.330727 -53.496303 -203.473558 -99.976428 -205.840078 C -110.51896 -206.37621 -126.870984 -201.848408 -126.36836 -172.507751 Z M -126.36836 -172.507751 " stroke="#ffd43b" stroke-width="3" stroke-opacity="1" stroke-miterlimit="10"/><path stroke-linecap="round" transform="matrix(0.932606, 0, 0, 0.932606, 477.203067, 520.751946)" fill-opacity="1" fill="#ffffff" fill-rule="nonzero" stroke-linejoin="miter" d="M -142.590088 -173.675322 C -142.590088 -173.675322 -104.177073 54.532583 -90.627176 112.941643 C -86.765351 129.603618 -80.516063 145.494903 -57.047726 154.806007 C -22.044175 168.690986 119.498841 205.349006 119.498841 205.349006 C 119.498841 205.349006 147.972473 208.079928 144.274 186.395905 C 135.406881 134.407862 112.654782 -30.205581 92.9645 -106.596003 C 89.383306 -120.493548 79.427169 -150.265624 52.390203 -160.330663 C 25.349049 -170.395702 -82.116082 -205.562606 -124.403487 -207.614986 C -133.995223 -208.079912 -147.972349 -203.380381 -142.590088 -173.675322 Z M -142.590088 -173.675322 " stroke="#ffd43b" stroke-width="3" stroke-opacity="1" stroke-miterlimit="10"/><path stroke-linecap="round" transform="matrix(0.932606, 0, 0, 0.932606, 481.214211, 512.550642)" fill="none" stroke-linejoin="miter" d="M -56.154952 122.606818 C -62.982257 85.911101 -13.838227 16.905059 -11.308355 70.283694 C -9.507286 108.298798 -58.580112 67.523452 -53.289997 25.705162 C -42.483588 -59.753429 42.204313 -32.779292 16.70035 17.964757 C -9.113565 69.328709 -84.176222 -9.641848 -63.447184 -48.616126 C -24.095939 -122.60652 84.177579 -37.256831 65.55956 -1.080492 C 53.278788 22.789944 -0.133355 -25.809577 53.710207 -88.792512 " stroke="#ffd43b" stroke-width="10.108" stroke-opacity="1" stroke-miterlimit="10"/><path stroke-linecap="round" transform="matrix(0.932606, 0, 0, 0.932606, 477.203067, 520.751946)" fill-opacity="1" fill="#ffffff" fill-rule="nonzero" stroke-linejoin="miter" d="M -142.590088 -173.675322 C -142.590088 -173.675322 -104.177073 54.532583 -90.627176 112.941643 C -86.765351 129.603618 -80.516063 145.494903 -57.047726 154.806007 C -22.044175 168.690986 119.498841 205.349006 119.498841 205.349006 C 119.498841 205.349006 147.972473 208.079928 144.274 186.395905 C 135.406881 134.407862 112.654782 -30.205581 92.9645 -106.596003 C 89.383306 -120.493548 79.427169 -150.265624 52.390203 -160.330663 C 25.349049 -170.395702 -82.116082 -205.562606 -124.403487 -207.614986 C -133.995223 -208.079912 -147.972349 -203.380381 -142.590088 -173.675322 Z M -142.590088 -173.675322 " stroke="#ffd43b" stroke-width="3" stroke-opacity="1" stroke-miterlimit="10"/><path stroke-linecap="round" transform="matrix(0.932606, 0, 0, 0.932606, 358.043013, 346.173694)" fill-opacity="1" fill="#ffd43b" fill-rule="nonzero" stroke-linejoin="miter" d="M 11.618936 6.825355 C 8.875448 11.491378 1.453372 12.220182 -4.963457 8.450505 C -11.380286 4.680827 -14.358331 -2.159044 -11.619032 -6.825067 C -8.875544 -11.49109 -1.453468 -12.219894 4.963361 -8.450217 C 11.38019 -4.680539 14.358235 2.159332 11.618936 6.825355 Z M 11.618936 6.825355 " stroke="#ffd43b" stroke-width="3" stroke-opacity="1" stroke-miterlimit="10"/><path stroke-linecap="round" transform="matrix(0.932606, 0, 0, 0.932606, 400.193069, 355.472697)" fill-opacity="1" fill="#ffd43b" fill-rule="nonzero" stroke-linejoin="miter" d="M 11.617201 6.823072 C 8.877902 11.493284 1.451637 12.2179 -4.965192 8.448222 C -11.382021 4.678545 -14.360066 -2.157137 -11.616578 -6.82316 C -8.877279 -11.493372 -1.451014 -12.217988 4.965814 -8.44831 C 11.378455 -4.678633 14.360689 2.157049 11.617201 6.823072 Z M 11.617201 6.823072 " stroke="#ffd43b" stroke-width="3" stroke-opacity="1" stroke-miterlimit="10"/><path stroke-linecap="round" transform="matrix(0.932606, 0, 0, 0.932606, 446.842949, 367.988262)" fill-opacity="1" fill="#ffd43b" fill-rule="nonzero" stroke-linejoin="miter" d="M 11.619843 6.823137 C 8.876355 11.48916 1.45009 12.217964 -4.96255 8.448287 C -11.379379 4.678609 -14.357424 -2.157073 -11.618125 -6.823096 C -8.874638 -11.489119 -1.452561 -12.217924 4.964268 -8.448246 C 11.381097 -4.678568 14.359142 2.157114 11.619843 6.823137 Z M 11.619843 6.823137 " stroke="#ffd43b" stroke-width="3" stroke-opacity="1" stroke-miterlimit="10"/><path stroke-linecap="round" transform="matrix(0.932606, 0, 0, 0.932606, 492.180747, 379.9592)" fill-opacity="1" fill="#ffd43b" fill-rule="nonzero" stroke-linejoin="miter" d="M 11.617848 6.824979 C 8.878549 11.491003 1.452284 12.219807 -4.964545 8.450129 C -11.381374 4.680452 -14.359419 -2.159419 -11.615931 -6.825442 C -8.876632 -11.491465 -1.450367 -12.220269 4.962273 -8.450592 C 11.379102 -4.680914 14.361336 2.158956 11.617848 6.824979 Z M 11.617848 6.824979 " stroke="#ffd43b" stroke-width="3" stroke-opacity="1" stroke-miterlimit="10"/><path stroke-linecap="round" transform="matrix(0.932606, 0, 0, 0.932606, 534.564889, 394.990956)" fill-opacity="1" fill="#ffd43b" fill-rule="nonzero" stroke-linejoin="miter" d="M 11.620611 6.824437 C 8.877124 11.49046 1.450859 12.219264 -4.96597 8.449587 C -11.37861 4.679909 -14.360844 -2.159961 -11.617357 -6.825985 C -8.878058 -11.492008 -1.451793 -12.220812 4.965036 -8.451135 C 11.381865 -4.681457 14.35991 2.158414 11.620611 6.824437 Z M 11.620611 6.824437 " stroke="#ffd43b" stroke-width="3" stroke-opacity="1" stroke-miterlimit="10"/><path stroke-linecap="round" transform="matrix(0.932606, 0, 0, 0.932606, 360.549859, 333.634779)" fill-opacity="1" fill="#ffe86d" fill-rule="nonzero" stroke-linejoin="miter" d="M -11.400192 10.071307 C -11.400192 10.071307 2.765419 -10.486001 -11.651503 -11.528945 C -11.651503 -11.528945 -14.688188 -24.85685 -2.876532 -23.575159 C 8.935125 -22.293469 14.690166 -7.419997 4.868062 15.704881 C 4.868062 15.704881 -2.562392 24.856821 -11.400192 10.071307 Z M -11.400192 10.071307 " stroke="#ffd43b" stroke-width="3" stroke-opacity="1" stroke-miterlimit="10"/><path stroke-linecap="round" transform="matrix(0.932606, 0, 0, 0.932606, 404.672383, 341.367044)" fill-opacity="1" fill="#ffe86d" fill-rule="nonzero" stroke-linejoin="miter" d="M -11.401725 10.073571 C -11.401725 10.073571 2.768074 -10.487926 -11.648849 -11.526682 C -11.648849 -11.526682 -14.689722 -24.858775 -2.878065 -23.572896 C 8.933591 -22.291206 14.688632 -7.417734 4.866528 15.702956 C 4.866528 15.702956 -2.559737 24.859084 -11.401725 10.073571 Z M -11.401725 10.073571 " stroke="#ffd43b" stroke-width="3" stroke-opacity="1" stroke-miterlimit="10"/><path stroke-linecap="round" transform="matrix(0.932606, 0, 0, 0.932606, 450.328109, 353.862072)" fill-opacity="1" fill="#ffe86d" fill-rule="nonzero" stroke-linejoin="miter" d="M -11.401163 10.074713 C -11.401163 10.074713 2.768636 -10.486784 -11.648286 -11.52554 C -11.648286 -11.52554 -14.68916 -24.857633 -2.877503 -23.575942 C 8.934153 -22.290063 14.689194 -7.420779 4.86709 15.704098 C 4.86709 15.704098 -2.559175 24.856038 -11.401163 10.074713 Z M -11.401163 10.074713 " stroke="#ffd43b" stroke-width="3" stroke-opacity="1" stroke-miterlimit="10"/><path stroke-linecap="round" transform="matrix(0.932606, 0, 0, 0.932606, 492.718875, 365.64929)" fill-opacity="1" fill="#ffe86d" fill-rule="nonzero" stroke-linejoin="miter" d="M -11.401314 10.072503 C -11.401314 10.072503 2.768485 -10.488994 -11.648437 -11.52775 C -11.648437 -11.52775 -14.689311 -24.855655 -2.877654 -23.573964 C 8.934002 -22.292274 14.689043 -7.418801 4.866939 15.701888 C 4.866939 15.701888 -2.559326 24.858016 -11.401314 10.072503 Z M -11.401314 10.072503 " stroke="#ffd43b" stroke-width="3" stroke-opacity="1" stroke-miterlimit="10"/><path stroke-linecap="round" transform="matrix(0.932606, 0, 0, 0.932606, 537.172416, 380.190469)" fill-opacity="1" fill="#ffe86d" fill-rule="nonzero" stroke-linejoin="miter" d="M -11.401761 10.074421 C -11.401761 10.074421 2.768038 -10.487076 -11.648884 -11.525831 C -11.648884 -11.525831 -14.689758 -24.857924 -2.878101 -23.572045 C 8.933555 -22.290355 14.688596 -7.421071 4.866492 15.703807 C 4.866492 15.703807 -2.559773 24.855746 -11.401761 10.074421 Z M -11.401761 10.074421 " stroke="#ffd43b" stroke-width="3" stroke-opacity="1" stroke-miterlimit="10"/><path stroke-linecap="round" transform="matrix(0.932606, 0, 0, 0.932606, 813.815171, 253.111706)" fill-opacity="1" fill="#ffe86d" fill-rule="nonzero" stroke-linejoin="miter" d="M 17.764884 -6.147074 C 17.764884 -6.147074 -7.148497 17.384091 -7.148497 17.384091 C -10.252198 20.316062 -15.14859 20.177841 -18.080562 17.07414 C -21.008345 13.970438 -20.870123 9.074046 -17.766422 6.142075 C -17.766422 6.142075 7.146958 -17.384902 7.146958 -17.384902 C 10.25066 -20.316874 15.147052 -20.178652 18.079023 -17.074951 C 21.010995 -13.97125 20.868585 -9.079046 17.764884 -6.147074 Z M 17.764884 -6.147074 " stroke="#ffd43b" stroke-width="3" stroke-opacity="1" stroke-miterlimit="10"/><path stroke-linecap="round" transform="matrix(0.932606, 0, 0, 0.932606, 731.713143, 330.653235)" fill-opacity="1" fill="#fffd55" fill-rule="nonzero" stroke-linejoin="miter" d="M -85.297603 94.781304 C -85.297603 94.781304 -99.492533 79.748668 -99.492533 79.748668 C -101.58261 77.537123 -101.482085 74.048077 -99.270541 71.958001 C -99.270541 71.958001 77.510584 -95.00102 77.510584 -95.00102 C 79.722128 -97.091097 83.206986 -96.990572 85.297062 -94.779028 C 85.297062 -94.779028 99.496181 -79.746391 99.496181 -79.746391 C 101.58207 -77.534847 101.485733 -74.04999 99.270001 -71.959913 C 99.270001 -71.959913 -77.506936 95.003296 -77.506936 95.003296 C -79.71848 97.093373 -83.207526 96.992848 -85.297603 94.781304 Z M -85.297603 94.781304 " stroke="#ffd43b" stroke-width="3" stroke-opacity="1" stroke-miterlimit="10"/><path stroke-linecap="round" transform="matrix(0.932606, 0, 0, 0.932606, 633.5153, 422.818055)" fill-opacity="1" fill="#ffe86d" fill-rule="nonzero" stroke-linejoin="round" d="M 6.023456 -26.867003 C 6.023456 -26.867003 -27.786364 26.863468 -27.786364 26.863468 C -27.786364 26.863468 27.787061 -3.821708 27.787061 -3.821708 C 27.787061 -3.821708 6.023456 -26.867003 6.023456 -26.867003 Z M 6.023456 -26.867003 " stroke="#ffd43b" stroke-width="3" stroke-opacity="1" stroke-miterlimit="4"/><path stroke-linecap="round" transform="matrix(0.932606, 0, 0, 0.932606, 617.816804, 438.513814)" fill-opacity="1" fill="#ffd43b" fill-rule="nonzero" stroke-linejoin="round" d="M 1.624723 -9.405498 C 1.624723 -9.405498 9.603874 -0.957232 9.603874 -0.957232 C 9.603874 -0.957232 -9.600539 9.405193 -9.600539 9.405193 C -9.600539 9.405193 1.624723 -9.405498 1.624723 -9.405498 Z M 1.624723 -9.405498 " stroke="#ffd43b" stroke-width="3" stroke-opacity="1" stroke-miterlimit="4"/></svg>