<svg width="48" height="49" viewBox="0 0 48 49" fill="none" xmlns="http://www.w3.org/2000/svg">
    <g clip-path="url(#clip0_353_824)">
    <path d="M48 24.5C48 11.2453 37.2547 0.5 24 0.5C10.7453 0.5 0 11.2453 0 24.5C0 35.755 7.74912 45.1995 18.2026 47.7934V31.8344H13.2538V24.5H18.2026V21.3397C18.2026 13.171 21.8995 9.3848 29.9194 9.3848C31.44 9.3848 34.0637 9.68336 35.137 9.98096V16.629C34.5706 16.5694 33.5866 16.5397 32.3645 16.5397C28.4294 16.5397 26.9088 18.0306 26.9088 21.9061V24.5H34.7482L33.4013 31.8344H26.9088V48.3243C38.7926 46.8891 48.001 36.7707 48.001 24.5H48Z" fill="#0866FF"/>
    <path d="M33.4002 31.8344L34.7471 24.5H26.9077V21.906C26.9077 18.0305 28.4284 16.5396 32.3634 16.5396C33.5855 16.5396 34.5695 16.5694 35.1359 16.6289V9.98093C34.0626 9.68237 31.4389 9.38477 29.9183 9.38477C21.8984 9.38477 18.2015 13.171 18.2015 21.3396V24.5H13.2527V31.8344H18.2015V47.7934C20.0581 48.2542 22.0002 48.5 23.9989 48.5C24.9829 48.5 25.9535 48.4395 26.9068 48.3243V31.8344H33.3992H33.4002Z" fill="white"/>
    </g>
    <defs>
    <clipPath id="clip0_353_824">
    <rect width="48" height="48" fill="white" transform="translate(0 0.5)"/>
    </clipPath>
    </defs>
    </svg>
    