<svg width="48" height="49" viewBox="0 0 48 49" fill="none" xmlns="http://www.w3.org/2000/svg">
    <path d="M34.3529 17.8269C37.4396 20.0413 41.221 21.3442 45.305 21.3442V13.4572C44.5321 13.4574 43.7612 13.3765 43.005 13.2157V19.4239C38.9213 19.4239 35.1404 18.121 32.0529 15.9068V32.0017C32.0529 40.0533 25.5491 46.5798 17.5267 46.5798C14.5333 46.5798 11.7511 45.6716 9.43994 44.1141C12.0778 46.8208 15.7564 48.5 19.8262 48.5C27.8491 48.5 34.3533 41.9734 34.3533 33.9215V17.8269H34.3529V17.8269ZM37.1902 9.86999C35.6128 8.14045 34.577 5.90535 34.3529 3.43435V2.41992H32.1733C32.722 5.56056 34.5933 8.24374 37.1902 9.86999ZM14.5141 37.9356C13.6328 36.7759 13.1565 35.3572 13.1586 33.8985C13.1586 30.216 16.1334 27.2302 19.8035 27.2302C20.4875 27.2301 21.1674 27.3352 21.8192 27.5427V19.4795C21.0575 19.3748 20.2887 19.3303 19.5202 19.3466V25.6226C18.8679 25.415 18.1877 25.3096 17.5035 25.3103C13.8334 25.3103 10.8588 28.2957 10.8588 31.9787C10.8588 34.5828 12.3457 36.8373 14.5141 37.9356Z" fill="#FF004F"/>
    <path d="M32.0529 15.9066C35.1404 18.1208 38.9213 19.4237 43.005 19.4237V13.2156C40.7255 12.7283 38.7075 11.5328 37.1903 9.86999C34.5931 8.24358 32.722 5.5604 32.1733 2.41992H26.4482V33.9212C26.4352 37.5936 23.4655 40.5672 19.8032 40.5672C17.6451 40.5672 15.7279 39.5348 14.5136 37.9356C12.3454 36.8373 10.8585 34.5826 10.8585 31.9789C10.8585 28.2962 13.8331 25.3104 17.5032 25.3104C18.2064 25.3104 18.8842 25.4203 19.5199 25.6228V19.3468C11.6384 19.5102 5.2998 25.973 5.2998 33.9214C5.2998 37.8892 6.87827 41.4861 9.44013 44.1143C11.7513 45.6716 14.5335 46.58 17.5268 46.58C25.5494 46.58 32.0531 40.0531 32.0531 32.0017V15.9066H32.0529Z" fill="black"/>
    <path d="M43.0051 13.2156V11.537C40.9495 11.5401 38.9343 10.9624 37.1903 9.86987C38.7342 11.5661 40.7671 12.7357 43.0051 13.2156ZM32.1734 2.41997C32.1211 2.11982 32.0809 1.8177 32.053 1.51443V0.5H24.148V32.0016C24.1354 35.6735 21.1658 38.6471 17.5033 38.6471C16.428 38.6471 15.4128 38.391 14.5137 37.9358C15.7279 39.5349 17.6452 40.5671 19.8033 40.5671C23.4652 40.5671 26.4354 37.5938 26.4482 33.9214V2.41997H32.1734ZM19.5203 19.3468V17.5598C18.8598 17.4692 18.1938 17.4237 17.5271 17.424C9.50383 17.4239 3 23.9508 3 32.0016C3 37.0491 5.55612 41.4974 9.44034 44.114C6.87848 41.486 5.30002 37.8889 5.30002 33.9213C5.30002 25.973 11.6385 19.5102 19.5203 19.3468Z" fill="#00F2EA"/>
    </svg>
    