<svg width="48" height="49" viewBox="0 0 48 49" fill="none" xmlns="http://www.w3.org/2000/svg">
    <path d="M0 48.5L3.374 36.174C1.292 32.566 0.198 28.476 0.2 24.282C0.206 11.17 10.876 0.5 23.986 0.5C30.348 0.502 36.32 2.98 40.812 7.476C45.302 11.972 47.774 17.948 47.772 24.304C47.766 37.418 37.096 48.088 23.986 48.088C20.006 48.086 16.084 47.088 12.61 45.192L0 48.5ZM13.194 40.886C16.546 42.876 19.746 44.068 23.978 44.07C34.874 44.07 43.75 35.202 43.756 24.3C43.76 13.376 34.926 4.52 23.994 4.516C13.09 4.516 4.22 13.384 4.216 24.284C4.214 28.734 5.518 32.066 7.708 35.552L5.71 42.848L13.194 40.886ZM35.968 29.958C35.82 29.71 35.424 29.562 34.828 29.264C34.234 28.966 31.312 27.528 30.766 27.33C30.222 27.132 29.826 27.032 29.428 27.628C29.032 28.222 27.892 29.562 27.546 29.958C27.2 30.354 26.852 30.404 26.258 30.106C25.664 29.808 23.748 29.182 21.478 27.156C19.712 25.58 18.518 23.634 18.172 23.038C17.826 22.444 18.136 22.122 18.432 21.826C18.7 21.56 19.026 21.132 19.324 20.784C19.626 20.44 19.724 20.192 19.924 19.794C20.122 19.398 20.024 19.05 19.874 18.752C19.724 18.456 18.536 15.53 18.042 14.34C17.558 13.182 17.068 13.338 16.704 13.32L15.564 13.3C15.168 13.3 14.524 13.448 13.98 14.044C13.436 14.64 11.9 16.076 11.9 19.002C11.9 21.928 14.03 24.754 14.326 25.15C14.624 25.546 18.516 31.55 24.478 34.124C25.896 34.736 27.004 35.102 27.866 35.376C29.29 35.828 30.586 35.764 31.61 35.612C32.752 35.442 35.126 34.174 35.622 32.786C36.118 31.396 36.118 30.206 35.968 29.958Z" fill="#25D366"/>
    </svg>
    